%TF.GenerationSoftware,KiCad,Pcbnew,7.0.8*%
%TF.CreationDate,2024-02-21T14:15:14-03:00*%
%TF.ProjectId,Lidar PCB,4c696461-7220-4504-9342-2e6b69636164,1.0*%
%TF.SameCoordinates,Original*%
%TF.FileFunction,Drillmap*%
%TF.FilePolarity,Positive*%
%FSLAX45Y45*%
G04 Gerber Fmt 4.5, Leading zero omitted, Abs format (unit mm)*
G04 Created by KiCad (PCBNEW 7.0.8) date 2024-02-21 14:15:14*
%MOMM*%
%LPD*%
G01*
G04 APERTURE LIST*
%ADD10C,0.500000*%
%ADD11C,0.200000*%
%ADD12C,0.040000*%
%ADD13C,0.060000*%
%ADD14C,0.080000*%
%ADD15C,0.090000*%
%ADD16C,0.095000*%
%ADD17C,0.099000*%
%ADD18C,0.100000*%
%ADD19C,0.110000*%
%ADD20C,0.130000*%
G04 APERTURE END LIST*
D10*
X17600000Y-9000000D02*
G75*
G03*
X14700000Y-6100000I-2900000J0D01*
G01*
X16000000Y-9000000D02*
G75*
G03*
X16000000Y-9000000I-1300000J0D01*
G01*
X14700000Y-6100000D02*
G75*
G03*
X11800000Y-9000000I0J-2900000D01*
G01*
X11800000Y-12700000D02*
X11800000Y-9000000D01*
X11800000Y-12700000D02*
G75*
G03*
X12100000Y-13000000I300000J0D01*
G01*
X17300000Y-13000000D02*
X12100000Y-13000000D01*
X17300000Y-13000000D02*
G75*
G03*
X17600000Y-12700000I0J300000D01*
G01*
X17600000Y-12700000D02*
X17600000Y-9000000D01*
D11*
D12*
X11918000Y-9428800D02*
X11958000Y-9468800D01*
X11958000Y-9428800D02*
X11918000Y-9468800D01*
X12578400Y-11333800D02*
X12618400Y-11373800D01*
X12618400Y-11333800D02*
X12578400Y-11373800D01*
X12805600Y-9825000D02*
X12845600Y-9865000D01*
X12845600Y-9825000D02*
X12805600Y-9865000D01*
X12908600Y-10899500D02*
X12948600Y-10939500D01*
X12948600Y-10899500D02*
X12908600Y-10939500D01*
X13351700Y-9825000D02*
X13391700Y-9865000D01*
X13391700Y-9825000D02*
X13351700Y-9865000D01*
X13418000Y-10079000D02*
X13458000Y-10119000D01*
X13458000Y-10079000D02*
X13418000Y-10119000D01*
X13518200Y-10015000D02*
X13558200Y-10055000D01*
X13558200Y-10015000D02*
X13518200Y-10055000D01*
X14064300Y-10593200D02*
X14104300Y-10633200D01*
X14104300Y-10593200D02*
X14064300Y-10633200D01*
X14077000Y-11644500D02*
X14117000Y-11684500D01*
X14117000Y-11644500D02*
X14077000Y-11684500D01*
X14165900Y-11994200D02*
X14205900Y-12034200D01*
X14205900Y-11994200D02*
X14165900Y-12034200D01*
X14193500Y-10305100D02*
X14233500Y-10345100D01*
X14233500Y-10305100D02*
X14193500Y-10345100D01*
X14254800Y-11179500D02*
X14294800Y-11219500D01*
X14294800Y-11179500D02*
X14254800Y-11219500D01*
X14254800Y-11419500D02*
X14294800Y-11459500D01*
X14294800Y-11419500D02*
X14254800Y-11459500D01*
X14356400Y-11259500D02*
X14396400Y-11299500D01*
X14396400Y-11259500D02*
X14356400Y-11299500D01*
X14356400Y-11499500D02*
X14396400Y-11539500D01*
X14396400Y-11499500D02*
X14356400Y-11539500D01*
X14369500Y-10305100D02*
X14409500Y-10345100D01*
X14409500Y-10305100D02*
X14369500Y-10345100D01*
X14481500Y-10952800D02*
X14521500Y-10992800D01*
X14521500Y-10952800D02*
X14481500Y-10992800D01*
X14561500Y-11816400D02*
X14601500Y-11856400D01*
X14601500Y-11816400D02*
X14561500Y-11856400D01*
X14597700Y-10470200D02*
X14637700Y-10510200D01*
X14637700Y-10470200D02*
X14597700Y-10510200D01*
X14641500Y-10952800D02*
X14681500Y-10992800D01*
X14681500Y-10952800D02*
X14641500Y-10992800D01*
X14686600Y-11259500D02*
X14726600Y-11299500D01*
X14726600Y-11259500D02*
X14686600Y-11299500D01*
X14686600Y-11419500D02*
X14726600Y-11459500D01*
X14726600Y-11419500D02*
X14686600Y-11459500D01*
X14741450Y-10952800D02*
X14781450Y-10992800D01*
X14781450Y-10952800D02*
X14741450Y-10992800D01*
X14773000Y-12133900D02*
X14813000Y-12173900D01*
X14813000Y-12133900D02*
X14773000Y-12173900D01*
X14788200Y-11179500D02*
X14828200Y-11219500D01*
X14828200Y-11179500D02*
X14788200Y-11219500D01*
X14788200Y-11339500D02*
X14828200Y-11379500D01*
X14828200Y-11339500D02*
X14788200Y-11379500D01*
X14788200Y-11499500D02*
X14828200Y-11539500D01*
X14828200Y-11499500D02*
X14788200Y-11539500D01*
X14822080Y-11902750D02*
X14862080Y-11942750D01*
X14862080Y-11902750D02*
X14822080Y-11942750D01*
X14851700Y-10597200D02*
X14891700Y-10637200D01*
X14891700Y-10597200D02*
X14851700Y-10637200D01*
X15413000Y-12133900D02*
X15453000Y-12173900D01*
X15453000Y-12133900D02*
X15413000Y-12173900D01*
X15423200Y-11902750D02*
X15463200Y-11942750D01*
X15463200Y-11902750D02*
X15423200Y-11942750D01*
X15689500Y-12197400D02*
X15729500Y-12237400D01*
X15729500Y-12197400D02*
X15689500Y-12237400D01*
X15754500Y-11132045D02*
X15794500Y-11172045D01*
X15794500Y-11132045D02*
X15754500Y-11172045D01*
X15754500Y-11492500D02*
X15794500Y-11532500D01*
X15794500Y-11492500D02*
X15754500Y-11532500D01*
X15880400Y-12525000D02*
X15920400Y-12565000D01*
X15920400Y-12525000D02*
X15880400Y-12565000D01*
X15884500Y-12197400D02*
X15924500Y-12237400D01*
X15924500Y-12197400D02*
X15884500Y-12237400D01*
X15918500Y-10533700D02*
X15958500Y-10573700D01*
X15958500Y-10533700D02*
X15918500Y-10573700D01*
X15949500Y-11492500D02*
X15989500Y-11532500D01*
X15989500Y-11492500D02*
X15949500Y-11532500D01*
X15994700Y-9403400D02*
X16034700Y-9443400D01*
X16034700Y-9403400D02*
X15994700Y-9443400D01*
X16014500Y-11132045D02*
X16054500Y-11172045D01*
X16054500Y-11132045D02*
X16014500Y-11172045D01*
X16242000Y-11492500D02*
X16282000Y-11532500D01*
X16282000Y-11492500D02*
X16242000Y-11532500D01*
X16248700Y-9403400D02*
X16288700Y-9443400D01*
X16288700Y-9403400D02*
X16248700Y-9443400D01*
X16312200Y-11132045D02*
X16352200Y-11172045D01*
X16352200Y-11132045D02*
X16312200Y-11172045D01*
X16375700Y-9771700D02*
X16415700Y-9811700D01*
X16415700Y-9771700D02*
X16375700Y-9811700D01*
X16667800Y-11054400D02*
X16707800Y-11094400D01*
X16707800Y-11054400D02*
X16667800Y-11094400D01*
X16667800Y-11460800D02*
X16707800Y-11500800D01*
X16707800Y-11460800D02*
X16667800Y-11500800D01*
X16769400Y-11460800D02*
X16809400Y-11500800D01*
X16809400Y-11460800D02*
X16769400Y-11500800D01*
X16883700Y-9593900D02*
X16923700Y-9633900D01*
X16923700Y-9593900D02*
X16883700Y-9633900D01*
X16972600Y-12248200D02*
X17012600Y-12288200D01*
X17012600Y-12248200D02*
X16972600Y-12288200D01*
X17023400Y-11816400D02*
X17063400Y-11856400D01*
X17063400Y-11816400D02*
X17023400Y-11856400D01*
X17280000Y-9606600D02*
X17320000Y-9646600D01*
X17320000Y-9606600D02*
X17280000Y-9646600D01*
D13*
X14711000Y-12380000D02*
G75*
G03*
X14711000Y-12380000I-30000J0D01*
G01*
D11*
X14711000Y-12435000D02*
X14711000Y-12325000D01*
X14711000Y-12325000D02*
G75*
G03*
X14651000Y-12325000I-30000J0D01*
G01*
X14651000Y-12325000D02*
X14651000Y-12435000D01*
X14651000Y-12435000D02*
G75*
G03*
X14711000Y-12435000I30000J0D01*
G01*
D13*
X14711000Y-12797000D02*
G75*
G03*
X14711000Y-12797000I-30000J0D01*
G01*
D11*
X14711000Y-12837000D02*
X14711000Y-12757000D01*
X14711000Y-12757000D02*
G75*
G03*
X14651000Y-12757000I-30000J0D01*
G01*
X14651000Y-12757000D02*
X14651000Y-12837000D01*
X14651000Y-12837000D02*
G75*
G03*
X14711000Y-12837000I30000J0D01*
G01*
D13*
X15575000Y-12380000D02*
G75*
G03*
X15575000Y-12380000I-30000J0D01*
G01*
D11*
X15575000Y-12435000D02*
X15575000Y-12325000D01*
X15575000Y-12325000D02*
G75*
G03*
X15515000Y-12325000I-30000J0D01*
G01*
X15515000Y-12325000D02*
X15515000Y-12435000D01*
X15515000Y-12435000D02*
G75*
G03*
X15575000Y-12435000I30000J0D01*
G01*
D13*
X15575000Y-12797000D02*
G75*
G03*
X15575000Y-12797000I-30000J0D01*
G01*
D11*
X15575000Y-12837000D02*
X15575000Y-12757000D01*
X15575000Y-12757000D02*
G75*
G03*
X15515000Y-12757000I-30000J0D01*
G01*
X15515000Y-12757000D02*
X15515000Y-12837000D01*
X15515000Y-12837000D02*
G75*
G03*
X15575000Y-12837000I30000J0D01*
G01*
D14*
X12191000Y-9104500D02*
X12191000Y-9184500D01*
X12151000Y-9144500D02*
X12231000Y-9144500D01*
X12191000Y-9358500D02*
X12191000Y-9438500D01*
X12151000Y-9398500D02*
X12231000Y-9398500D01*
X12953000Y-9104500D02*
X12953000Y-9184500D01*
X12913000Y-9144500D02*
X12993000Y-9144500D01*
X12953000Y-9358500D02*
X12953000Y-9438500D01*
X12913000Y-9398500D02*
X12993000Y-9398500D01*
D15*
X13918820Y-12449320D02*
X13918820Y-12385680D01*
X13855180Y-12385680D01*
X13855180Y-12449320D01*
X13918820Y-12449320D01*
X14172820Y-12449320D02*
X14172820Y-12385680D01*
X14109180Y-12385680D01*
X14109180Y-12449320D01*
X14172820Y-12449320D01*
D16*
X17272000Y-10465500D02*
X17319500Y-10418000D01*
X17272000Y-10370500D01*
X17224500Y-10418000D01*
X17272000Y-10465500D01*
X17272000Y-10715500D02*
X17319500Y-10668000D01*
X17272000Y-10620500D01*
X17224500Y-10668000D01*
X17272000Y-10715500D01*
X17272000Y-10965500D02*
X17319500Y-10918000D01*
X17272000Y-10870500D01*
X17224500Y-10918000D01*
X17272000Y-10965500D01*
X17272000Y-11215500D02*
X17319500Y-11168000D01*
X17272000Y-11120500D01*
X17224500Y-11168000D01*
X17272000Y-11215500D01*
X17272000Y-11465500D02*
X17319500Y-11418000D01*
X17272000Y-11370500D01*
X17224500Y-11418000D01*
X17272000Y-11465500D01*
X17272000Y-11715500D02*
X17319500Y-11668000D01*
X17272000Y-11620500D01*
X17224500Y-11668000D01*
X17272000Y-11715500D01*
D17*
X16174180Y-12615750D02*
X16273180Y-12714750D01*
X16273180Y-12615750D02*
X16174180Y-12714750D01*
X16273180Y-12665250D02*
G75*
G03*
X16273180Y-12665250I-49500J0D01*
G01*
X16624180Y-12615750D02*
X16723180Y-12714750D01*
X16723180Y-12615750D02*
X16624180Y-12714750D01*
X16723180Y-12665250D02*
G75*
G03*
X16723180Y-12665250I-49500J0D01*
G01*
D18*
X12017000Y-11532400D02*
X12117000Y-11632400D01*
X12117000Y-11532400D02*
X12017000Y-11632400D01*
X12067000Y-11532400D02*
X12067000Y-11632400D01*
X12017000Y-11582400D02*
X12117000Y-11582400D01*
X12017000Y-11786400D02*
X12117000Y-11886400D01*
X12117000Y-11786400D02*
X12017000Y-11886400D01*
X12067000Y-11786400D02*
X12067000Y-11886400D01*
X12017000Y-11836400D02*
X12117000Y-11836400D01*
X12017000Y-12040400D02*
X12117000Y-12140400D01*
X12117000Y-12040400D02*
X12017000Y-12140400D01*
X12067000Y-12040400D02*
X12067000Y-12140400D01*
X12017000Y-12090400D02*
X12117000Y-12090400D01*
X12065800Y-10491000D02*
X12165800Y-10591000D01*
X12165800Y-10491000D02*
X12065800Y-10591000D01*
X12115800Y-10491000D02*
X12115800Y-10591000D01*
X12065800Y-10541000D02*
X12165800Y-10541000D01*
X12271000Y-11532400D02*
X12371000Y-11632400D01*
X12371000Y-11532400D02*
X12271000Y-11632400D01*
X12321000Y-11532400D02*
X12321000Y-11632400D01*
X12271000Y-11582400D02*
X12371000Y-11582400D01*
X12271000Y-11786400D02*
X12371000Y-11886400D01*
X12371000Y-11786400D02*
X12271000Y-11886400D01*
X12321000Y-11786400D02*
X12321000Y-11886400D01*
X12271000Y-11836400D02*
X12371000Y-11836400D01*
X12271000Y-12040400D02*
X12371000Y-12140400D01*
X12371000Y-12040400D02*
X12271000Y-12140400D01*
X12321000Y-12040400D02*
X12321000Y-12140400D01*
X12271000Y-12090400D02*
X12371000Y-12090400D01*
X12315800Y-10491000D02*
X12415800Y-10591000D01*
X12415800Y-10491000D02*
X12315800Y-10591000D01*
X12365800Y-10491000D02*
X12365800Y-10591000D01*
X12315800Y-10541000D02*
X12415800Y-10541000D01*
X13006800Y-11649000D02*
X13106800Y-11749000D01*
X13106800Y-11649000D02*
X13006800Y-11749000D01*
X13056800Y-11649000D02*
X13056800Y-11749000D01*
X13006800Y-11699000D02*
X13106800Y-11699000D01*
D11*
X12926800Y-11749000D02*
X13186800Y-11749000D01*
X13186800Y-11749000D02*
G75*
G03*
X13186800Y-11649000I0J50000D01*
G01*
X13186800Y-11649000D02*
X12926800Y-11649000D01*
X12926800Y-11649000D02*
G75*
G03*
X12926800Y-11749000I0J-50000D01*
G01*
D18*
X13006800Y-12279000D02*
X13106800Y-12379000D01*
X13106800Y-12279000D02*
X13006800Y-12379000D01*
X13056800Y-12279000D02*
X13056800Y-12379000D01*
X13006800Y-12329000D02*
X13106800Y-12329000D01*
D11*
X12946800Y-12379000D02*
X13166800Y-12379000D01*
X13166800Y-12379000D02*
G75*
G03*
X13166800Y-12279000I0J50000D01*
G01*
X13166800Y-12279000D02*
X12946800Y-12279000D01*
X12946800Y-12279000D02*
G75*
G03*
X12946800Y-12379000I0J-50000D01*
G01*
D18*
X13486800Y-11939000D02*
X13586800Y-12039000D01*
X13586800Y-11939000D02*
X13486800Y-12039000D01*
X13536800Y-11939000D02*
X13536800Y-12039000D01*
X13486800Y-11989000D02*
X13586800Y-11989000D01*
D11*
X13486800Y-11879000D02*
X13486800Y-12099000D01*
X13486800Y-12099000D02*
G75*
G03*
X13586800Y-12099000I50000J0D01*
G01*
X13586800Y-12099000D02*
X13586800Y-11879000D01*
X13586800Y-11879000D02*
G75*
G03*
X13486800Y-11879000I-50000J0D01*
G01*
D18*
X14523000Y-6350000D02*
X14623000Y-6450000D01*
X14623000Y-6350000D02*
X14523000Y-6450000D01*
X14573000Y-6350000D02*
X14573000Y-6450000D01*
X14523000Y-6400000D02*
X14623000Y-6400000D01*
X14523000Y-7350000D02*
X14623000Y-7450000D01*
X14623000Y-7350000D02*
X14523000Y-7450000D01*
X14573000Y-7350000D02*
X14573000Y-7450000D01*
X14523000Y-7400000D02*
X14623000Y-7400000D01*
X14777000Y-6350000D02*
X14877000Y-6450000D01*
X14877000Y-6350000D02*
X14777000Y-6450000D01*
X14827000Y-6350000D02*
X14827000Y-6450000D01*
X14777000Y-6400000D02*
X14877000Y-6400000D01*
X14777000Y-7350000D02*
X14877000Y-7450000D01*
X14877000Y-7350000D02*
X14777000Y-7450000D01*
X14827000Y-7350000D02*
X14827000Y-7450000D01*
X14777000Y-7400000D02*
X14877000Y-7400000D01*
X15695395Y-7720395D02*
X15795395Y-7820395D01*
X15795395Y-7720395D02*
X15695395Y-7820395D01*
X15745395Y-7720395D02*
X15745395Y-7820395D01*
X15695395Y-7770395D02*
X15795395Y-7770395D01*
X15875000Y-7900000D02*
X15975000Y-8000000D01*
X15975000Y-7900000D02*
X15875000Y-8000000D01*
X15925000Y-7900000D02*
X15925000Y-8000000D01*
X15875000Y-7950000D02*
X15975000Y-7950000D01*
X16250000Y-8823000D02*
X16350000Y-8923000D01*
X16350000Y-8823000D02*
X16250000Y-8923000D01*
X16300000Y-8823000D02*
X16300000Y-8923000D01*
X16250000Y-8873000D02*
X16350000Y-8873000D01*
X16250000Y-9077000D02*
X16350000Y-9177000D01*
X16350000Y-9077000D02*
X16250000Y-9177000D01*
X16300000Y-9077000D02*
X16300000Y-9177000D01*
X16250000Y-9127000D02*
X16350000Y-9127000D01*
X16402502Y-7013288D02*
X16502502Y-7113288D01*
X16502502Y-7013288D02*
X16402502Y-7113288D01*
X16452502Y-7013288D02*
X16452502Y-7113288D01*
X16402502Y-7063288D02*
X16502502Y-7063288D01*
X16582107Y-7192893D02*
X16682107Y-7292893D01*
X16682107Y-7192893D02*
X16582107Y-7292893D01*
X16632107Y-7192893D02*
X16632107Y-7292893D01*
X16582107Y-7242893D02*
X16682107Y-7242893D01*
X17250000Y-8823000D02*
X17350000Y-8923000D01*
X17350000Y-8823000D02*
X17250000Y-8923000D01*
X17300000Y-8823000D02*
X17300000Y-8923000D01*
X17250000Y-8873000D02*
X17350000Y-8873000D01*
X17250000Y-9077000D02*
X17350000Y-9177000D01*
X17350000Y-9077000D02*
X17250000Y-9177000D01*
X17300000Y-9077000D02*
X17300000Y-9177000D01*
X17250000Y-9127000D02*
X17350000Y-9127000D01*
D19*
X12382630Y-8389742D02*
X12492630Y-8499742D01*
X12492630Y-8389742D02*
X12382630Y-8499742D01*
X12476521Y-8483633D02*
X12476521Y-8405850D01*
X12398738Y-8405850D01*
X12398738Y-8483633D01*
X12476521Y-8483633D01*
X12602600Y-8516742D02*
X12712600Y-8626742D01*
X12712600Y-8516742D02*
X12602600Y-8626742D01*
X12696491Y-8610633D02*
X12696491Y-8532850D01*
X12618709Y-8532850D01*
X12618709Y-8610633D01*
X12696491Y-8610633D01*
X12822570Y-8643742D02*
X12932570Y-8753742D01*
X12932570Y-8643742D02*
X12822570Y-8753742D01*
X12916462Y-8737633D02*
X12916462Y-8659850D01*
X12838679Y-8659850D01*
X12838679Y-8737633D01*
X12916462Y-8737633D01*
D20*
X16032680Y-12351250D02*
X16162680Y-12481250D01*
X16162680Y-12351250D02*
X16032680Y-12481250D01*
X16097680Y-12481250D02*
X16162680Y-12416250D01*
X16097680Y-12351250D01*
X16032680Y-12416250D01*
X16097680Y-12481250D01*
X16733680Y-12351250D02*
X16863680Y-12481250D01*
X16863680Y-12351250D02*
X16733680Y-12481250D01*
X16798680Y-12481250D02*
X16863680Y-12416250D01*
X16798680Y-12351250D01*
X16733680Y-12416250D01*
X16798680Y-12481250D01*
D11*
X12035777Y-13336484D02*
X12035777Y-13136484D01*
X12035777Y-13136484D02*
X12083396Y-13136484D01*
X12083396Y-13136484D02*
X12111967Y-13146008D01*
X12111967Y-13146008D02*
X12131015Y-13165055D01*
X12131015Y-13165055D02*
X12140539Y-13184103D01*
X12140539Y-13184103D02*
X12150062Y-13222198D01*
X12150062Y-13222198D02*
X12150062Y-13250769D01*
X12150062Y-13250769D02*
X12140539Y-13288865D01*
X12140539Y-13288865D02*
X12131015Y-13307912D01*
X12131015Y-13307912D02*
X12111967Y-13326960D01*
X12111967Y-13326960D02*
X12083396Y-13336484D01*
X12083396Y-13336484D02*
X12035777Y-13336484D01*
X12235777Y-13336484D02*
X12235777Y-13203150D01*
X12235777Y-13241246D02*
X12245301Y-13222198D01*
X12245301Y-13222198D02*
X12254824Y-13212674D01*
X12254824Y-13212674D02*
X12273872Y-13203150D01*
X12273872Y-13203150D02*
X12292920Y-13203150D01*
X12359586Y-13336484D02*
X12359586Y-13203150D01*
X12359586Y-13136484D02*
X12350062Y-13146008D01*
X12350062Y-13146008D02*
X12359586Y-13155531D01*
X12359586Y-13155531D02*
X12369110Y-13146008D01*
X12369110Y-13146008D02*
X12359586Y-13136484D01*
X12359586Y-13136484D02*
X12359586Y-13155531D01*
X12483396Y-13336484D02*
X12464348Y-13326960D01*
X12464348Y-13326960D02*
X12454824Y-13307912D01*
X12454824Y-13307912D02*
X12454824Y-13136484D01*
X12588158Y-13336484D02*
X12569110Y-13326960D01*
X12569110Y-13326960D02*
X12559586Y-13307912D01*
X12559586Y-13307912D02*
X12559586Y-13136484D01*
X12816729Y-13336484D02*
X12816729Y-13136484D01*
X12816729Y-13136484D02*
X12883396Y-13279341D01*
X12883396Y-13279341D02*
X12950062Y-13136484D01*
X12950062Y-13136484D02*
X12950062Y-13336484D01*
X13131015Y-13336484D02*
X13131015Y-13231722D01*
X13131015Y-13231722D02*
X13121491Y-13212674D01*
X13121491Y-13212674D02*
X13102443Y-13203150D01*
X13102443Y-13203150D02*
X13064348Y-13203150D01*
X13064348Y-13203150D02*
X13045301Y-13212674D01*
X13131015Y-13326960D02*
X13111967Y-13336484D01*
X13111967Y-13336484D02*
X13064348Y-13336484D01*
X13064348Y-13336484D02*
X13045301Y-13326960D01*
X13045301Y-13326960D02*
X13035777Y-13307912D01*
X13035777Y-13307912D02*
X13035777Y-13288865D01*
X13035777Y-13288865D02*
X13045301Y-13269817D01*
X13045301Y-13269817D02*
X13064348Y-13260293D01*
X13064348Y-13260293D02*
X13111967Y-13260293D01*
X13111967Y-13260293D02*
X13131015Y-13250769D01*
X13226253Y-13203150D02*
X13226253Y-13403150D01*
X13226253Y-13212674D02*
X13245301Y-13203150D01*
X13245301Y-13203150D02*
X13283396Y-13203150D01*
X13283396Y-13203150D02*
X13302443Y-13212674D01*
X13302443Y-13212674D02*
X13311967Y-13222198D01*
X13311967Y-13222198D02*
X13321491Y-13241246D01*
X13321491Y-13241246D02*
X13321491Y-13298388D01*
X13321491Y-13298388D02*
X13311967Y-13317436D01*
X13311967Y-13317436D02*
X13302443Y-13326960D01*
X13302443Y-13326960D02*
X13283396Y-13336484D01*
X13283396Y-13336484D02*
X13245301Y-13336484D01*
X13245301Y-13336484D02*
X13226253Y-13326960D01*
X13407205Y-13317436D02*
X13416729Y-13326960D01*
X13416729Y-13326960D02*
X13407205Y-13336484D01*
X13407205Y-13336484D02*
X13397682Y-13326960D01*
X13397682Y-13326960D02*
X13407205Y-13317436D01*
X13407205Y-13317436D02*
X13407205Y-13336484D01*
X13407205Y-13212674D02*
X13416729Y-13222198D01*
X13416729Y-13222198D02*
X13407205Y-13231722D01*
X13407205Y-13231722D02*
X13397682Y-13222198D01*
X13397682Y-13222198D02*
X13407205Y-13212674D01*
X13407205Y-13212674D02*
X13407205Y-13231722D01*
D12*
X11735000Y-13645000D02*
X11775000Y-13685000D01*
X11775000Y-13645000D02*
X11735000Y-13685000D01*
D11*
X12073872Y-13556484D02*
X12092920Y-13556484D01*
X12092920Y-13556484D02*
X12111967Y-13566008D01*
X12111967Y-13566008D02*
X12121491Y-13575531D01*
X12121491Y-13575531D02*
X12131015Y-13594579D01*
X12131015Y-13594579D02*
X12140539Y-13632674D01*
X12140539Y-13632674D02*
X12140539Y-13680293D01*
X12140539Y-13680293D02*
X12131015Y-13718388D01*
X12131015Y-13718388D02*
X12121491Y-13737436D01*
X12121491Y-13737436D02*
X12111967Y-13746960D01*
X12111967Y-13746960D02*
X12092920Y-13756484D01*
X12092920Y-13756484D02*
X12073872Y-13756484D01*
X12073872Y-13756484D02*
X12054824Y-13746960D01*
X12054824Y-13746960D02*
X12045301Y-13737436D01*
X12045301Y-13737436D02*
X12035777Y-13718388D01*
X12035777Y-13718388D02*
X12026253Y-13680293D01*
X12026253Y-13680293D02*
X12026253Y-13632674D01*
X12026253Y-13632674D02*
X12035777Y-13594579D01*
X12035777Y-13594579D02*
X12045301Y-13575531D01*
X12045301Y-13575531D02*
X12054824Y-13566008D01*
X12054824Y-13566008D02*
X12073872Y-13556484D01*
X12226253Y-13737436D02*
X12235777Y-13746960D01*
X12235777Y-13746960D02*
X12226253Y-13756484D01*
X12226253Y-13756484D02*
X12216729Y-13746960D01*
X12216729Y-13746960D02*
X12226253Y-13737436D01*
X12226253Y-13737436D02*
X12226253Y-13756484D01*
X12407205Y-13623150D02*
X12407205Y-13756484D01*
X12359586Y-13546960D02*
X12311967Y-13689817D01*
X12311967Y-13689817D02*
X12435777Y-13689817D01*
X12550062Y-13556484D02*
X12569110Y-13556484D01*
X12569110Y-13556484D02*
X12588158Y-13566008D01*
X12588158Y-13566008D02*
X12597682Y-13575531D01*
X12597682Y-13575531D02*
X12607205Y-13594579D01*
X12607205Y-13594579D02*
X12616729Y-13632674D01*
X12616729Y-13632674D02*
X12616729Y-13680293D01*
X12616729Y-13680293D02*
X12607205Y-13718388D01*
X12607205Y-13718388D02*
X12597682Y-13737436D01*
X12597682Y-13737436D02*
X12588158Y-13746960D01*
X12588158Y-13746960D02*
X12569110Y-13756484D01*
X12569110Y-13756484D02*
X12550062Y-13756484D01*
X12550062Y-13756484D02*
X12531015Y-13746960D01*
X12531015Y-13746960D02*
X12521491Y-13737436D01*
X12521491Y-13737436D02*
X12511967Y-13718388D01*
X12511967Y-13718388D02*
X12502443Y-13680293D01*
X12502443Y-13680293D02*
X12502443Y-13632674D01*
X12502443Y-13632674D02*
X12511967Y-13594579D01*
X12511967Y-13594579D02*
X12521491Y-13575531D01*
X12521491Y-13575531D02*
X12531015Y-13566008D01*
X12531015Y-13566008D02*
X12550062Y-13556484D01*
X12740539Y-13556484D02*
X12759586Y-13556484D01*
X12759586Y-13556484D02*
X12778634Y-13566008D01*
X12778634Y-13566008D02*
X12788158Y-13575531D01*
X12788158Y-13575531D02*
X12797682Y-13594579D01*
X12797682Y-13594579D02*
X12807205Y-13632674D01*
X12807205Y-13632674D02*
X12807205Y-13680293D01*
X12807205Y-13680293D02*
X12797682Y-13718388D01*
X12797682Y-13718388D02*
X12788158Y-13737436D01*
X12788158Y-13737436D02*
X12778634Y-13746960D01*
X12778634Y-13746960D02*
X12759586Y-13756484D01*
X12759586Y-13756484D02*
X12740539Y-13756484D01*
X12740539Y-13756484D02*
X12721491Y-13746960D01*
X12721491Y-13746960D02*
X12711967Y-13737436D01*
X12711967Y-13737436D02*
X12702443Y-13718388D01*
X12702443Y-13718388D02*
X12692920Y-13680293D01*
X12692920Y-13680293D02*
X12692920Y-13632674D01*
X12692920Y-13632674D02*
X12702443Y-13594579D01*
X12702443Y-13594579D02*
X12711967Y-13575531D01*
X12711967Y-13575531D02*
X12721491Y-13566008D01*
X12721491Y-13566008D02*
X12740539Y-13556484D01*
X12892920Y-13756484D02*
X12892920Y-13623150D01*
X12892920Y-13642198D02*
X12902443Y-13632674D01*
X12902443Y-13632674D02*
X12921491Y-13623150D01*
X12921491Y-13623150D02*
X12950063Y-13623150D01*
X12950063Y-13623150D02*
X12969110Y-13632674D01*
X12969110Y-13632674D02*
X12978634Y-13651722D01*
X12978634Y-13651722D02*
X12978634Y-13756484D01*
X12978634Y-13651722D02*
X12988158Y-13632674D01*
X12988158Y-13632674D02*
X13007205Y-13623150D01*
X13007205Y-13623150D02*
X13035777Y-13623150D01*
X13035777Y-13623150D02*
X13054824Y-13632674D01*
X13054824Y-13632674D02*
X13064348Y-13651722D01*
X13064348Y-13651722D02*
X13064348Y-13756484D01*
X13159586Y-13756484D02*
X13159586Y-13623150D01*
X13159586Y-13642198D02*
X13169110Y-13632674D01*
X13169110Y-13632674D02*
X13188158Y-13623150D01*
X13188158Y-13623150D02*
X13216729Y-13623150D01*
X13216729Y-13623150D02*
X13235777Y-13632674D01*
X13235777Y-13632674D02*
X13245301Y-13651722D01*
X13245301Y-13651722D02*
X13245301Y-13756484D01*
X13245301Y-13651722D02*
X13254824Y-13632674D01*
X13254824Y-13632674D02*
X13273872Y-13623150D01*
X13273872Y-13623150D02*
X13302443Y-13623150D01*
X13302443Y-13623150D02*
X13321491Y-13632674D01*
X13321491Y-13632674D02*
X13331015Y-13651722D01*
X13331015Y-13651722D02*
X13331015Y-13756484D01*
X13721491Y-13546960D02*
X13550063Y-13804103D01*
X13978634Y-13556484D02*
X13997682Y-13556484D01*
X13997682Y-13556484D02*
X14016729Y-13566008D01*
X14016729Y-13566008D02*
X14026253Y-13575531D01*
X14026253Y-13575531D02*
X14035777Y-13594579D01*
X14035777Y-13594579D02*
X14045301Y-13632674D01*
X14045301Y-13632674D02*
X14045301Y-13680293D01*
X14045301Y-13680293D02*
X14035777Y-13718388D01*
X14035777Y-13718388D02*
X14026253Y-13737436D01*
X14026253Y-13737436D02*
X14016729Y-13746960D01*
X14016729Y-13746960D02*
X13997682Y-13756484D01*
X13997682Y-13756484D02*
X13978634Y-13756484D01*
X13978634Y-13756484D02*
X13959586Y-13746960D01*
X13959586Y-13746960D02*
X13950063Y-13737436D01*
X13950063Y-13737436D02*
X13940539Y-13718388D01*
X13940539Y-13718388D02*
X13931015Y-13680293D01*
X13931015Y-13680293D02*
X13931015Y-13632674D01*
X13931015Y-13632674D02*
X13940539Y-13594579D01*
X13940539Y-13594579D02*
X13950063Y-13575531D01*
X13950063Y-13575531D02*
X13959586Y-13566008D01*
X13959586Y-13566008D02*
X13978634Y-13556484D01*
X14131015Y-13737436D02*
X14140539Y-13746960D01*
X14140539Y-13746960D02*
X14131015Y-13756484D01*
X14131015Y-13756484D02*
X14121491Y-13746960D01*
X14121491Y-13746960D02*
X14131015Y-13737436D01*
X14131015Y-13737436D02*
X14131015Y-13756484D01*
X14264348Y-13556484D02*
X14283396Y-13556484D01*
X14283396Y-13556484D02*
X14302444Y-13566008D01*
X14302444Y-13566008D02*
X14311967Y-13575531D01*
X14311967Y-13575531D02*
X14321491Y-13594579D01*
X14321491Y-13594579D02*
X14331015Y-13632674D01*
X14331015Y-13632674D02*
X14331015Y-13680293D01*
X14331015Y-13680293D02*
X14321491Y-13718388D01*
X14321491Y-13718388D02*
X14311967Y-13737436D01*
X14311967Y-13737436D02*
X14302444Y-13746960D01*
X14302444Y-13746960D02*
X14283396Y-13756484D01*
X14283396Y-13756484D02*
X14264348Y-13756484D01*
X14264348Y-13756484D02*
X14245301Y-13746960D01*
X14245301Y-13746960D02*
X14235777Y-13737436D01*
X14235777Y-13737436D02*
X14226253Y-13718388D01*
X14226253Y-13718388D02*
X14216729Y-13680293D01*
X14216729Y-13680293D02*
X14216729Y-13632674D01*
X14216729Y-13632674D02*
X14226253Y-13594579D01*
X14226253Y-13594579D02*
X14235777Y-13575531D01*
X14235777Y-13575531D02*
X14245301Y-13566008D01*
X14245301Y-13566008D02*
X14264348Y-13556484D01*
X14521491Y-13756484D02*
X14407206Y-13756484D01*
X14464348Y-13756484D02*
X14464348Y-13556484D01*
X14464348Y-13556484D02*
X14445301Y-13585055D01*
X14445301Y-13585055D02*
X14426253Y-13604103D01*
X14426253Y-13604103D02*
X14407206Y-13613627D01*
X14702444Y-13556484D02*
X14607206Y-13556484D01*
X14607206Y-13556484D02*
X14597682Y-13651722D01*
X14597682Y-13651722D02*
X14607206Y-13642198D01*
X14607206Y-13642198D02*
X14626253Y-13632674D01*
X14626253Y-13632674D02*
X14673872Y-13632674D01*
X14673872Y-13632674D02*
X14692920Y-13642198D01*
X14692920Y-13642198D02*
X14702444Y-13651722D01*
X14702444Y-13651722D02*
X14711967Y-13670769D01*
X14711967Y-13670769D02*
X14711967Y-13718388D01*
X14711967Y-13718388D02*
X14702444Y-13737436D01*
X14702444Y-13737436D02*
X14692920Y-13746960D01*
X14692920Y-13746960D02*
X14673872Y-13756484D01*
X14673872Y-13756484D02*
X14626253Y-13756484D01*
X14626253Y-13756484D02*
X14607206Y-13746960D01*
X14607206Y-13746960D02*
X14597682Y-13737436D01*
X14778634Y-13556484D02*
X14911967Y-13556484D01*
X14911967Y-13556484D02*
X14826253Y-13756484D01*
X14978634Y-13556484D02*
X14978634Y-13594579D01*
X15054825Y-13556484D02*
X15054825Y-13594579D01*
X15350063Y-13832674D02*
X15340539Y-13823150D01*
X15340539Y-13823150D02*
X15321491Y-13794579D01*
X15321491Y-13794579D02*
X15311968Y-13775531D01*
X15311968Y-13775531D02*
X15302444Y-13746960D01*
X15302444Y-13746960D02*
X15292920Y-13699341D01*
X15292920Y-13699341D02*
X15292920Y-13661246D01*
X15292920Y-13661246D02*
X15302444Y-13613627D01*
X15302444Y-13613627D02*
X15311968Y-13585055D01*
X15311968Y-13585055D02*
X15321491Y-13566008D01*
X15321491Y-13566008D02*
X15340539Y-13537436D01*
X15340539Y-13537436D02*
X15350063Y-13527912D01*
X15521491Y-13556484D02*
X15426253Y-13556484D01*
X15426253Y-13556484D02*
X15416729Y-13651722D01*
X15416729Y-13651722D02*
X15426253Y-13642198D01*
X15426253Y-13642198D02*
X15445301Y-13632674D01*
X15445301Y-13632674D02*
X15492920Y-13632674D01*
X15492920Y-13632674D02*
X15511968Y-13642198D01*
X15511968Y-13642198D02*
X15521491Y-13651722D01*
X15521491Y-13651722D02*
X15531015Y-13670769D01*
X15531015Y-13670769D02*
X15531015Y-13718388D01*
X15531015Y-13718388D02*
X15521491Y-13737436D01*
X15521491Y-13737436D02*
X15511968Y-13746960D01*
X15511968Y-13746960D02*
X15492920Y-13756484D01*
X15492920Y-13756484D02*
X15445301Y-13756484D01*
X15445301Y-13756484D02*
X15426253Y-13746960D01*
X15426253Y-13746960D02*
X15416729Y-13737436D01*
X15721491Y-13756484D02*
X15607206Y-13756484D01*
X15664348Y-13756484D02*
X15664348Y-13556484D01*
X15664348Y-13556484D02*
X15645301Y-13585055D01*
X15645301Y-13585055D02*
X15626253Y-13604103D01*
X15626253Y-13604103D02*
X15607206Y-13613627D01*
X15959587Y-13756484D02*
X15959587Y-13556484D01*
X16045301Y-13756484D02*
X16045301Y-13651722D01*
X16045301Y-13651722D02*
X16035777Y-13632674D01*
X16035777Y-13632674D02*
X16016730Y-13623150D01*
X16016730Y-13623150D02*
X15988158Y-13623150D01*
X15988158Y-13623150D02*
X15969110Y-13632674D01*
X15969110Y-13632674D02*
X15959587Y-13642198D01*
X16169110Y-13756484D02*
X16150063Y-13746960D01*
X16150063Y-13746960D02*
X16140539Y-13737436D01*
X16140539Y-13737436D02*
X16131015Y-13718388D01*
X16131015Y-13718388D02*
X16131015Y-13661246D01*
X16131015Y-13661246D02*
X16140539Y-13642198D01*
X16140539Y-13642198D02*
X16150063Y-13632674D01*
X16150063Y-13632674D02*
X16169110Y-13623150D01*
X16169110Y-13623150D02*
X16197682Y-13623150D01*
X16197682Y-13623150D02*
X16216730Y-13632674D01*
X16216730Y-13632674D02*
X16226253Y-13642198D01*
X16226253Y-13642198D02*
X16235777Y-13661246D01*
X16235777Y-13661246D02*
X16235777Y-13718388D01*
X16235777Y-13718388D02*
X16226253Y-13737436D01*
X16226253Y-13737436D02*
X16216730Y-13746960D01*
X16216730Y-13746960D02*
X16197682Y-13756484D01*
X16197682Y-13756484D02*
X16169110Y-13756484D01*
X16350063Y-13756484D02*
X16331015Y-13746960D01*
X16331015Y-13746960D02*
X16321491Y-13727912D01*
X16321491Y-13727912D02*
X16321491Y-13556484D01*
X16502444Y-13746960D02*
X16483396Y-13756484D01*
X16483396Y-13756484D02*
X16445301Y-13756484D01*
X16445301Y-13756484D02*
X16426253Y-13746960D01*
X16426253Y-13746960D02*
X16416730Y-13727912D01*
X16416730Y-13727912D02*
X16416730Y-13651722D01*
X16416730Y-13651722D02*
X16426253Y-13632674D01*
X16426253Y-13632674D02*
X16445301Y-13623150D01*
X16445301Y-13623150D02*
X16483396Y-13623150D01*
X16483396Y-13623150D02*
X16502444Y-13632674D01*
X16502444Y-13632674D02*
X16511968Y-13651722D01*
X16511968Y-13651722D02*
X16511968Y-13670769D01*
X16511968Y-13670769D02*
X16416730Y-13689817D01*
X16588158Y-13746960D02*
X16607206Y-13756484D01*
X16607206Y-13756484D02*
X16645301Y-13756484D01*
X16645301Y-13756484D02*
X16664349Y-13746960D01*
X16664349Y-13746960D02*
X16673872Y-13727912D01*
X16673872Y-13727912D02*
X16673872Y-13718388D01*
X16673872Y-13718388D02*
X16664349Y-13699341D01*
X16664349Y-13699341D02*
X16645301Y-13689817D01*
X16645301Y-13689817D02*
X16616730Y-13689817D01*
X16616730Y-13689817D02*
X16597682Y-13680293D01*
X16597682Y-13680293D02*
X16588158Y-13661246D01*
X16588158Y-13661246D02*
X16588158Y-13651722D01*
X16588158Y-13651722D02*
X16597682Y-13632674D01*
X16597682Y-13632674D02*
X16616730Y-13623150D01*
X16616730Y-13623150D02*
X16645301Y-13623150D01*
X16645301Y-13623150D02*
X16664349Y-13632674D01*
X16740539Y-13832674D02*
X16750063Y-13823150D01*
X16750063Y-13823150D02*
X16769111Y-13794579D01*
X16769111Y-13794579D02*
X16778634Y-13775531D01*
X16778634Y-13775531D02*
X16788158Y-13746960D01*
X16788158Y-13746960D02*
X16797682Y-13699341D01*
X16797682Y-13699341D02*
X16797682Y-13661246D01*
X16797682Y-13661246D02*
X16788158Y-13613627D01*
X16788158Y-13613627D02*
X16778634Y-13585055D01*
X16778634Y-13585055D02*
X16769111Y-13566008D01*
X16769111Y-13566008D02*
X16750063Y-13537436D01*
X16750063Y-13537436D02*
X16740539Y-13527912D01*
D13*
X11775000Y-13929000D02*
G75*
G03*
X11775000Y-13929000I-30000J0D01*
G01*
D11*
X12073872Y-13820484D02*
X12092920Y-13820484D01*
X12092920Y-13820484D02*
X12111967Y-13830008D01*
X12111967Y-13830008D02*
X12121491Y-13839531D01*
X12121491Y-13839531D02*
X12131015Y-13858579D01*
X12131015Y-13858579D02*
X12140539Y-13896674D01*
X12140539Y-13896674D02*
X12140539Y-13944293D01*
X12140539Y-13944293D02*
X12131015Y-13982388D01*
X12131015Y-13982388D02*
X12121491Y-14001436D01*
X12121491Y-14001436D02*
X12111967Y-14010960D01*
X12111967Y-14010960D02*
X12092920Y-14020484D01*
X12092920Y-14020484D02*
X12073872Y-14020484D01*
X12073872Y-14020484D02*
X12054824Y-14010960D01*
X12054824Y-14010960D02*
X12045301Y-14001436D01*
X12045301Y-14001436D02*
X12035777Y-13982388D01*
X12035777Y-13982388D02*
X12026253Y-13944293D01*
X12026253Y-13944293D02*
X12026253Y-13896674D01*
X12026253Y-13896674D02*
X12035777Y-13858579D01*
X12035777Y-13858579D02*
X12045301Y-13839531D01*
X12045301Y-13839531D02*
X12054824Y-13830008D01*
X12054824Y-13830008D02*
X12073872Y-13820484D01*
X12226253Y-14001436D02*
X12235777Y-14010960D01*
X12235777Y-14010960D02*
X12226253Y-14020484D01*
X12226253Y-14020484D02*
X12216729Y-14010960D01*
X12216729Y-14010960D02*
X12226253Y-14001436D01*
X12226253Y-14001436D02*
X12226253Y-14020484D01*
X12407205Y-13820484D02*
X12369110Y-13820484D01*
X12369110Y-13820484D02*
X12350062Y-13830008D01*
X12350062Y-13830008D02*
X12340539Y-13839531D01*
X12340539Y-13839531D02*
X12321491Y-13868103D01*
X12321491Y-13868103D02*
X12311967Y-13906198D01*
X12311967Y-13906198D02*
X12311967Y-13982388D01*
X12311967Y-13982388D02*
X12321491Y-14001436D01*
X12321491Y-14001436D02*
X12331015Y-14010960D01*
X12331015Y-14010960D02*
X12350062Y-14020484D01*
X12350062Y-14020484D02*
X12388158Y-14020484D01*
X12388158Y-14020484D02*
X12407205Y-14010960D01*
X12407205Y-14010960D02*
X12416729Y-14001436D01*
X12416729Y-14001436D02*
X12426253Y-13982388D01*
X12426253Y-13982388D02*
X12426253Y-13934769D01*
X12426253Y-13934769D02*
X12416729Y-13915722D01*
X12416729Y-13915722D02*
X12407205Y-13906198D01*
X12407205Y-13906198D02*
X12388158Y-13896674D01*
X12388158Y-13896674D02*
X12350062Y-13896674D01*
X12350062Y-13896674D02*
X12331015Y-13906198D01*
X12331015Y-13906198D02*
X12321491Y-13915722D01*
X12321491Y-13915722D02*
X12311967Y-13934769D01*
X12550062Y-13820484D02*
X12569110Y-13820484D01*
X12569110Y-13820484D02*
X12588158Y-13830008D01*
X12588158Y-13830008D02*
X12597682Y-13839531D01*
X12597682Y-13839531D02*
X12607205Y-13858579D01*
X12607205Y-13858579D02*
X12616729Y-13896674D01*
X12616729Y-13896674D02*
X12616729Y-13944293D01*
X12616729Y-13944293D02*
X12607205Y-13982388D01*
X12607205Y-13982388D02*
X12597682Y-14001436D01*
X12597682Y-14001436D02*
X12588158Y-14010960D01*
X12588158Y-14010960D02*
X12569110Y-14020484D01*
X12569110Y-14020484D02*
X12550062Y-14020484D01*
X12550062Y-14020484D02*
X12531015Y-14010960D01*
X12531015Y-14010960D02*
X12521491Y-14001436D01*
X12521491Y-14001436D02*
X12511967Y-13982388D01*
X12511967Y-13982388D02*
X12502443Y-13944293D01*
X12502443Y-13944293D02*
X12502443Y-13896674D01*
X12502443Y-13896674D02*
X12511967Y-13858579D01*
X12511967Y-13858579D02*
X12521491Y-13839531D01*
X12521491Y-13839531D02*
X12531015Y-13830008D01*
X12531015Y-13830008D02*
X12550062Y-13820484D01*
X12740539Y-13820484D02*
X12759586Y-13820484D01*
X12759586Y-13820484D02*
X12778634Y-13830008D01*
X12778634Y-13830008D02*
X12788158Y-13839531D01*
X12788158Y-13839531D02*
X12797682Y-13858579D01*
X12797682Y-13858579D02*
X12807205Y-13896674D01*
X12807205Y-13896674D02*
X12807205Y-13944293D01*
X12807205Y-13944293D02*
X12797682Y-13982388D01*
X12797682Y-13982388D02*
X12788158Y-14001436D01*
X12788158Y-14001436D02*
X12778634Y-14010960D01*
X12778634Y-14010960D02*
X12759586Y-14020484D01*
X12759586Y-14020484D02*
X12740539Y-14020484D01*
X12740539Y-14020484D02*
X12721491Y-14010960D01*
X12721491Y-14010960D02*
X12711967Y-14001436D01*
X12711967Y-14001436D02*
X12702443Y-13982388D01*
X12702443Y-13982388D02*
X12692920Y-13944293D01*
X12692920Y-13944293D02*
X12692920Y-13896674D01*
X12692920Y-13896674D02*
X12702443Y-13858579D01*
X12702443Y-13858579D02*
X12711967Y-13839531D01*
X12711967Y-13839531D02*
X12721491Y-13830008D01*
X12721491Y-13830008D02*
X12740539Y-13820484D01*
X12892920Y-14020484D02*
X12892920Y-13887150D01*
X12892920Y-13906198D02*
X12902443Y-13896674D01*
X12902443Y-13896674D02*
X12921491Y-13887150D01*
X12921491Y-13887150D02*
X12950063Y-13887150D01*
X12950063Y-13887150D02*
X12969110Y-13896674D01*
X12969110Y-13896674D02*
X12978634Y-13915722D01*
X12978634Y-13915722D02*
X12978634Y-14020484D01*
X12978634Y-13915722D02*
X12988158Y-13896674D01*
X12988158Y-13896674D02*
X13007205Y-13887150D01*
X13007205Y-13887150D02*
X13035777Y-13887150D01*
X13035777Y-13887150D02*
X13054824Y-13896674D01*
X13054824Y-13896674D02*
X13064348Y-13915722D01*
X13064348Y-13915722D02*
X13064348Y-14020484D01*
X13159586Y-14020484D02*
X13159586Y-13887150D01*
X13159586Y-13906198D02*
X13169110Y-13896674D01*
X13169110Y-13896674D02*
X13188158Y-13887150D01*
X13188158Y-13887150D02*
X13216729Y-13887150D01*
X13216729Y-13887150D02*
X13235777Y-13896674D01*
X13235777Y-13896674D02*
X13245301Y-13915722D01*
X13245301Y-13915722D02*
X13245301Y-14020484D01*
X13245301Y-13915722D02*
X13254824Y-13896674D01*
X13254824Y-13896674D02*
X13273872Y-13887150D01*
X13273872Y-13887150D02*
X13302443Y-13887150D01*
X13302443Y-13887150D02*
X13321491Y-13896674D01*
X13321491Y-13896674D02*
X13331015Y-13915722D01*
X13331015Y-13915722D02*
X13331015Y-14020484D01*
X13721491Y-13810960D02*
X13550063Y-14068103D01*
X13978634Y-13820484D02*
X13997682Y-13820484D01*
X13997682Y-13820484D02*
X14016729Y-13830008D01*
X14016729Y-13830008D02*
X14026253Y-13839531D01*
X14026253Y-13839531D02*
X14035777Y-13858579D01*
X14035777Y-13858579D02*
X14045301Y-13896674D01*
X14045301Y-13896674D02*
X14045301Y-13944293D01*
X14045301Y-13944293D02*
X14035777Y-13982388D01*
X14035777Y-13982388D02*
X14026253Y-14001436D01*
X14026253Y-14001436D02*
X14016729Y-14010960D01*
X14016729Y-14010960D02*
X13997682Y-14020484D01*
X13997682Y-14020484D02*
X13978634Y-14020484D01*
X13978634Y-14020484D02*
X13959586Y-14010960D01*
X13959586Y-14010960D02*
X13950063Y-14001436D01*
X13950063Y-14001436D02*
X13940539Y-13982388D01*
X13940539Y-13982388D02*
X13931015Y-13944293D01*
X13931015Y-13944293D02*
X13931015Y-13896674D01*
X13931015Y-13896674D02*
X13940539Y-13858579D01*
X13940539Y-13858579D02*
X13950063Y-13839531D01*
X13950063Y-13839531D02*
X13959586Y-13830008D01*
X13959586Y-13830008D02*
X13978634Y-13820484D01*
X14131015Y-14001436D02*
X14140539Y-14010960D01*
X14140539Y-14010960D02*
X14131015Y-14020484D01*
X14131015Y-14020484D02*
X14121491Y-14010960D01*
X14121491Y-14010960D02*
X14131015Y-14001436D01*
X14131015Y-14001436D02*
X14131015Y-14020484D01*
X14264348Y-13820484D02*
X14283396Y-13820484D01*
X14283396Y-13820484D02*
X14302444Y-13830008D01*
X14302444Y-13830008D02*
X14311967Y-13839531D01*
X14311967Y-13839531D02*
X14321491Y-13858579D01*
X14321491Y-13858579D02*
X14331015Y-13896674D01*
X14331015Y-13896674D02*
X14331015Y-13944293D01*
X14331015Y-13944293D02*
X14321491Y-13982388D01*
X14321491Y-13982388D02*
X14311967Y-14001436D01*
X14311967Y-14001436D02*
X14302444Y-14010960D01*
X14302444Y-14010960D02*
X14283396Y-14020484D01*
X14283396Y-14020484D02*
X14264348Y-14020484D01*
X14264348Y-14020484D02*
X14245301Y-14010960D01*
X14245301Y-14010960D02*
X14235777Y-14001436D01*
X14235777Y-14001436D02*
X14226253Y-13982388D01*
X14226253Y-13982388D02*
X14216729Y-13944293D01*
X14216729Y-13944293D02*
X14216729Y-13896674D01*
X14216729Y-13896674D02*
X14226253Y-13858579D01*
X14226253Y-13858579D02*
X14235777Y-13839531D01*
X14235777Y-13839531D02*
X14245301Y-13830008D01*
X14245301Y-13830008D02*
X14264348Y-13820484D01*
X14407206Y-13839531D02*
X14416729Y-13830008D01*
X14416729Y-13830008D02*
X14435777Y-13820484D01*
X14435777Y-13820484D02*
X14483396Y-13820484D01*
X14483396Y-13820484D02*
X14502444Y-13830008D01*
X14502444Y-13830008D02*
X14511967Y-13839531D01*
X14511967Y-13839531D02*
X14521491Y-13858579D01*
X14521491Y-13858579D02*
X14521491Y-13877627D01*
X14521491Y-13877627D02*
X14511967Y-13906198D01*
X14511967Y-13906198D02*
X14397682Y-14020484D01*
X14397682Y-14020484D02*
X14521491Y-14020484D01*
X14588158Y-13820484D02*
X14711967Y-13820484D01*
X14711967Y-13820484D02*
X14645301Y-13896674D01*
X14645301Y-13896674D02*
X14673872Y-13896674D01*
X14673872Y-13896674D02*
X14692920Y-13906198D01*
X14692920Y-13906198D02*
X14702444Y-13915722D01*
X14702444Y-13915722D02*
X14711967Y-13934769D01*
X14711967Y-13934769D02*
X14711967Y-13982388D01*
X14711967Y-13982388D02*
X14702444Y-14001436D01*
X14702444Y-14001436D02*
X14692920Y-14010960D01*
X14692920Y-14010960D02*
X14673872Y-14020484D01*
X14673872Y-14020484D02*
X14616729Y-14020484D01*
X14616729Y-14020484D02*
X14597682Y-14010960D01*
X14597682Y-14010960D02*
X14588158Y-14001436D01*
X14883396Y-13820484D02*
X14845301Y-13820484D01*
X14845301Y-13820484D02*
X14826253Y-13830008D01*
X14826253Y-13830008D02*
X14816729Y-13839531D01*
X14816729Y-13839531D02*
X14797682Y-13868103D01*
X14797682Y-13868103D02*
X14788158Y-13906198D01*
X14788158Y-13906198D02*
X14788158Y-13982388D01*
X14788158Y-13982388D02*
X14797682Y-14001436D01*
X14797682Y-14001436D02*
X14807206Y-14010960D01*
X14807206Y-14010960D02*
X14826253Y-14020484D01*
X14826253Y-14020484D02*
X14864348Y-14020484D01*
X14864348Y-14020484D02*
X14883396Y-14010960D01*
X14883396Y-14010960D02*
X14892920Y-14001436D01*
X14892920Y-14001436D02*
X14902444Y-13982388D01*
X14902444Y-13982388D02*
X14902444Y-13934769D01*
X14902444Y-13934769D02*
X14892920Y-13915722D01*
X14892920Y-13915722D02*
X14883396Y-13906198D01*
X14883396Y-13906198D02*
X14864348Y-13896674D01*
X14864348Y-13896674D02*
X14826253Y-13896674D01*
X14826253Y-13896674D02*
X14807206Y-13906198D01*
X14807206Y-13906198D02*
X14797682Y-13915722D01*
X14797682Y-13915722D02*
X14788158Y-13934769D01*
X14978634Y-13820484D02*
X14978634Y-13858579D01*
X15054825Y-13820484D02*
X15054825Y-13858579D01*
X15350063Y-14096674D02*
X15340539Y-14087150D01*
X15340539Y-14087150D02*
X15321491Y-14058579D01*
X15321491Y-14058579D02*
X15311968Y-14039531D01*
X15311968Y-14039531D02*
X15302444Y-14010960D01*
X15302444Y-14010960D02*
X15292920Y-13963341D01*
X15292920Y-13963341D02*
X15292920Y-13925246D01*
X15292920Y-13925246D02*
X15302444Y-13877627D01*
X15302444Y-13877627D02*
X15311968Y-13849055D01*
X15311968Y-13849055D02*
X15321491Y-13830008D01*
X15321491Y-13830008D02*
X15340539Y-13801436D01*
X15340539Y-13801436D02*
X15350063Y-13791912D01*
X15464348Y-13820484D02*
X15483396Y-13820484D01*
X15483396Y-13820484D02*
X15502444Y-13830008D01*
X15502444Y-13830008D02*
X15511968Y-13839531D01*
X15511968Y-13839531D02*
X15521491Y-13858579D01*
X15521491Y-13858579D02*
X15531015Y-13896674D01*
X15531015Y-13896674D02*
X15531015Y-13944293D01*
X15531015Y-13944293D02*
X15521491Y-13982388D01*
X15521491Y-13982388D02*
X15511968Y-14001436D01*
X15511968Y-14001436D02*
X15502444Y-14010960D01*
X15502444Y-14010960D02*
X15483396Y-14020484D01*
X15483396Y-14020484D02*
X15464348Y-14020484D01*
X15464348Y-14020484D02*
X15445301Y-14010960D01*
X15445301Y-14010960D02*
X15435777Y-14001436D01*
X15435777Y-14001436D02*
X15426253Y-13982388D01*
X15426253Y-13982388D02*
X15416729Y-13944293D01*
X15416729Y-13944293D02*
X15416729Y-13896674D01*
X15416729Y-13896674D02*
X15426253Y-13858579D01*
X15426253Y-13858579D02*
X15435777Y-13839531D01*
X15435777Y-13839531D02*
X15445301Y-13830008D01*
X15445301Y-13830008D02*
X15464348Y-13820484D01*
X15769110Y-14020484D02*
X15769110Y-13820484D01*
X15854825Y-14020484D02*
X15854825Y-13915722D01*
X15854825Y-13915722D02*
X15845301Y-13896674D01*
X15845301Y-13896674D02*
X15826253Y-13887150D01*
X15826253Y-13887150D02*
X15797682Y-13887150D01*
X15797682Y-13887150D02*
X15778634Y-13896674D01*
X15778634Y-13896674D02*
X15769110Y-13906198D01*
X15978634Y-14020484D02*
X15959587Y-14010960D01*
X15959587Y-14010960D02*
X15950063Y-14001436D01*
X15950063Y-14001436D02*
X15940539Y-13982388D01*
X15940539Y-13982388D02*
X15940539Y-13925246D01*
X15940539Y-13925246D02*
X15950063Y-13906198D01*
X15950063Y-13906198D02*
X15959587Y-13896674D01*
X15959587Y-13896674D02*
X15978634Y-13887150D01*
X15978634Y-13887150D02*
X16007206Y-13887150D01*
X16007206Y-13887150D02*
X16026253Y-13896674D01*
X16026253Y-13896674D02*
X16035777Y-13906198D01*
X16035777Y-13906198D02*
X16045301Y-13925246D01*
X16045301Y-13925246D02*
X16045301Y-13982388D01*
X16045301Y-13982388D02*
X16035777Y-14001436D01*
X16035777Y-14001436D02*
X16026253Y-14010960D01*
X16026253Y-14010960D02*
X16007206Y-14020484D01*
X16007206Y-14020484D02*
X15978634Y-14020484D01*
X16159587Y-14020484D02*
X16140539Y-14010960D01*
X16140539Y-14010960D02*
X16131015Y-13991912D01*
X16131015Y-13991912D02*
X16131015Y-13820484D01*
X16311968Y-14010960D02*
X16292920Y-14020484D01*
X16292920Y-14020484D02*
X16254825Y-14020484D01*
X16254825Y-14020484D02*
X16235777Y-14010960D01*
X16235777Y-14010960D02*
X16226253Y-13991912D01*
X16226253Y-13991912D02*
X16226253Y-13915722D01*
X16226253Y-13915722D02*
X16235777Y-13896674D01*
X16235777Y-13896674D02*
X16254825Y-13887150D01*
X16254825Y-13887150D02*
X16292920Y-13887150D01*
X16292920Y-13887150D02*
X16311968Y-13896674D01*
X16311968Y-13896674D02*
X16321491Y-13915722D01*
X16321491Y-13915722D02*
X16321491Y-13934769D01*
X16321491Y-13934769D02*
X16226253Y-13953817D01*
X16397682Y-14010960D02*
X16416730Y-14020484D01*
X16416730Y-14020484D02*
X16454825Y-14020484D01*
X16454825Y-14020484D02*
X16473872Y-14010960D01*
X16473872Y-14010960D02*
X16483396Y-13991912D01*
X16483396Y-13991912D02*
X16483396Y-13982388D01*
X16483396Y-13982388D02*
X16473872Y-13963341D01*
X16473872Y-13963341D02*
X16454825Y-13953817D01*
X16454825Y-13953817D02*
X16426253Y-13953817D01*
X16426253Y-13953817D02*
X16407206Y-13944293D01*
X16407206Y-13944293D02*
X16397682Y-13925246D01*
X16397682Y-13925246D02*
X16397682Y-13915722D01*
X16397682Y-13915722D02*
X16407206Y-13896674D01*
X16407206Y-13896674D02*
X16426253Y-13887150D01*
X16426253Y-13887150D02*
X16454825Y-13887150D01*
X16454825Y-13887150D02*
X16473872Y-13896674D01*
X16721492Y-13944293D02*
X16873873Y-13944293D01*
X16797682Y-14020484D02*
X16797682Y-13868103D01*
X17207206Y-13887150D02*
X17207206Y-14020484D01*
X17159587Y-13810960D02*
X17111968Y-13953817D01*
X17111968Y-13953817D02*
X17235777Y-13953817D01*
X17454825Y-14010960D02*
X17473873Y-14020484D01*
X17473873Y-14020484D02*
X17511968Y-14020484D01*
X17511968Y-14020484D02*
X17531016Y-14010960D01*
X17531016Y-14010960D02*
X17540539Y-13991912D01*
X17540539Y-13991912D02*
X17540539Y-13982388D01*
X17540539Y-13982388D02*
X17531016Y-13963341D01*
X17531016Y-13963341D02*
X17511968Y-13953817D01*
X17511968Y-13953817D02*
X17483396Y-13953817D01*
X17483396Y-13953817D02*
X17464349Y-13944293D01*
X17464349Y-13944293D02*
X17454825Y-13925246D01*
X17454825Y-13925246D02*
X17454825Y-13915722D01*
X17454825Y-13915722D02*
X17464349Y-13896674D01*
X17464349Y-13896674D02*
X17483396Y-13887150D01*
X17483396Y-13887150D02*
X17511968Y-13887150D01*
X17511968Y-13887150D02*
X17531016Y-13896674D01*
X17654825Y-14020484D02*
X17635777Y-14010960D01*
X17635777Y-14010960D02*
X17626254Y-13991912D01*
X17626254Y-13991912D02*
X17626254Y-13820484D01*
X17759587Y-14020484D02*
X17740539Y-14010960D01*
X17740539Y-14010960D02*
X17731016Y-14001436D01*
X17731016Y-14001436D02*
X17721492Y-13982388D01*
X17721492Y-13982388D02*
X17721492Y-13925246D01*
X17721492Y-13925246D02*
X17731016Y-13906198D01*
X17731016Y-13906198D02*
X17740539Y-13896674D01*
X17740539Y-13896674D02*
X17759587Y-13887150D01*
X17759587Y-13887150D02*
X17788158Y-13887150D01*
X17788158Y-13887150D02*
X17807206Y-13896674D01*
X17807206Y-13896674D02*
X17816730Y-13906198D01*
X17816730Y-13906198D02*
X17826254Y-13925246D01*
X17826254Y-13925246D02*
X17826254Y-13982388D01*
X17826254Y-13982388D02*
X17816730Y-14001436D01*
X17816730Y-14001436D02*
X17807206Y-14010960D01*
X17807206Y-14010960D02*
X17788158Y-14020484D01*
X17788158Y-14020484D02*
X17759587Y-14020484D01*
X17883397Y-13887150D02*
X17959587Y-13887150D01*
X17911968Y-13820484D02*
X17911968Y-13991912D01*
X17911968Y-13991912D02*
X17921492Y-14010960D01*
X17921492Y-14010960D02*
X17940539Y-14020484D01*
X17940539Y-14020484D02*
X17959587Y-14020484D01*
X18016730Y-14010960D02*
X18035777Y-14020484D01*
X18035777Y-14020484D02*
X18073873Y-14020484D01*
X18073873Y-14020484D02*
X18092920Y-14010960D01*
X18092920Y-14010960D02*
X18102444Y-13991912D01*
X18102444Y-13991912D02*
X18102444Y-13982388D01*
X18102444Y-13982388D02*
X18092920Y-13963341D01*
X18092920Y-13963341D02*
X18073873Y-13953817D01*
X18073873Y-13953817D02*
X18045301Y-13953817D01*
X18045301Y-13953817D02*
X18026254Y-13944293D01*
X18026254Y-13944293D02*
X18016730Y-13925246D01*
X18016730Y-13925246D02*
X18016730Y-13915722D01*
X18016730Y-13915722D02*
X18026254Y-13896674D01*
X18026254Y-13896674D02*
X18045301Y-13887150D01*
X18045301Y-13887150D02*
X18073873Y-13887150D01*
X18073873Y-13887150D02*
X18092920Y-13896674D01*
X18169111Y-14096674D02*
X18178635Y-14087150D01*
X18178635Y-14087150D02*
X18197682Y-14058579D01*
X18197682Y-14058579D02*
X18207206Y-14039531D01*
X18207206Y-14039531D02*
X18216730Y-14010960D01*
X18216730Y-14010960D02*
X18226254Y-13963341D01*
X18226254Y-13963341D02*
X18226254Y-13925246D01*
X18226254Y-13925246D02*
X18216730Y-13877627D01*
X18216730Y-13877627D02*
X18207206Y-13849055D01*
X18207206Y-13849055D02*
X18197682Y-13830008D01*
X18197682Y-13830008D02*
X18178635Y-13801436D01*
X18178635Y-13801436D02*
X18169111Y-13791912D01*
D14*
X11735000Y-14153000D02*
X11735000Y-14233000D01*
X11695000Y-14193000D02*
X11775000Y-14193000D01*
D11*
X12073872Y-14084484D02*
X12092920Y-14084484D01*
X12092920Y-14084484D02*
X12111967Y-14094008D01*
X12111967Y-14094008D02*
X12121491Y-14103531D01*
X12121491Y-14103531D02*
X12131015Y-14122579D01*
X12131015Y-14122579D02*
X12140539Y-14160674D01*
X12140539Y-14160674D02*
X12140539Y-14208293D01*
X12140539Y-14208293D02*
X12131015Y-14246388D01*
X12131015Y-14246388D02*
X12121491Y-14265436D01*
X12121491Y-14265436D02*
X12111967Y-14274960D01*
X12111967Y-14274960D02*
X12092920Y-14284484D01*
X12092920Y-14284484D02*
X12073872Y-14284484D01*
X12073872Y-14284484D02*
X12054824Y-14274960D01*
X12054824Y-14274960D02*
X12045301Y-14265436D01*
X12045301Y-14265436D02*
X12035777Y-14246388D01*
X12035777Y-14246388D02*
X12026253Y-14208293D01*
X12026253Y-14208293D02*
X12026253Y-14160674D01*
X12026253Y-14160674D02*
X12035777Y-14122579D01*
X12035777Y-14122579D02*
X12045301Y-14103531D01*
X12045301Y-14103531D02*
X12054824Y-14094008D01*
X12054824Y-14094008D02*
X12073872Y-14084484D01*
X12226253Y-14265436D02*
X12235777Y-14274960D01*
X12235777Y-14274960D02*
X12226253Y-14284484D01*
X12226253Y-14284484D02*
X12216729Y-14274960D01*
X12216729Y-14274960D02*
X12226253Y-14265436D01*
X12226253Y-14265436D02*
X12226253Y-14284484D01*
X12350062Y-14170198D02*
X12331015Y-14160674D01*
X12331015Y-14160674D02*
X12321491Y-14151150D01*
X12321491Y-14151150D02*
X12311967Y-14132103D01*
X12311967Y-14132103D02*
X12311967Y-14122579D01*
X12311967Y-14122579D02*
X12321491Y-14103531D01*
X12321491Y-14103531D02*
X12331015Y-14094008D01*
X12331015Y-14094008D02*
X12350062Y-14084484D01*
X12350062Y-14084484D02*
X12388158Y-14084484D01*
X12388158Y-14084484D02*
X12407205Y-14094008D01*
X12407205Y-14094008D02*
X12416729Y-14103531D01*
X12416729Y-14103531D02*
X12426253Y-14122579D01*
X12426253Y-14122579D02*
X12426253Y-14132103D01*
X12426253Y-14132103D02*
X12416729Y-14151150D01*
X12416729Y-14151150D02*
X12407205Y-14160674D01*
X12407205Y-14160674D02*
X12388158Y-14170198D01*
X12388158Y-14170198D02*
X12350062Y-14170198D01*
X12350062Y-14170198D02*
X12331015Y-14179722D01*
X12331015Y-14179722D02*
X12321491Y-14189246D01*
X12321491Y-14189246D02*
X12311967Y-14208293D01*
X12311967Y-14208293D02*
X12311967Y-14246388D01*
X12311967Y-14246388D02*
X12321491Y-14265436D01*
X12321491Y-14265436D02*
X12331015Y-14274960D01*
X12331015Y-14274960D02*
X12350062Y-14284484D01*
X12350062Y-14284484D02*
X12388158Y-14284484D01*
X12388158Y-14284484D02*
X12407205Y-14274960D01*
X12407205Y-14274960D02*
X12416729Y-14265436D01*
X12416729Y-14265436D02*
X12426253Y-14246388D01*
X12426253Y-14246388D02*
X12426253Y-14208293D01*
X12426253Y-14208293D02*
X12416729Y-14189246D01*
X12416729Y-14189246D02*
X12407205Y-14179722D01*
X12407205Y-14179722D02*
X12388158Y-14170198D01*
X12550062Y-14084484D02*
X12569110Y-14084484D01*
X12569110Y-14084484D02*
X12588158Y-14094008D01*
X12588158Y-14094008D02*
X12597682Y-14103531D01*
X12597682Y-14103531D02*
X12607205Y-14122579D01*
X12607205Y-14122579D02*
X12616729Y-14160674D01*
X12616729Y-14160674D02*
X12616729Y-14208293D01*
X12616729Y-14208293D02*
X12607205Y-14246388D01*
X12607205Y-14246388D02*
X12597682Y-14265436D01*
X12597682Y-14265436D02*
X12588158Y-14274960D01*
X12588158Y-14274960D02*
X12569110Y-14284484D01*
X12569110Y-14284484D02*
X12550062Y-14284484D01*
X12550062Y-14284484D02*
X12531015Y-14274960D01*
X12531015Y-14274960D02*
X12521491Y-14265436D01*
X12521491Y-14265436D02*
X12511967Y-14246388D01*
X12511967Y-14246388D02*
X12502443Y-14208293D01*
X12502443Y-14208293D02*
X12502443Y-14160674D01*
X12502443Y-14160674D02*
X12511967Y-14122579D01*
X12511967Y-14122579D02*
X12521491Y-14103531D01*
X12521491Y-14103531D02*
X12531015Y-14094008D01*
X12531015Y-14094008D02*
X12550062Y-14084484D01*
X12740539Y-14084484D02*
X12759586Y-14084484D01*
X12759586Y-14084484D02*
X12778634Y-14094008D01*
X12778634Y-14094008D02*
X12788158Y-14103531D01*
X12788158Y-14103531D02*
X12797682Y-14122579D01*
X12797682Y-14122579D02*
X12807205Y-14160674D01*
X12807205Y-14160674D02*
X12807205Y-14208293D01*
X12807205Y-14208293D02*
X12797682Y-14246388D01*
X12797682Y-14246388D02*
X12788158Y-14265436D01*
X12788158Y-14265436D02*
X12778634Y-14274960D01*
X12778634Y-14274960D02*
X12759586Y-14284484D01*
X12759586Y-14284484D02*
X12740539Y-14284484D01*
X12740539Y-14284484D02*
X12721491Y-14274960D01*
X12721491Y-14274960D02*
X12711967Y-14265436D01*
X12711967Y-14265436D02*
X12702443Y-14246388D01*
X12702443Y-14246388D02*
X12692920Y-14208293D01*
X12692920Y-14208293D02*
X12692920Y-14160674D01*
X12692920Y-14160674D02*
X12702443Y-14122579D01*
X12702443Y-14122579D02*
X12711967Y-14103531D01*
X12711967Y-14103531D02*
X12721491Y-14094008D01*
X12721491Y-14094008D02*
X12740539Y-14084484D01*
X12892920Y-14284484D02*
X12892920Y-14151150D01*
X12892920Y-14170198D02*
X12902443Y-14160674D01*
X12902443Y-14160674D02*
X12921491Y-14151150D01*
X12921491Y-14151150D02*
X12950063Y-14151150D01*
X12950063Y-14151150D02*
X12969110Y-14160674D01*
X12969110Y-14160674D02*
X12978634Y-14179722D01*
X12978634Y-14179722D02*
X12978634Y-14284484D01*
X12978634Y-14179722D02*
X12988158Y-14160674D01*
X12988158Y-14160674D02*
X13007205Y-14151150D01*
X13007205Y-14151150D02*
X13035777Y-14151150D01*
X13035777Y-14151150D02*
X13054824Y-14160674D01*
X13054824Y-14160674D02*
X13064348Y-14179722D01*
X13064348Y-14179722D02*
X13064348Y-14284484D01*
X13159586Y-14284484D02*
X13159586Y-14151150D01*
X13159586Y-14170198D02*
X13169110Y-14160674D01*
X13169110Y-14160674D02*
X13188158Y-14151150D01*
X13188158Y-14151150D02*
X13216729Y-14151150D01*
X13216729Y-14151150D02*
X13235777Y-14160674D01*
X13235777Y-14160674D02*
X13245301Y-14179722D01*
X13245301Y-14179722D02*
X13245301Y-14284484D01*
X13245301Y-14179722D02*
X13254824Y-14160674D01*
X13254824Y-14160674D02*
X13273872Y-14151150D01*
X13273872Y-14151150D02*
X13302443Y-14151150D01*
X13302443Y-14151150D02*
X13321491Y-14160674D01*
X13321491Y-14160674D02*
X13331015Y-14179722D01*
X13331015Y-14179722D02*
X13331015Y-14284484D01*
X13721491Y-14074960D02*
X13550063Y-14332103D01*
X13978634Y-14084484D02*
X13997682Y-14084484D01*
X13997682Y-14084484D02*
X14016729Y-14094008D01*
X14016729Y-14094008D02*
X14026253Y-14103531D01*
X14026253Y-14103531D02*
X14035777Y-14122579D01*
X14035777Y-14122579D02*
X14045301Y-14160674D01*
X14045301Y-14160674D02*
X14045301Y-14208293D01*
X14045301Y-14208293D02*
X14035777Y-14246388D01*
X14035777Y-14246388D02*
X14026253Y-14265436D01*
X14026253Y-14265436D02*
X14016729Y-14274960D01*
X14016729Y-14274960D02*
X13997682Y-14284484D01*
X13997682Y-14284484D02*
X13978634Y-14284484D01*
X13978634Y-14284484D02*
X13959586Y-14274960D01*
X13959586Y-14274960D02*
X13950063Y-14265436D01*
X13950063Y-14265436D02*
X13940539Y-14246388D01*
X13940539Y-14246388D02*
X13931015Y-14208293D01*
X13931015Y-14208293D02*
X13931015Y-14160674D01*
X13931015Y-14160674D02*
X13940539Y-14122579D01*
X13940539Y-14122579D02*
X13950063Y-14103531D01*
X13950063Y-14103531D02*
X13959586Y-14094008D01*
X13959586Y-14094008D02*
X13978634Y-14084484D01*
X14131015Y-14265436D02*
X14140539Y-14274960D01*
X14140539Y-14274960D02*
X14131015Y-14284484D01*
X14131015Y-14284484D02*
X14121491Y-14274960D01*
X14121491Y-14274960D02*
X14131015Y-14265436D01*
X14131015Y-14265436D02*
X14131015Y-14284484D01*
X14264348Y-14084484D02*
X14283396Y-14084484D01*
X14283396Y-14084484D02*
X14302444Y-14094008D01*
X14302444Y-14094008D02*
X14311967Y-14103531D01*
X14311967Y-14103531D02*
X14321491Y-14122579D01*
X14321491Y-14122579D02*
X14331015Y-14160674D01*
X14331015Y-14160674D02*
X14331015Y-14208293D01*
X14331015Y-14208293D02*
X14321491Y-14246388D01*
X14321491Y-14246388D02*
X14311967Y-14265436D01*
X14311967Y-14265436D02*
X14302444Y-14274960D01*
X14302444Y-14274960D02*
X14283396Y-14284484D01*
X14283396Y-14284484D02*
X14264348Y-14284484D01*
X14264348Y-14284484D02*
X14245301Y-14274960D01*
X14245301Y-14274960D02*
X14235777Y-14265436D01*
X14235777Y-14265436D02*
X14226253Y-14246388D01*
X14226253Y-14246388D02*
X14216729Y-14208293D01*
X14216729Y-14208293D02*
X14216729Y-14160674D01*
X14216729Y-14160674D02*
X14226253Y-14122579D01*
X14226253Y-14122579D02*
X14235777Y-14103531D01*
X14235777Y-14103531D02*
X14245301Y-14094008D01*
X14245301Y-14094008D02*
X14264348Y-14084484D01*
X14397682Y-14084484D02*
X14521491Y-14084484D01*
X14521491Y-14084484D02*
X14454825Y-14160674D01*
X14454825Y-14160674D02*
X14483396Y-14160674D01*
X14483396Y-14160674D02*
X14502444Y-14170198D01*
X14502444Y-14170198D02*
X14511967Y-14179722D01*
X14511967Y-14179722D02*
X14521491Y-14198769D01*
X14521491Y-14198769D02*
X14521491Y-14246388D01*
X14521491Y-14246388D02*
X14511967Y-14265436D01*
X14511967Y-14265436D02*
X14502444Y-14274960D01*
X14502444Y-14274960D02*
X14483396Y-14284484D01*
X14483396Y-14284484D02*
X14426253Y-14284484D01*
X14426253Y-14284484D02*
X14407206Y-14274960D01*
X14407206Y-14274960D02*
X14397682Y-14265436D01*
X14711967Y-14284484D02*
X14597682Y-14284484D01*
X14654825Y-14284484D02*
X14654825Y-14084484D01*
X14654825Y-14084484D02*
X14635777Y-14113055D01*
X14635777Y-14113055D02*
X14616729Y-14132103D01*
X14616729Y-14132103D02*
X14597682Y-14141627D01*
X14892920Y-14084484D02*
X14797682Y-14084484D01*
X14797682Y-14084484D02*
X14788158Y-14179722D01*
X14788158Y-14179722D02*
X14797682Y-14170198D01*
X14797682Y-14170198D02*
X14816729Y-14160674D01*
X14816729Y-14160674D02*
X14864348Y-14160674D01*
X14864348Y-14160674D02*
X14883396Y-14170198D01*
X14883396Y-14170198D02*
X14892920Y-14179722D01*
X14892920Y-14179722D02*
X14902444Y-14198769D01*
X14902444Y-14198769D02*
X14902444Y-14246388D01*
X14902444Y-14246388D02*
X14892920Y-14265436D01*
X14892920Y-14265436D02*
X14883396Y-14274960D01*
X14883396Y-14274960D02*
X14864348Y-14284484D01*
X14864348Y-14284484D02*
X14816729Y-14284484D01*
X14816729Y-14284484D02*
X14797682Y-14274960D01*
X14797682Y-14274960D02*
X14788158Y-14265436D01*
X14978634Y-14084484D02*
X14978634Y-14122579D01*
X15054825Y-14084484D02*
X15054825Y-14122579D01*
X15350063Y-14360674D02*
X15340539Y-14351150D01*
X15340539Y-14351150D02*
X15321491Y-14322579D01*
X15321491Y-14322579D02*
X15311968Y-14303531D01*
X15311968Y-14303531D02*
X15302444Y-14274960D01*
X15302444Y-14274960D02*
X15292920Y-14227341D01*
X15292920Y-14227341D02*
X15292920Y-14189246D01*
X15292920Y-14189246D02*
X15302444Y-14141627D01*
X15302444Y-14141627D02*
X15311968Y-14113055D01*
X15311968Y-14113055D02*
X15321491Y-14094008D01*
X15321491Y-14094008D02*
X15340539Y-14065436D01*
X15340539Y-14065436D02*
X15350063Y-14055912D01*
X15511968Y-14151150D02*
X15511968Y-14284484D01*
X15464348Y-14074960D02*
X15416729Y-14217817D01*
X15416729Y-14217817D02*
X15540539Y-14217817D01*
X15769110Y-14284484D02*
X15769110Y-14084484D01*
X15854825Y-14284484D02*
X15854825Y-14179722D01*
X15854825Y-14179722D02*
X15845301Y-14160674D01*
X15845301Y-14160674D02*
X15826253Y-14151150D01*
X15826253Y-14151150D02*
X15797682Y-14151150D01*
X15797682Y-14151150D02*
X15778634Y-14160674D01*
X15778634Y-14160674D02*
X15769110Y-14170198D01*
X15978634Y-14284484D02*
X15959587Y-14274960D01*
X15959587Y-14274960D02*
X15950063Y-14265436D01*
X15950063Y-14265436D02*
X15940539Y-14246388D01*
X15940539Y-14246388D02*
X15940539Y-14189246D01*
X15940539Y-14189246D02*
X15950063Y-14170198D01*
X15950063Y-14170198D02*
X15959587Y-14160674D01*
X15959587Y-14160674D02*
X15978634Y-14151150D01*
X15978634Y-14151150D02*
X16007206Y-14151150D01*
X16007206Y-14151150D02*
X16026253Y-14160674D01*
X16026253Y-14160674D02*
X16035777Y-14170198D01*
X16035777Y-14170198D02*
X16045301Y-14189246D01*
X16045301Y-14189246D02*
X16045301Y-14246388D01*
X16045301Y-14246388D02*
X16035777Y-14265436D01*
X16035777Y-14265436D02*
X16026253Y-14274960D01*
X16026253Y-14274960D02*
X16007206Y-14284484D01*
X16007206Y-14284484D02*
X15978634Y-14284484D01*
X16159587Y-14284484D02*
X16140539Y-14274960D01*
X16140539Y-14274960D02*
X16131015Y-14255912D01*
X16131015Y-14255912D02*
X16131015Y-14084484D01*
X16311968Y-14274960D02*
X16292920Y-14284484D01*
X16292920Y-14284484D02*
X16254825Y-14284484D01*
X16254825Y-14284484D02*
X16235777Y-14274960D01*
X16235777Y-14274960D02*
X16226253Y-14255912D01*
X16226253Y-14255912D02*
X16226253Y-14179722D01*
X16226253Y-14179722D02*
X16235777Y-14160674D01*
X16235777Y-14160674D02*
X16254825Y-14151150D01*
X16254825Y-14151150D02*
X16292920Y-14151150D01*
X16292920Y-14151150D02*
X16311968Y-14160674D01*
X16311968Y-14160674D02*
X16321491Y-14179722D01*
X16321491Y-14179722D02*
X16321491Y-14198769D01*
X16321491Y-14198769D02*
X16226253Y-14217817D01*
X16397682Y-14274960D02*
X16416730Y-14284484D01*
X16416730Y-14284484D02*
X16454825Y-14284484D01*
X16454825Y-14284484D02*
X16473872Y-14274960D01*
X16473872Y-14274960D02*
X16483396Y-14255912D01*
X16483396Y-14255912D02*
X16483396Y-14246388D01*
X16483396Y-14246388D02*
X16473872Y-14227341D01*
X16473872Y-14227341D02*
X16454825Y-14217817D01*
X16454825Y-14217817D02*
X16426253Y-14217817D01*
X16426253Y-14217817D02*
X16407206Y-14208293D01*
X16407206Y-14208293D02*
X16397682Y-14189246D01*
X16397682Y-14189246D02*
X16397682Y-14179722D01*
X16397682Y-14179722D02*
X16407206Y-14160674D01*
X16407206Y-14160674D02*
X16426253Y-14151150D01*
X16426253Y-14151150D02*
X16454825Y-14151150D01*
X16454825Y-14151150D02*
X16473872Y-14160674D01*
X16550063Y-14360674D02*
X16559587Y-14351150D01*
X16559587Y-14351150D02*
X16578634Y-14322579D01*
X16578634Y-14322579D02*
X16588158Y-14303531D01*
X16588158Y-14303531D02*
X16597682Y-14274960D01*
X16597682Y-14274960D02*
X16607206Y-14227341D01*
X16607206Y-14227341D02*
X16607206Y-14189246D01*
X16607206Y-14189246D02*
X16597682Y-14141627D01*
X16597682Y-14141627D02*
X16588158Y-14113055D01*
X16588158Y-14113055D02*
X16578634Y-14094008D01*
X16578634Y-14094008D02*
X16559587Y-14065436D01*
X16559587Y-14065436D02*
X16550063Y-14055912D01*
D15*
X11761820Y-14488820D02*
X11761820Y-14425180D01*
X11698180Y-14425180D01*
X11698180Y-14488820D01*
X11761820Y-14488820D01*
D11*
X12073872Y-14348484D02*
X12092920Y-14348484D01*
X12092920Y-14348484D02*
X12111967Y-14358008D01*
X12111967Y-14358008D02*
X12121491Y-14367531D01*
X12121491Y-14367531D02*
X12131015Y-14386579D01*
X12131015Y-14386579D02*
X12140539Y-14424674D01*
X12140539Y-14424674D02*
X12140539Y-14472293D01*
X12140539Y-14472293D02*
X12131015Y-14510388D01*
X12131015Y-14510388D02*
X12121491Y-14529436D01*
X12121491Y-14529436D02*
X12111967Y-14538960D01*
X12111967Y-14538960D02*
X12092920Y-14548484D01*
X12092920Y-14548484D02*
X12073872Y-14548484D01*
X12073872Y-14548484D02*
X12054824Y-14538960D01*
X12054824Y-14538960D02*
X12045301Y-14529436D01*
X12045301Y-14529436D02*
X12035777Y-14510388D01*
X12035777Y-14510388D02*
X12026253Y-14472293D01*
X12026253Y-14472293D02*
X12026253Y-14424674D01*
X12026253Y-14424674D02*
X12035777Y-14386579D01*
X12035777Y-14386579D02*
X12045301Y-14367531D01*
X12045301Y-14367531D02*
X12054824Y-14358008D01*
X12054824Y-14358008D02*
X12073872Y-14348484D01*
X12226253Y-14529436D02*
X12235777Y-14538960D01*
X12235777Y-14538960D02*
X12226253Y-14548484D01*
X12226253Y-14548484D02*
X12216729Y-14538960D01*
X12216729Y-14538960D02*
X12226253Y-14529436D01*
X12226253Y-14529436D02*
X12226253Y-14548484D01*
X12331015Y-14548484D02*
X12369110Y-14548484D01*
X12369110Y-14548484D02*
X12388158Y-14538960D01*
X12388158Y-14538960D02*
X12397682Y-14529436D01*
X12397682Y-14529436D02*
X12416729Y-14500865D01*
X12416729Y-14500865D02*
X12426253Y-14462769D01*
X12426253Y-14462769D02*
X12426253Y-14386579D01*
X12426253Y-14386579D02*
X12416729Y-14367531D01*
X12416729Y-14367531D02*
X12407205Y-14358008D01*
X12407205Y-14358008D02*
X12388158Y-14348484D01*
X12388158Y-14348484D02*
X12350062Y-14348484D01*
X12350062Y-14348484D02*
X12331015Y-14358008D01*
X12331015Y-14358008D02*
X12321491Y-14367531D01*
X12321491Y-14367531D02*
X12311967Y-14386579D01*
X12311967Y-14386579D02*
X12311967Y-14434198D01*
X12311967Y-14434198D02*
X12321491Y-14453246D01*
X12321491Y-14453246D02*
X12331015Y-14462769D01*
X12331015Y-14462769D02*
X12350062Y-14472293D01*
X12350062Y-14472293D02*
X12388158Y-14472293D01*
X12388158Y-14472293D02*
X12407205Y-14462769D01*
X12407205Y-14462769D02*
X12416729Y-14453246D01*
X12416729Y-14453246D02*
X12426253Y-14434198D01*
X12550062Y-14348484D02*
X12569110Y-14348484D01*
X12569110Y-14348484D02*
X12588158Y-14358008D01*
X12588158Y-14358008D02*
X12597682Y-14367531D01*
X12597682Y-14367531D02*
X12607205Y-14386579D01*
X12607205Y-14386579D02*
X12616729Y-14424674D01*
X12616729Y-14424674D02*
X12616729Y-14472293D01*
X12616729Y-14472293D02*
X12607205Y-14510388D01*
X12607205Y-14510388D02*
X12597682Y-14529436D01*
X12597682Y-14529436D02*
X12588158Y-14538960D01*
X12588158Y-14538960D02*
X12569110Y-14548484D01*
X12569110Y-14548484D02*
X12550062Y-14548484D01*
X12550062Y-14548484D02*
X12531015Y-14538960D01*
X12531015Y-14538960D02*
X12521491Y-14529436D01*
X12521491Y-14529436D02*
X12511967Y-14510388D01*
X12511967Y-14510388D02*
X12502443Y-14472293D01*
X12502443Y-14472293D02*
X12502443Y-14424674D01*
X12502443Y-14424674D02*
X12511967Y-14386579D01*
X12511967Y-14386579D02*
X12521491Y-14367531D01*
X12521491Y-14367531D02*
X12531015Y-14358008D01*
X12531015Y-14358008D02*
X12550062Y-14348484D01*
X12740539Y-14348484D02*
X12759586Y-14348484D01*
X12759586Y-14348484D02*
X12778634Y-14358008D01*
X12778634Y-14358008D02*
X12788158Y-14367531D01*
X12788158Y-14367531D02*
X12797682Y-14386579D01*
X12797682Y-14386579D02*
X12807205Y-14424674D01*
X12807205Y-14424674D02*
X12807205Y-14472293D01*
X12807205Y-14472293D02*
X12797682Y-14510388D01*
X12797682Y-14510388D02*
X12788158Y-14529436D01*
X12788158Y-14529436D02*
X12778634Y-14538960D01*
X12778634Y-14538960D02*
X12759586Y-14548484D01*
X12759586Y-14548484D02*
X12740539Y-14548484D01*
X12740539Y-14548484D02*
X12721491Y-14538960D01*
X12721491Y-14538960D02*
X12711967Y-14529436D01*
X12711967Y-14529436D02*
X12702443Y-14510388D01*
X12702443Y-14510388D02*
X12692920Y-14472293D01*
X12692920Y-14472293D02*
X12692920Y-14424674D01*
X12692920Y-14424674D02*
X12702443Y-14386579D01*
X12702443Y-14386579D02*
X12711967Y-14367531D01*
X12711967Y-14367531D02*
X12721491Y-14358008D01*
X12721491Y-14358008D02*
X12740539Y-14348484D01*
X12892920Y-14548484D02*
X12892920Y-14415150D01*
X12892920Y-14434198D02*
X12902443Y-14424674D01*
X12902443Y-14424674D02*
X12921491Y-14415150D01*
X12921491Y-14415150D02*
X12950063Y-14415150D01*
X12950063Y-14415150D02*
X12969110Y-14424674D01*
X12969110Y-14424674D02*
X12978634Y-14443722D01*
X12978634Y-14443722D02*
X12978634Y-14548484D01*
X12978634Y-14443722D02*
X12988158Y-14424674D01*
X12988158Y-14424674D02*
X13007205Y-14415150D01*
X13007205Y-14415150D02*
X13035777Y-14415150D01*
X13035777Y-14415150D02*
X13054824Y-14424674D01*
X13054824Y-14424674D02*
X13064348Y-14443722D01*
X13064348Y-14443722D02*
X13064348Y-14548484D01*
X13159586Y-14548484D02*
X13159586Y-14415150D01*
X13159586Y-14434198D02*
X13169110Y-14424674D01*
X13169110Y-14424674D02*
X13188158Y-14415150D01*
X13188158Y-14415150D02*
X13216729Y-14415150D01*
X13216729Y-14415150D02*
X13235777Y-14424674D01*
X13235777Y-14424674D02*
X13245301Y-14443722D01*
X13245301Y-14443722D02*
X13245301Y-14548484D01*
X13245301Y-14443722D02*
X13254824Y-14424674D01*
X13254824Y-14424674D02*
X13273872Y-14415150D01*
X13273872Y-14415150D02*
X13302443Y-14415150D01*
X13302443Y-14415150D02*
X13321491Y-14424674D01*
X13321491Y-14424674D02*
X13331015Y-14443722D01*
X13331015Y-14443722D02*
X13331015Y-14548484D01*
X13721491Y-14338960D02*
X13550063Y-14596103D01*
X13978634Y-14348484D02*
X13997682Y-14348484D01*
X13997682Y-14348484D02*
X14016729Y-14358008D01*
X14016729Y-14358008D02*
X14026253Y-14367531D01*
X14026253Y-14367531D02*
X14035777Y-14386579D01*
X14035777Y-14386579D02*
X14045301Y-14424674D01*
X14045301Y-14424674D02*
X14045301Y-14472293D01*
X14045301Y-14472293D02*
X14035777Y-14510388D01*
X14035777Y-14510388D02*
X14026253Y-14529436D01*
X14026253Y-14529436D02*
X14016729Y-14538960D01*
X14016729Y-14538960D02*
X13997682Y-14548484D01*
X13997682Y-14548484D02*
X13978634Y-14548484D01*
X13978634Y-14548484D02*
X13959586Y-14538960D01*
X13959586Y-14538960D02*
X13950063Y-14529436D01*
X13950063Y-14529436D02*
X13940539Y-14510388D01*
X13940539Y-14510388D02*
X13931015Y-14472293D01*
X13931015Y-14472293D02*
X13931015Y-14424674D01*
X13931015Y-14424674D02*
X13940539Y-14386579D01*
X13940539Y-14386579D02*
X13950063Y-14367531D01*
X13950063Y-14367531D02*
X13959586Y-14358008D01*
X13959586Y-14358008D02*
X13978634Y-14348484D01*
X14131015Y-14529436D02*
X14140539Y-14538960D01*
X14140539Y-14538960D02*
X14131015Y-14548484D01*
X14131015Y-14548484D02*
X14121491Y-14538960D01*
X14121491Y-14538960D02*
X14131015Y-14529436D01*
X14131015Y-14529436D02*
X14131015Y-14548484D01*
X14264348Y-14348484D02*
X14283396Y-14348484D01*
X14283396Y-14348484D02*
X14302444Y-14358008D01*
X14302444Y-14358008D02*
X14311967Y-14367531D01*
X14311967Y-14367531D02*
X14321491Y-14386579D01*
X14321491Y-14386579D02*
X14331015Y-14424674D01*
X14331015Y-14424674D02*
X14331015Y-14472293D01*
X14331015Y-14472293D02*
X14321491Y-14510388D01*
X14321491Y-14510388D02*
X14311967Y-14529436D01*
X14311967Y-14529436D02*
X14302444Y-14538960D01*
X14302444Y-14538960D02*
X14283396Y-14548484D01*
X14283396Y-14548484D02*
X14264348Y-14548484D01*
X14264348Y-14548484D02*
X14245301Y-14538960D01*
X14245301Y-14538960D02*
X14235777Y-14529436D01*
X14235777Y-14529436D02*
X14226253Y-14510388D01*
X14226253Y-14510388D02*
X14216729Y-14472293D01*
X14216729Y-14472293D02*
X14216729Y-14424674D01*
X14216729Y-14424674D02*
X14226253Y-14386579D01*
X14226253Y-14386579D02*
X14235777Y-14367531D01*
X14235777Y-14367531D02*
X14245301Y-14358008D01*
X14245301Y-14358008D02*
X14264348Y-14348484D01*
X14397682Y-14348484D02*
X14521491Y-14348484D01*
X14521491Y-14348484D02*
X14454825Y-14424674D01*
X14454825Y-14424674D02*
X14483396Y-14424674D01*
X14483396Y-14424674D02*
X14502444Y-14434198D01*
X14502444Y-14434198D02*
X14511967Y-14443722D01*
X14511967Y-14443722D02*
X14521491Y-14462769D01*
X14521491Y-14462769D02*
X14521491Y-14510388D01*
X14521491Y-14510388D02*
X14511967Y-14529436D01*
X14511967Y-14529436D02*
X14502444Y-14538960D01*
X14502444Y-14538960D02*
X14483396Y-14548484D01*
X14483396Y-14548484D02*
X14426253Y-14548484D01*
X14426253Y-14548484D02*
X14407206Y-14538960D01*
X14407206Y-14538960D02*
X14397682Y-14529436D01*
X14702444Y-14348484D02*
X14607206Y-14348484D01*
X14607206Y-14348484D02*
X14597682Y-14443722D01*
X14597682Y-14443722D02*
X14607206Y-14434198D01*
X14607206Y-14434198D02*
X14626253Y-14424674D01*
X14626253Y-14424674D02*
X14673872Y-14424674D01*
X14673872Y-14424674D02*
X14692920Y-14434198D01*
X14692920Y-14434198D02*
X14702444Y-14443722D01*
X14702444Y-14443722D02*
X14711967Y-14462769D01*
X14711967Y-14462769D02*
X14711967Y-14510388D01*
X14711967Y-14510388D02*
X14702444Y-14529436D01*
X14702444Y-14529436D02*
X14692920Y-14538960D01*
X14692920Y-14538960D02*
X14673872Y-14548484D01*
X14673872Y-14548484D02*
X14626253Y-14548484D01*
X14626253Y-14548484D02*
X14607206Y-14538960D01*
X14607206Y-14538960D02*
X14597682Y-14529436D01*
X14883396Y-14415150D02*
X14883396Y-14548484D01*
X14835777Y-14338960D02*
X14788158Y-14481817D01*
X14788158Y-14481817D02*
X14911967Y-14481817D01*
X14978634Y-14348484D02*
X14978634Y-14386579D01*
X15054825Y-14348484D02*
X15054825Y-14386579D01*
X15350063Y-14624674D02*
X15340539Y-14615150D01*
X15340539Y-14615150D02*
X15321491Y-14586579D01*
X15321491Y-14586579D02*
X15311968Y-14567531D01*
X15311968Y-14567531D02*
X15302444Y-14538960D01*
X15302444Y-14538960D02*
X15292920Y-14491341D01*
X15292920Y-14491341D02*
X15292920Y-14453246D01*
X15292920Y-14453246D02*
X15302444Y-14405627D01*
X15302444Y-14405627D02*
X15311968Y-14377055D01*
X15311968Y-14377055D02*
X15321491Y-14358008D01*
X15321491Y-14358008D02*
X15340539Y-14329436D01*
X15340539Y-14329436D02*
X15350063Y-14319912D01*
X15416729Y-14367531D02*
X15426253Y-14358008D01*
X15426253Y-14358008D02*
X15445301Y-14348484D01*
X15445301Y-14348484D02*
X15492920Y-14348484D01*
X15492920Y-14348484D02*
X15511968Y-14358008D01*
X15511968Y-14358008D02*
X15521491Y-14367531D01*
X15521491Y-14367531D02*
X15531015Y-14386579D01*
X15531015Y-14386579D02*
X15531015Y-14405627D01*
X15531015Y-14405627D02*
X15521491Y-14434198D01*
X15521491Y-14434198D02*
X15407206Y-14548484D01*
X15407206Y-14548484D02*
X15531015Y-14548484D01*
X15769110Y-14548484D02*
X15769110Y-14348484D01*
X15854825Y-14548484D02*
X15854825Y-14443722D01*
X15854825Y-14443722D02*
X15845301Y-14424674D01*
X15845301Y-14424674D02*
X15826253Y-14415150D01*
X15826253Y-14415150D02*
X15797682Y-14415150D01*
X15797682Y-14415150D02*
X15778634Y-14424674D01*
X15778634Y-14424674D02*
X15769110Y-14434198D01*
X15978634Y-14548484D02*
X15959587Y-14538960D01*
X15959587Y-14538960D02*
X15950063Y-14529436D01*
X15950063Y-14529436D02*
X15940539Y-14510388D01*
X15940539Y-14510388D02*
X15940539Y-14453246D01*
X15940539Y-14453246D02*
X15950063Y-14434198D01*
X15950063Y-14434198D02*
X15959587Y-14424674D01*
X15959587Y-14424674D02*
X15978634Y-14415150D01*
X15978634Y-14415150D02*
X16007206Y-14415150D01*
X16007206Y-14415150D02*
X16026253Y-14424674D01*
X16026253Y-14424674D02*
X16035777Y-14434198D01*
X16035777Y-14434198D02*
X16045301Y-14453246D01*
X16045301Y-14453246D02*
X16045301Y-14510388D01*
X16045301Y-14510388D02*
X16035777Y-14529436D01*
X16035777Y-14529436D02*
X16026253Y-14538960D01*
X16026253Y-14538960D02*
X16007206Y-14548484D01*
X16007206Y-14548484D02*
X15978634Y-14548484D01*
X16159587Y-14548484D02*
X16140539Y-14538960D01*
X16140539Y-14538960D02*
X16131015Y-14519912D01*
X16131015Y-14519912D02*
X16131015Y-14348484D01*
X16311968Y-14538960D02*
X16292920Y-14548484D01*
X16292920Y-14548484D02*
X16254825Y-14548484D01*
X16254825Y-14548484D02*
X16235777Y-14538960D01*
X16235777Y-14538960D02*
X16226253Y-14519912D01*
X16226253Y-14519912D02*
X16226253Y-14443722D01*
X16226253Y-14443722D02*
X16235777Y-14424674D01*
X16235777Y-14424674D02*
X16254825Y-14415150D01*
X16254825Y-14415150D02*
X16292920Y-14415150D01*
X16292920Y-14415150D02*
X16311968Y-14424674D01*
X16311968Y-14424674D02*
X16321491Y-14443722D01*
X16321491Y-14443722D02*
X16321491Y-14462769D01*
X16321491Y-14462769D02*
X16226253Y-14481817D01*
X16397682Y-14538960D02*
X16416730Y-14548484D01*
X16416730Y-14548484D02*
X16454825Y-14548484D01*
X16454825Y-14548484D02*
X16473872Y-14538960D01*
X16473872Y-14538960D02*
X16483396Y-14519912D01*
X16483396Y-14519912D02*
X16483396Y-14510388D01*
X16483396Y-14510388D02*
X16473872Y-14491341D01*
X16473872Y-14491341D02*
X16454825Y-14481817D01*
X16454825Y-14481817D02*
X16426253Y-14481817D01*
X16426253Y-14481817D02*
X16407206Y-14472293D01*
X16407206Y-14472293D02*
X16397682Y-14453246D01*
X16397682Y-14453246D02*
X16397682Y-14443722D01*
X16397682Y-14443722D02*
X16407206Y-14424674D01*
X16407206Y-14424674D02*
X16426253Y-14415150D01*
X16426253Y-14415150D02*
X16454825Y-14415150D01*
X16454825Y-14415150D02*
X16473872Y-14424674D01*
X16550063Y-14624674D02*
X16559587Y-14615150D01*
X16559587Y-14615150D02*
X16578634Y-14586579D01*
X16578634Y-14586579D02*
X16588158Y-14567531D01*
X16588158Y-14567531D02*
X16597682Y-14538960D01*
X16597682Y-14538960D02*
X16607206Y-14491341D01*
X16607206Y-14491341D02*
X16607206Y-14453246D01*
X16607206Y-14453246D02*
X16597682Y-14405627D01*
X16597682Y-14405627D02*
X16588158Y-14377055D01*
X16588158Y-14377055D02*
X16578634Y-14358008D01*
X16578634Y-14358008D02*
X16559587Y-14329436D01*
X16559587Y-14329436D02*
X16550063Y-14319912D01*
D16*
X11727500Y-14768500D02*
X11775000Y-14721000D01*
X11727500Y-14673500D01*
X11680000Y-14721000D01*
X11727500Y-14768500D01*
D11*
X12073872Y-14612484D02*
X12092920Y-14612484D01*
X12092920Y-14612484D02*
X12111967Y-14622008D01*
X12111967Y-14622008D02*
X12121491Y-14631531D01*
X12121491Y-14631531D02*
X12131015Y-14650579D01*
X12131015Y-14650579D02*
X12140539Y-14688674D01*
X12140539Y-14688674D02*
X12140539Y-14736293D01*
X12140539Y-14736293D02*
X12131015Y-14774388D01*
X12131015Y-14774388D02*
X12121491Y-14793436D01*
X12121491Y-14793436D02*
X12111967Y-14802960D01*
X12111967Y-14802960D02*
X12092920Y-14812484D01*
X12092920Y-14812484D02*
X12073872Y-14812484D01*
X12073872Y-14812484D02*
X12054824Y-14802960D01*
X12054824Y-14802960D02*
X12045301Y-14793436D01*
X12045301Y-14793436D02*
X12035777Y-14774388D01*
X12035777Y-14774388D02*
X12026253Y-14736293D01*
X12026253Y-14736293D02*
X12026253Y-14688674D01*
X12026253Y-14688674D02*
X12035777Y-14650579D01*
X12035777Y-14650579D02*
X12045301Y-14631531D01*
X12045301Y-14631531D02*
X12054824Y-14622008D01*
X12054824Y-14622008D02*
X12073872Y-14612484D01*
X12226253Y-14793436D02*
X12235777Y-14802960D01*
X12235777Y-14802960D02*
X12226253Y-14812484D01*
X12226253Y-14812484D02*
X12216729Y-14802960D01*
X12216729Y-14802960D02*
X12226253Y-14793436D01*
X12226253Y-14793436D02*
X12226253Y-14812484D01*
X12331015Y-14812484D02*
X12369110Y-14812484D01*
X12369110Y-14812484D02*
X12388158Y-14802960D01*
X12388158Y-14802960D02*
X12397682Y-14793436D01*
X12397682Y-14793436D02*
X12416729Y-14764865D01*
X12416729Y-14764865D02*
X12426253Y-14726769D01*
X12426253Y-14726769D02*
X12426253Y-14650579D01*
X12426253Y-14650579D02*
X12416729Y-14631531D01*
X12416729Y-14631531D02*
X12407205Y-14622008D01*
X12407205Y-14622008D02*
X12388158Y-14612484D01*
X12388158Y-14612484D02*
X12350062Y-14612484D01*
X12350062Y-14612484D02*
X12331015Y-14622008D01*
X12331015Y-14622008D02*
X12321491Y-14631531D01*
X12321491Y-14631531D02*
X12311967Y-14650579D01*
X12311967Y-14650579D02*
X12311967Y-14698198D01*
X12311967Y-14698198D02*
X12321491Y-14717246D01*
X12321491Y-14717246D02*
X12331015Y-14726769D01*
X12331015Y-14726769D02*
X12350062Y-14736293D01*
X12350062Y-14736293D02*
X12388158Y-14736293D01*
X12388158Y-14736293D02*
X12407205Y-14726769D01*
X12407205Y-14726769D02*
X12416729Y-14717246D01*
X12416729Y-14717246D02*
X12426253Y-14698198D01*
X12607205Y-14612484D02*
X12511967Y-14612484D01*
X12511967Y-14612484D02*
X12502443Y-14707722D01*
X12502443Y-14707722D02*
X12511967Y-14698198D01*
X12511967Y-14698198D02*
X12531015Y-14688674D01*
X12531015Y-14688674D02*
X12578634Y-14688674D01*
X12578634Y-14688674D02*
X12597682Y-14698198D01*
X12597682Y-14698198D02*
X12607205Y-14707722D01*
X12607205Y-14707722D02*
X12616729Y-14726769D01*
X12616729Y-14726769D02*
X12616729Y-14774388D01*
X12616729Y-14774388D02*
X12607205Y-14793436D01*
X12607205Y-14793436D02*
X12597682Y-14802960D01*
X12597682Y-14802960D02*
X12578634Y-14812484D01*
X12578634Y-14812484D02*
X12531015Y-14812484D01*
X12531015Y-14812484D02*
X12511967Y-14802960D01*
X12511967Y-14802960D02*
X12502443Y-14793436D01*
X12740539Y-14612484D02*
X12759586Y-14612484D01*
X12759586Y-14612484D02*
X12778634Y-14622008D01*
X12778634Y-14622008D02*
X12788158Y-14631531D01*
X12788158Y-14631531D02*
X12797682Y-14650579D01*
X12797682Y-14650579D02*
X12807205Y-14688674D01*
X12807205Y-14688674D02*
X12807205Y-14736293D01*
X12807205Y-14736293D02*
X12797682Y-14774388D01*
X12797682Y-14774388D02*
X12788158Y-14793436D01*
X12788158Y-14793436D02*
X12778634Y-14802960D01*
X12778634Y-14802960D02*
X12759586Y-14812484D01*
X12759586Y-14812484D02*
X12740539Y-14812484D01*
X12740539Y-14812484D02*
X12721491Y-14802960D01*
X12721491Y-14802960D02*
X12711967Y-14793436D01*
X12711967Y-14793436D02*
X12702443Y-14774388D01*
X12702443Y-14774388D02*
X12692920Y-14736293D01*
X12692920Y-14736293D02*
X12692920Y-14688674D01*
X12692920Y-14688674D02*
X12702443Y-14650579D01*
X12702443Y-14650579D02*
X12711967Y-14631531D01*
X12711967Y-14631531D02*
X12721491Y-14622008D01*
X12721491Y-14622008D02*
X12740539Y-14612484D01*
X12892920Y-14812484D02*
X12892920Y-14679150D01*
X12892920Y-14698198D02*
X12902443Y-14688674D01*
X12902443Y-14688674D02*
X12921491Y-14679150D01*
X12921491Y-14679150D02*
X12950063Y-14679150D01*
X12950063Y-14679150D02*
X12969110Y-14688674D01*
X12969110Y-14688674D02*
X12978634Y-14707722D01*
X12978634Y-14707722D02*
X12978634Y-14812484D01*
X12978634Y-14707722D02*
X12988158Y-14688674D01*
X12988158Y-14688674D02*
X13007205Y-14679150D01*
X13007205Y-14679150D02*
X13035777Y-14679150D01*
X13035777Y-14679150D02*
X13054824Y-14688674D01*
X13054824Y-14688674D02*
X13064348Y-14707722D01*
X13064348Y-14707722D02*
X13064348Y-14812484D01*
X13159586Y-14812484D02*
X13159586Y-14679150D01*
X13159586Y-14698198D02*
X13169110Y-14688674D01*
X13169110Y-14688674D02*
X13188158Y-14679150D01*
X13188158Y-14679150D02*
X13216729Y-14679150D01*
X13216729Y-14679150D02*
X13235777Y-14688674D01*
X13235777Y-14688674D02*
X13245301Y-14707722D01*
X13245301Y-14707722D02*
X13245301Y-14812484D01*
X13245301Y-14707722D02*
X13254824Y-14688674D01*
X13254824Y-14688674D02*
X13273872Y-14679150D01*
X13273872Y-14679150D02*
X13302443Y-14679150D01*
X13302443Y-14679150D02*
X13321491Y-14688674D01*
X13321491Y-14688674D02*
X13331015Y-14707722D01*
X13331015Y-14707722D02*
X13331015Y-14812484D01*
X13721491Y-14602960D02*
X13550063Y-14860103D01*
X13978634Y-14612484D02*
X13997682Y-14612484D01*
X13997682Y-14612484D02*
X14016729Y-14622008D01*
X14016729Y-14622008D02*
X14026253Y-14631531D01*
X14026253Y-14631531D02*
X14035777Y-14650579D01*
X14035777Y-14650579D02*
X14045301Y-14688674D01*
X14045301Y-14688674D02*
X14045301Y-14736293D01*
X14045301Y-14736293D02*
X14035777Y-14774388D01*
X14035777Y-14774388D02*
X14026253Y-14793436D01*
X14026253Y-14793436D02*
X14016729Y-14802960D01*
X14016729Y-14802960D02*
X13997682Y-14812484D01*
X13997682Y-14812484D02*
X13978634Y-14812484D01*
X13978634Y-14812484D02*
X13959586Y-14802960D01*
X13959586Y-14802960D02*
X13950063Y-14793436D01*
X13950063Y-14793436D02*
X13940539Y-14774388D01*
X13940539Y-14774388D02*
X13931015Y-14736293D01*
X13931015Y-14736293D02*
X13931015Y-14688674D01*
X13931015Y-14688674D02*
X13940539Y-14650579D01*
X13940539Y-14650579D02*
X13950063Y-14631531D01*
X13950063Y-14631531D02*
X13959586Y-14622008D01*
X13959586Y-14622008D02*
X13978634Y-14612484D01*
X14131015Y-14793436D02*
X14140539Y-14802960D01*
X14140539Y-14802960D02*
X14131015Y-14812484D01*
X14131015Y-14812484D02*
X14121491Y-14802960D01*
X14121491Y-14802960D02*
X14131015Y-14793436D01*
X14131015Y-14793436D02*
X14131015Y-14812484D01*
X14264348Y-14612484D02*
X14283396Y-14612484D01*
X14283396Y-14612484D02*
X14302444Y-14622008D01*
X14302444Y-14622008D02*
X14311967Y-14631531D01*
X14311967Y-14631531D02*
X14321491Y-14650579D01*
X14321491Y-14650579D02*
X14331015Y-14688674D01*
X14331015Y-14688674D02*
X14331015Y-14736293D01*
X14331015Y-14736293D02*
X14321491Y-14774388D01*
X14321491Y-14774388D02*
X14311967Y-14793436D01*
X14311967Y-14793436D02*
X14302444Y-14802960D01*
X14302444Y-14802960D02*
X14283396Y-14812484D01*
X14283396Y-14812484D02*
X14264348Y-14812484D01*
X14264348Y-14812484D02*
X14245301Y-14802960D01*
X14245301Y-14802960D02*
X14235777Y-14793436D01*
X14235777Y-14793436D02*
X14226253Y-14774388D01*
X14226253Y-14774388D02*
X14216729Y-14736293D01*
X14216729Y-14736293D02*
X14216729Y-14688674D01*
X14216729Y-14688674D02*
X14226253Y-14650579D01*
X14226253Y-14650579D02*
X14235777Y-14631531D01*
X14235777Y-14631531D02*
X14245301Y-14622008D01*
X14245301Y-14622008D02*
X14264348Y-14612484D01*
X14397682Y-14612484D02*
X14521491Y-14612484D01*
X14521491Y-14612484D02*
X14454825Y-14688674D01*
X14454825Y-14688674D02*
X14483396Y-14688674D01*
X14483396Y-14688674D02*
X14502444Y-14698198D01*
X14502444Y-14698198D02*
X14511967Y-14707722D01*
X14511967Y-14707722D02*
X14521491Y-14726769D01*
X14521491Y-14726769D02*
X14521491Y-14774388D01*
X14521491Y-14774388D02*
X14511967Y-14793436D01*
X14511967Y-14793436D02*
X14502444Y-14802960D01*
X14502444Y-14802960D02*
X14483396Y-14812484D01*
X14483396Y-14812484D02*
X14426253Y-14812484D01*
X14426253Y-14812484D02*
X14407206Y-14802960D01*
X14407206Y-14802960D02*
X14397682Y-14793436D01*
X14588158Y-14612484D02*
X14721491Y-14612484D01*
X14721491Y-14612484D02*
X14635777Y-14812484D01*
X14883396Y-14679150D02*
X14883396Y-14812484D01*
X14835777Y-14602960D02*
X14788158Y-14745817D01*
X14788158Y-14745817D02*
X14911967Y-14745817D01*
X14978634Y-14612484D02*
X14978634Y-14650579D01*
X15054825Y-14612484D02*
X15054825Y-14650579D01*
X15350063Y-14888674D02*
X15340539Y-14879150D01*
X15340539Y-14879150D02*
X15321491Y-14850579D01*
X15321491Y-14850579D02*
X15311968Y-14831531D01*
X15311968Y-14831531D02*
X15302444Y-14802960D01*
X15302444Y-14802960D02*
X15292920Y-14755341D01*
X15292920Y-14755341D02*
X15292920Y-14717246D01*
X15292920Y-14717246D02*
X15302444Y-14669627D01*
X15302444Y-14669627D02*
X15311968Y-14641055D01*
X15311968Y-14641055D02*
X15321491Y-14622008D01*
X15321491Y-14622008D02*
X15340539Y-14593436D01*
X15340539Y-14593436D02*
X15350063Y-14583912D01*
X15511968Y-14612484D02*
X15473872Y-14612484D01*
X15473872Y-14612484D02*
X15454825Y-14622008D01*
X15454825Y-14622008D02*
X15445301Y-14631531D01*
X15445301Y-14631531D02*
X15426253Y-14660103D01*
X15426253Y-14660103D02*
X15416729Y-14698198D01*
X15416729Y-14698198D02*
X15416729Y-14774388D01*
X15416729Y-14774388D02*
X15426253Y-14793436D01*
X15426253Y-14793436D02*
X15435777Y-14802960D01*
X15435777Y-14802960D02*
X15454825Y-14812484D01*
X15454825Y-14812484D02*
X15492920Y-14812484D01*
X15492920Y-14812484D02*
X15511968Y-14802960D01*
X15511968Y-14802960D02*
X15521491Y-14793436D01*
X15521491Y-14793436D02*
X15531015Y-14774388D01*
X15531015Y-14774388D02*
X15531015Y-14726769D01*
X15531015Y-14726769D02*
X15521491Y-14707722D01*
X15521491Y-14707722D02*
X15511968Y-14698198D01*
X15511968Y-14698198D02*
X15492920Y-14688674D01*
X15492920Y-14688674D02*
X15454825Y-14688674D01*
X15454825Y-14688674D02*
X15435777Y-14698198D01*
X15435777Y-14698198D02*
X15426253Y-14707722D01*
X15426253Y-14707722D02*
X15416729Y-14726769D01*
X15769110Y-14812484D02*
X15769110Y-14612484D01*
X15854825Y-14812484D02*
X15854825Y-14707722D01*
X15854825Y-14707722D02*
X15845301Y-14688674D01*
X15845301Y-14688674D02*
X15826253Y-14679150D01*
X15826253Y-14679150D02*
X15797682Y-14679150D01*
X15797682Y-14679150D02*
X15778634Y-14688674D01*
X15778634Y-14688674D02*
X15769110Y-14698198D01*
X15978634Y-14812484D02*
X15959587Y-14802960D01*
X15959587Y-14802960D02*
X15950063Y-14793436D01*
X15950063Y-14793436D02*
X15940539Y-14774388D01*
X15940539Y-14774388D02*
X15940539Y-14717246D01*
X15940539Y-14717246D02*
X15950063Y-14698198D01*
X15950063Y-14698198D02*
X15959587Y-14688674D01*
X15959587Y-14688674D02*
X15978634Y-14679150D01*
X15978634Y-14679150D02*
X16007206Y-14679150D01*
X16007206Y-14679150D02*
X16026253Y-14688674D01*
X16026253Y-14688674D02*
X16035777Y-14698198D01*
X16035777Y-14698198D02*
X16045301Y-14717246D01*
X16045301Y-14717246D02*
X16045301Y-14774388D01*
X16045301Y-14774388D02*
X16035777Y-14793436D01*
X16035777Y-14793436D02*
X16026253Y-14802960D01*
X16026253Y-14802960D02*
X16007206Y-14812484D01*
X16007206Y-14812484D02*
X15978634Y-14812484D01*
X16159587Y-14812484D02*
X16140539Y-14802960D01*
X16140539Y-14802960D02*
X16131015Y-14783912D01*
X16131015Y-14783912D02*
X16131015Y-14612484D01*
X16311968Y-14802960D02*
X16292920Y-14812484D01*
X16292920Y-14812484D02*
X16254825Y-14812484D01*
X16254825Y-14812484D02*
X16235777Y-14802960D01*
X16235777Y-14802960D02*
X16226253Y-14783912D01*
X16226253Y-14783912D02*
X16226253Y-14707722D01*
X16226253Y-14707722D02*
X16235777Y-14688674D01*
X16235777Y-14688674D02*
X16254825Y-14679150D01*
X16254825Y-14679150D02*
X16292920Y-14679150D01*
X16292920Y-14679150D02*
X16311968Y-14688674D01*
X16311968Y-14688674D02*
X16321491Y-14707722D01*
X16321491Y-14707722D02*
X16321491Y-14726769D01*
X16321491Y-14726769D02*
X16226253Y-14745817D01*
X16397682Y-14802960D02*
X16416730Y-14812484D01*
X16416730Y-14812484D02*
X16454825Y-14812484D01*
X16454825Y-14812484D02*
X16473872Y-14802960D01*
X16473872Y-14802960D02*
X16483396Y-14783912D01*
X16483396Y-14783912D02*
X16483396Y-14774388D01*
X16483396Y-14774388D02*
X16473872Y-14755341D01*
X16473872Y-14755341D02*
X16454825Y-14745817D01*
X16454825Y-14745817D02*
X16426253Y-14745817D01*
X16426253Y-14745817D02*
X16407206Y-14736293D01*
X16407206Y-14736293D02*
X16397682Y-14717246D01*
X16397682Y-14717246D02*
X16397682Y-14707722D01*
X16397682Y-14707722D02*
X16407206Y-14688674D01*
X16407206Y-14688674D02*
X16426253Y-14679150D01*
X16426253Y-14679150D02*
X16454825Y-14679150D01*
X16454825Y-14679150D02*
X16473872Y-14688674D01*
X16550063Y-14888674D02*
X16559587Y-14879150D01*
X16559587Y-14879150D02*
X16578634Y-14850579D01*
X16578634Y-14850579D02*
X16588158Y-14831531D01*
X16588158Y-14831531D02*
X16597682Y-14802960D01*
X16597682Y-14802960D02*
X16607206Y-14755341D01*
X16607206Y-14755341D02*
X16607206Y-14717246D01*
X16607206Y-14717246D02*
X16597682Y-14669627D01*
X16597682Y-14669627D02*
X16588158Y-14641055D01*
X16588158Y-14641055D02*
X16578634Y-14622008D01*
X16578634Y-14622008D02*
X16559587Y-14593436D01*
X16559587Y-14593436D02*
X16550063Y-14583912D01*
D17*
X11676000Y-14935500D02*
X11775000Y-15034500D01*
X11775000Y-14935500D02*
X11676000Y-15034500D01*
X11775000Y-14985000D02*
G75*
G03*
X11775000Y-14985000I-49500J0D01*
G01*
D11*
X12073872Y-14876484D02*
X12092920Y-14876484D01*
X12092920Y-14876484D02*
X12111967Y-14886008D01*
X12111967Y-14886008D02*
X12121491Y-14895531D01*
X12121491Y-14895531D02*
X12131015Y-14914579D01*
X12131015Y-14914579D02*
X12140539Y-14952674D01*
X12140539Y-14952674D02*
X12140539Y-15000293D01*
X12140539Y-15000293D02*
X12131015Y-15038388D01*
X12131015Y-15038388D02*
X12121491Y-15057436D01*
X12121491Y-15057436D02*
X12111967Y-15066960D01*
X12111967Y-15066960D02*
X12092920Y-15076484D01*
X12092920Y-15076484D02*
X12073872Y-15076484D01*
X12073872Y-15076484D02*
X12054824Y-15066960D01*
X12054824Y-15066960D02*
X12045301Y-15057436D01*
X12045301Y-15057436D02*
X12035777Y-15038388D01*
X12035777Y-15038388D02*
X12026253Y-15000293D01*
X12026253Y-15000293D02*
X12026253Y-14952674D01*
X12026253Y-14952674D02*
X12035777Y-14914579D01*
X12035777Y-14914579D02*
X12045301Y-14895531D01*
X12045301Y-14895531D02*
X12054824Y-14886008D01*
X12054824Y-14886008D02*
X12073872Y-14876484D01*
X12226253Y-15057436D02*
X12235777Y-15066960D01*
X12235777Y-15066960D02*
X12226253Y-15076484D01*
X12226253Y-15076484D02*
X12216729Y-15066960D01*
X12216729Y-15066960D02*
X12226253Y-15057436D01*
X12226253Y-15057436D02*
X12226253Y-15076484D01*
X12331015Y-15076484D02*
X12369110Y-15076484D01*
X12369110Y-15076484D02*
X12388158Y-15066960D01*
X12388158Y-15066960D02*
X12397682Y-15057436D01*
X12397682Y-15057436D02*
X12416729Y-15028865D01*
X12416729Y-15028865D02*
X12426253Y-14990769D01*
X12426253Y-14990769D02*
X12426253Y-14914579D01*
X12426253Y-14914579D02*
X12416729Y-14895531D01*
X12416729Y-14895531D02*
X12407205Y-14886008D01*
X12407205Y-14886008D02*
X12388158Y-14876484D01*
X12388158Y-14876484D02*
X12350062Y-14876484D01*
X12350062Y-14876484D02*
X12331015Y-14886008D01*
X12331015Y-14886008D02*
X12321491Y-14895531D01*
X12321491Y-14895531D02*
X12311967Y-14914579D01*
X12311967Y-14914579D02*
X12311967Y-14962198D01*
X12311967Y-14962198D02*
X12321491Y-14981246D01*
X12321491Y-14981246D02*
X12331015Y-14990769D01*
X12331015Y-14990769D02*
X12350062Y-15000293D01*
X12350062Y-15000293D02*
X12388158Y-15000293D01*
X12388158Y-15000293D02*
X12407205Y-14990769D01*
X12407205Y-14990769D02*
X12416729Y-14981246D01*
X12416729Y-14981246D02*
X12426253Y-14962198D01*
X12521491Y-15076484D02*
X12559586Y-15076484D01*
X12559586Y-15076484D02*
X12578634Y-15066960D01*
X12578634Y-15066960D02*
X12588158Y-15057436D01*
X12588158Y-15057436D02*
X12607205Y-15028865D01*
X12607205Y-15028865D02*
X12616729Y-14990769D01*
X12616729Y-14990769D02*
X12616729Y-14914579D01*
X12616729Y-14914579D02*
X12607205Y-14895531D01*
X12607205Y-14895531D02*
X12597682Y-14886008D01*
X12597682Y-14886008D02*
X12578634Y-14876484D01*
X12578634Y-14876484D02*
X12540539Y-14876484D01*
X12540539Y-14876484D02*
X12521491Y-14886008D01*
X12521491Y-14886008D02*
X12511967Y-14895531D01*
X12511967Y-14895531D02*
X12502443Y-14914579D01*
X12502443Y-14914579D02*
X12502443Y-14962198D01*
X12502443Y-14962198D02*
X12511967Y-14981246D01*
X12511967Y-14981246D02*
X12521491Y-14990769D01*
X12521491Y-14990769D02*
X12540539Y-15000293D01*
X12540539Y-15000293D02*
X12578634Y-15000293D01*
X12578634Y-15000293D02*
X12597682Y-14990769D01*
X12597682Y-14990769D02*
X12607205Y-14981246D01*
X12607205Y-14981246D02*
X12616729Y-14962198D01*
X12740539Y-14876484D02*
X12759586Y-14876484D01*
X12759586Y-14876484D02*
X12778634Y-14886008D01*
X12778634Y-14886008D02*
X12788158Y-14895531D01*
X12788158Y-14895531D02*
X12797682Y-14914579D01*
X12797682Y-14914579D02*
X12807205Y-14952674D01*
X12807205Y-14952674D02*
X12807205Y-15000293D01*
X12807205Y-15000293D02*
X12797682Y-15038388D01*
X12797682Y-15038388D02*
X12788158Y-15057436D01*
X12788158Y-15057436D02*
X12778634Y-15066960D01*
X12778634Y-15066960D02*
X12759586Y-15076484D01*
X12759586Y-15076484D02*
X12740539Y-15076484D01*
X12740539Y-15076484D02*
X12721491Y-15066960D01*
X12721491Y-15066960D02*
X12711967Y-15057436D01*
X12711967Y-15057436D02*
X12702443Y-15038388D01*
X12702443Y-15038388D02*
X12692920Y-15000293D01*
X12692920Y-15000293D02*
X12692920Y-14952674D01*
X12692920Y-14952674D02*
X12702443Y-14914579D01*
X12702443Y-14914579D02*
X12711967Y-14895531D01*
X12711967Y-14895531D02*
X12721491Y-14886008D01*
X12721491Y-14886008D02*
X12740539Y-14876484D01*
X12892920Y-15076484D02*
X12892920Y-14943150D01*
X12892920Y-14962198D02*
X12902443Y-14952674D01*
X12902443Y-14952674D02*
X12921491Y-14943150D01*
X12921491Y-14943150D02*
X12950063Y-14943150D01*
X12950063Y-14943150D02*
X12969110Y-14952674D01*
X12969110Y-14952674D02*
X12978634Y-14971722D01*
X12978634Y-14971722D02*
X12978634Y-15076484D01*
X12978634Y-14971722D02*
X12988158Y-14952674D01*
X12988158Y-14952674D02*
X13007205Y-14943150D01*
X13007205Y-14943150D02*
X13035777Y-14943150D01*
X13035777Y-14943150D02*
X13054824Y-14952674D01*
X13054824Y-14952674D02*
X13064348Y-14971722D01*
X13064348Y-14971722D02*
X13064348Y-15076484D01*
X13159586Y-15076484D02*
X13159586Y-14943150D01*
X13159586Y-14962198D02*
X13169110Y-14952674D01*
X13169110Y-14952674D02*
X13188158Y-14943150D01*
X13188158Y-14943150D02*
X13216729Y-14943150D01*
X13216729Y-14943150D02*
X13235777Y-14952674D01*
X13235777Y-14952674D02*
X13245301Y-14971722D01*
X13245301Y-14971722D02*
X13245301Y-15076484D01*
X13245301Y-14971722D02*
X13254824Y-14952674D01*
X13254824Y-14952674D02*
X13273872Y-14943150D01*
X13273872Y-14943150D02*
X13302443Y-14943150D01*
X13302443Y-14943150D02*
X13321491Y-14952674D01*
X13321491Y-14952674D02*
X13331015Y-14971722D01*
X13331015Y-14971722D02*
X13331015Y-15076484D01*
X13721491Y-14866960D02*
X13550063Y-15124103D01*
X13978634Y-14876484D02*
X13997682Y-14876484D01*
X13997682Y-14876484D02*
X14016729Y-14886008D01*
X14016729Y-14886008D02*
X14026253Y-14895531D01*
X14026253Y-14895531D02*
X14035777Y-14914579D01*
X14035777Y-14914579D02*
X14045301Y-14952674D01*
X14045301Y-14952674D02*
X14045301Y-15000293D01*
X14045301Y-15000293D02*
X14035777Y-15038388D01*
X14035777Y-15038388D02*
X14026253Y-15057436D01*
X14026253Y-15057436D02*
X14016729Y-15066960D01*
X14016729Y-15066960D02*
X13997682Y-15076484D01*
X13997682Y-15076484D02*
X13978634Y-15076484D01*
X13978634Y-15076484D02*
X13959586Y-15066960D01*
X13959586Y-15066960D02*
X13950063Y-15057436D01*
X13950063Y-15057436D02*
X13940539Y-15038388D01*
X13940539Y-15038388D02*
X13931015Y-15000293D01*
X13931015Y-15000293D02*
X13931015Y-14952674D01*
X13931015Y-14952674D02*
X13940539Y-14914579D01*
X13940539Y-14914579D02*
X13950063Y-14895531D01*
X13950063Y-14895531D02*
X13959586Y-14886008D01*
X13959586Y-14886008D02*
X13978634Y-14876484D01*
X14131015Y-15057436D02*
X14140539Y-15066960D01*
X14140539Y-15066960D02*
X14131015Y-15076484D01*
X14131015Y-15076484D02*
X14121491Y-15066960D01*
X14121491Y-15066960D02*
X14131015Y-15057436D01*
X14131015Y-15057436D02*
X14131015Y-15076484D01*
X14264348Y-14876484D02*
X14283396Y-14876484D01*
X14283396Y-14876484D02*
X14302444Y-14886008D01*
X14302444Y-14886008D02*
X14311967Y-14895531D01*
X14311967Y-14895531D02*
X14321491Y-14914579D01*
X14321491Y-14914579D02*
X14331015Y-14952674D01*
X14331015Y-14952674D02*
X14331015Y-15000293D01*
X14331015Y-15000293D02*
X14321491Y-15038388D01*
X14321491Y-15038388D02*
X14311967Y-15057436D01*
X14311967Y-15057436D02*
X14302444Y-15066960D01*
X14302444Y-15066960D02*
X14283396Y-15076484D01*
X14283396Y-15076484D02*
X14264348Y-15076484D01*
X14264348Y-15076484D02*
X14245301Y-15066960D01*
X14245301Y-15066960D02*
X14235777Y-15057436D01*
X14235777Y-15057436D02*
X14226253Y-15038388D01*
X14226253Y-15038388D02*
X14216729Y-15000293D01*
X14216729Y-15000293D02*
X14216729Y-14952674D01*
X14216729Y-14952674D02*
X14226253Y-14914579D01*
X14226253Y-14914579D02*
X14235777Y-14895531D01*
X14235777Y-14895531D02*
X14245301Y-14886008D01*
X14245301Y-14886008D02*
X14264348Y-14876484D01*
X14397682Y-14876484D02*
X14521491Y-14876484D01*
X14521491Y-14876484D02*
X14454825Y-14952674D01*
X14454825Y-14952674D02*
X14483396Y-14952674D01*
X14483396Y-14952674D02*
X14502444Y-14962198D01*
X14502444Y-14962198D02*
X14511967Y-14971722D01*
X14511967Y-14971722D02*
X14521491Y-14990769D01*
X14521491Y-14990769D02*
X14521491Y-15038388D01*
X14521491Y-15038388D02*
X14511967Y-15057436D01*
X14511967Y-15057436D02*
X14502444Y-15066960D01*
X14502444Y-15066960D02*
X14483396Y-15076484D01*
X14483396Y-15076484D02*
X14426253Y-15076484D01*
X14426253Y-15076484D02*
X14407206Y-15066960D01*
X14407206Y-15066960D02*
X14397682Y-15057436D01*
X14616729Y-15076484D02*
X14654825Y-15076484D01*
X14654825Y-15076484D02*
X14673872Y-15066960D01*
X14673872Y-15066960D02*
X14683396Y-15057436D01*
X14683396Y-15057436D02*
X14702444Y-15028865D01*
X14702444Y-15028865D02*
X14711967Y-14990769D01*
X14711967Y-14990769D02*
X14711967Y-14914579D01*
X14711967Y-14914579D02*
X14702444Y-14895531D01*
X14702444Y-14895531D02*
X14692920Y-14886008D01*
X14692920Y-14886008D02*
X14673872Y-14876484D01*
X14673872Y-14876484D02*
X14635777Y-14876484D01*
X14635777Y-14876484D02*
X14616729Y-14886008D01*
X14616729Y-14886008D02*
X14607206Y-14895531D01*
X14607206Y-14895531D02*
X14597682Y-14914579D01*
X14597682Y-14914579D02*
X14597682Y-14962198D01*
X14597682Y-14962198D02*
X14607206Y-14981246D01*
X14607206Y-14981246D02*
X14616729Y-14990769D01*
X14616729Y-14990769D02*
X14635777Y-15000293D01*
X14635777Y-15000293D02*
X14673872Y-15000293D01*
X14673872Y-15000293D02*
X14692920Y-14990769D01*
X14692920Y-14990769D02*
X14702444Y-14981246D01*
X14702444Y-14981246D02*
X14711967Y-14962198D01*
X14835777Y-14876484D02*
X14854825Y-14876484D01*
X14854825Y-14876484D02*
X14873872Y-14886008D01*
X14873872Y-14886008D02*
X14883396Y-14895531D01*
X14883396Y-14895531D02*
X14892920Y-14914579D01*
X14892920Y-14914579D02*
X14902444Y-14952674D01*
X14902444Y-14952674D02*
X14902444Y-15000293D01*
X14902444Y-15000293D02*
X14892920Y-15038388D01*
X14892920Y-15038388D02*
X14883396Y-15057436D01*
X14883396Y-15057436D02*
X14873872Y-15066960D01*
X14873872Y-15066960D02*
X14854825Y-15076484D01*
X14854825Y-15076484D02*
X14835777Y-15076484D01*
X14835777Y-15076484D02*
X14816729Y-15066960D01*
X14816729Y-15066960D02*
X14807206Y-15057436D01*
X14807206Y-15057436D02*
X14797682Y-15038388D01*
X14797682Y-15038388D02*
X14788158Y-15000293D01*
X14788158Y-15000293D02*
X14788158Y-14952674D01*
X14788158Y-14952674D02*
X14797682Y-14914579D01*
X14797682Y-14914579D02*
X14807206Y-14895531D01*
X14807206Y-14895531D02*
X14816729Y-14886008D01*
X14816729Y-14886008D02*
X14835777Y-14876484D01*
X14978634Y-14876484D02*
X14978634Y-14914579D01*
X15054825Y-14876484D02*
X15054825Y-14914579D01*
X15350063Y-15152674D02*
X15340539Y-15143150D01*
X15340539Y-15143150D02*
X15321491Y-15114579D01*
X15321491Y-15114579D02*
X15311968Y-15095531D01*
X15311968Y-15095531D02*
X15302444Y-15066960D01*
X15302444Y-15066960D02*
X15292920Y-15019341D01*
X15292920Y-15019341D02*
X15292920Y-14981246D01*
X15292920Y-14981246D02*
X15302444Y-14933627D01*
X15302444Y-14933627D02*
X15311968Y-14905055D01*
X15311968Y-14905055D02*
X15321491Y-14886008D01*
X15321491Y-14886008D02*
X15340539Y-14857436D01*
X15340539Y-14857436D02*
X15350063Y-14847912D01*
X15416729Y-14895531D02*
X15426253Y-14886008D01*
X15426253Y-14886008D02*
X15445301Y-14876484D01*
X15445301Y-14876484D02*
X15492920Y-14876484D01*
X15492920Y-14876484D02*
X15511968Y-14886008D01*
X15511968Y-14886008D02*
X15521491Y-14895531D01*
X15521491Y-14895531D02*
X15531015Y-14914579D01*
X15531015Y-14914579D02*
X15531015Y-14933627D01*
X15531015Y-14933627D02*
X15521491Y-14962198D01*
X15521491Y-14962198D02*
X15407206Y-15076484D01*
X15407206Y-15076484D02*
X15531015Y-15076484D01*
X15769110Y-15076484D02*
X15769110Y-14876484D01*
X15854825Y-15076484D02*
X15854825Y-14971722D01*
X15854825Y-14971722D02*
X15845301Y-14952674D01*
X15845301Y-14952674D02*
X15826253Y-14943150D01*
X15826253Y-14943150D02*
X15797682Y-14943150D01*
X15797682Y-14943150D02*
X15778634Y-14952674D01*
X15778634Y-14952674D02*
X15769110Y-14962198D01*
X15978634Y-15076484D02*
X15959587Y-15066960D01*
X15959587Y-15066960D02*
X15950063Y-15057436D01*
X15950063Y-15057436D02*
X15940539Y-15038388D01*
X15940539Y-15038388D02*
X15940539Y-14981246D01*
X15940539Y-14981246D02*
X15950063Y-14962198D01*
X15950063Y-14962198D02*
X15959587Y-14952674D01*
X15959587Y-14952674D02*
X15978634Y-14943150D01*
X15978634Y-14943150D02*
X16007206Y-14943150D01*
X16007206Y-14943150D02*
X16026253Y-14952674D01*
X16026253Y-14952674D02*
X16035777Y-14962198D01*
X16035777Y-14962198D02*
X16045301Y-14981246D01*
X16045301Y-14981246D02*
X16045301Y-15038388D01*
X16045301Y-15038388D02*
X16035777Y-15057436D01*
X16035777Y-15057436D02*
X16026253Y-15066960D01*
X16026253Y-15066960D02*
X16007206Y-15076484D01*
X16007206Y-15076484D02*
X15978634Y-15076484D01*
X16159587Y-15076484D02*
X16140539Y-15066960D01*
X16140539Y-15066960D02*
X16131015Y-15047912D01*
X16131015Y-15047912D02*
X16131015Y-14876484D01*
X16311968Y-15066960D02*
X16292920Y-15076484D01*
X16292920Y-15076484D02*
X16254825Y-15076484D01*
X16254825Y-15076484D02*
X16235777Y-15066960D01*
X16235777Y-15066960D02*
X16226253Y-15047912D01*
X16226253Y-15047912D02*
X16226253Y-14971722D01*
X16226253Y-14971722D02*
X16235777Y-14952674D01*
X16235777Y-14952674D02*
X16254825Y-14943150D01*
X16254825Y-14943150D02*
X16292920Y-14943150D01*
X16292920Y-14943150D02*
X16311968Y-14952674D01*
X16311968Y-14952674D02*
X16321491Y-14971722D01*
X16321491Y-14971722D02*
X16321491Y-14990769D01*
X16321491Y-14990769D02*
X16226253Y-15009817D01*
X16397682Y-15066960D02*
X16416730Y-15076484D01*
X16416730Y-15076484D02*
X16454825Y-15076484D01*
X16454825Y-15076484D02*
X16473872Y-15066960D01*
X16473872Y-15066960D02*
X16483396Y-15047912D01*
X16483396Y-15047912D02*
X16483396Y-15038388D01*
X16483396Y-15038388D02*
X16473872Y-15019341D01*
X16473872Y-15019341D02*
X16454825Y-15009817D01*
X16454825Y-15009817D02*
X16426253Y-15009817D01*
X16426253Y-15009817D02*
X16407206Y-15000293D01*
X16407206Y-15000293D02*
X16397682Y-14981246D01*
X16397682Y-14981246D02*
X16397682Y-14971722D01*
X16397682Y-14971722D02*
X16407206Y-14952674D01*
X16407206Y-14952674D02*
X16426253Y-14943150D01*
X16426253Y-14943150D02*
X16454825Y-14943150D01*
X16454825Y-14943150D02*
X16473872Y-14952674D01*
X16550063Y-15152674D02*
X16559587Y-15143150D01*
X16559587Y-15143150D02*
X16578634Y-15114579D01*
X16578634Y-15114579D02*
X16588158Y-15095531D01*
X16588158Y-15095531D02*
X16597682Y-15066960D01*
X16597682Y-15066960D02*
X16607206Y-15019341D01*
X16607206Y-15019341D02*
X16607206Y-14981246D01*
X16607206Y-14981246D02*
X16597682Y-14933627D01*
X16597682Y-14933627D02*
X16588158Y-14905055D01*
X16588158Y-14905055D02*
X16578634Y-14886008D01*
X16578634Y-14886008D02*
X16559587Y-14857436D01*
X16559587Y-14857436D02*
X16550063Y-14847912D01*
D18*
X11675000Y-15199000D02*
X11775000Y-15299000D01*
X11775000Y-15199000D02*
X11675000Y-15299000D01*
X11725000Y-15199000D02*
X11725000Y-15299000D01*
X11675000Y-15249000D02*
X11775000Y-15249000D01*
D11*
X12140539Y-15340484D02*
X12026253Y-15340484D01*
X12083396Y-15340484D02*
X12083396Y-15140484D01*
X12083396Y-15140484D02*
X12064348Y-15169055D01*
X12064348Y-15169055D02*
X12045301Y-15188103D01*
X12045301Y-15188103D02*
X12026253Y-15197627D01*
X12226253Y-15321436D02*
X12235777Y-15330960D01*
X12235777Y-15330960D02*
X12226253Y-15340484D01*
X12226253Y-15340484D02*
X12216729Y-15330960D01*
X12216729Y-15330960D02*
X12226253Y-15321436D01*
X12226253Y-15321436D02*
X12226253Y-15340484D01*
X12359586Y-15140484D02*
X12378634Y-15140484D01*
X12378634Y-15140484D02*
X12397682Y-15150008D01*
X12397682Y-15150008D02*
X12407205Y-15159531D01*
X12407205Y-15159531D02*
X12416729Y-15178579D01*
X12416729Y-15178579D02*
X12426253Y-15216674D01*
X12426253Y-15216674D02*
X12426253Y-15264293D01*
X12426253Y-15264293D02*
X12416729Y-15302388D01*
X12416729Y-15302388D02*
X12407205Y-15321436D01*
X12407205Y-15321436D02*
X12397682Y-15330960D01*
X12397682Y-15330960D02*
X12378634Y-15340484D01*
X12378634Y-15340484D02*
X12359586Y-15340484D01*
X12359586Y-15340484D02*
X12340539Y-15330960D01*
X12340539Y-15330960D02*
X12331015Y-15321436D01*
X12331015Y-15321436D02*
X12321491Y-15302388D01*
X12321491Y-15302388D02*
X12311967Y-15264293D01*
X12311967Y-15264293D02*
X12311967Y-15216674D01*
X12311967Y-15216674D02*
X12321491Y-15178579D01*
X12321491Y-15178579D02*
X12331015Y-15159531D01*
X12331015Y-15159531D02*
X12340539Y-15150008D01*
X12340539Y-15150008D02*
X12359586Y-15140484D01*
X12550062Y-15140484D02*
X12569110Y-15140484D01*
X12569110Y-15140484D02*
X12588158Y-15150008D01*
X12588158Y-15150008D02*
X12597682Y-15159531D01*
X12597682Y-15159531D02*
X12607205Y-15178579D01*
X12607205Y-15178579D02*
X12616729Y-15216674D01*
X12616729Y-15216674D02*
X12616729Y-15264293D01*
X12616729Y-15264293D02*
X12607205Y-15302388D01*
X12607205Y-15302388D02*
X12597682Y-15321436D01*
X12597682Y-15321436D02*
X12588158Y-15330960D01*
X12588158Y-15330960D02*
X12569110Y-15340484D01*
X12569110Y-15340484D02*
X12550062Y-15340484D01*
X12550062Y-15340484D02*
X12531015Y-15330960D01*
X12531015Y-15330960D02*
X12521491Y-15321436D01*
X12521491Y-15321436D02*
X12511967Y-15302388D01*
X12511967Y-15302388D02*
X12502443Y-15264293D01*
X12502443Y-15264293D02*
X12502443Y-15216674D01*
X12502443Y-15216674D02*
X12511967Y-15178579D01*
X12511967Y-15178579D02*
X12521491Y-15159531D01*
X12521491Y-15159531D02*
X12531015Y-15150008D01*
X12531015Y-15150008D02*
X12550062Y-15140484D01*
X12740539Y-15140484D02*
X12759586Y-15140484D01*
X12759586Y-15140484D02*
X12778634Y-15150008D01*
X12778634Y-15150008D02*
X12788158Y-15159531D01*
X12788158Y-15159531D02*
X12797682Y-15178579D01*
X12797682Y-15178579D02*
X12807205Y-15216674D01*
X12807205Y-15216674D02*
X12807205Y-15264293D01*
X12807205Y-15264293D02*
X12797682Y-15302388D01*
X12797682Y-15302388D02*
X12788158Y-15321436D01*
X12788158Y-15321436D02*
X12778634Y-15330960D01*
X12778634Y-15330960D02*
X12759586Y-15340484D01*
X12759586Y-15340484D02*
X12740539Y-15340484D01*
X12740539Y-15340484D02*
X12721491Y-15330960D01*
X12721491Y-15330960D02*
X12711967Y-15321436D01*
X12711967Y-15321436D02*
X12702443Y-15302388D01*
X12702443Y-15302388D02*
X12692920Y-15264293D01*
X12692920Y-15264293D02*
X12692920Y-15216674D01*
X12692920Y-15216674D02*
X12702443Y-15178579D01*
X12702443Y-15178579D02*
X12711967Y-15159531D01*
X12711967Y-15159531D02*
X12721491Y-15150008D01*
X12721491Y-15150008D02*
X12740539Y-15140484D01*
X12892920Y-15340484D02*
X12892920Y-15207150D01*
X12892920Y-15226198D02*
X12902443Y-15216674D01*
X12902443Y-15216674D02*
X12921491Y-15207150D01*
X12921491Y-15207150D02*
X12950063Y-15207150D01*
X12950063Y-15207150D02*
X12969110Y-15216674D01*
X12969110Y-15216674D02*
X12978634Y-15235722D01*
X12978634Y-15235722D02*
X12978634Y-15340484D01*
X12978634Y-15235722D02*
X12988158Y-15216674D01*
X12988158Y-15216674D02*
X13007205Y-15207150D01*
X13007205Y-15207150D02*
X13035777Y-15207150D01*
X13035777Y-15207150D02*
X13054824Y-15216674D01*
X13054824Y-15216674D02*
X13064348Y-15235722D01*
X13064348Y-15235722D02*
X13064348Y-15340484D01*
X13159586Y-15340484D02*
X13159586Y-15207150D01*
X13159586Y-15226198D02*
X13169110Y-15216674D01*
X13169110Y-15216674D02*
X13188158Y-15207150D01*
X13188158Y-15207150D02*
X13216729Y-15207150D01*
X13216729Y-15207150D02*
X13235777Y-15216674D01*
X13235777Y-15216674D02*
X13245301Y-15235722D01*
X13245301Y-15235722D02*
X13245301Y-15340484D01*
X13245301Y-15235722D02*
X13254824Y-15216674D01*
X13254824Y-15216674D02*
X13273872Y-15207150D01*
X13273872Y-15207150D02*
X13302443Y-15207150D01*
X13302443Y-15207150D02*
X13321491Y-15216674D01*
X13321491Y-15216674D02*
X13331015Y-15235722D01*
X13331015Y-15235722D02*
X13331015Y-15340484D01*
X13721491Y-15130960D02*
X13550063Y-15388103D01*
X13978634Y-15140484D02*
X13997682Y-15140484D01*
X13997682Y-15140484D02*
X14016729Y-15150008D01*
X14016729Y-15150008D02*
X14026253Y-15159531D01*
X14026253Y-15159531D02*
X14035777Y-15178579D01*
X14035777Y-15178579D02*
X14045301Y-15216674D01*
X14045301Y-15216674D02*
X14045301Y-15264293D01*
X14045301Y-15264293D02*
X14035777Y-15302388D01*
X14035777Y-15302388D02*
X14026253Y-15321436D01*
X14026253Y-15321436D02*
X14016729Y-15330960D01*
X14016729Y-15330960D02*
X13997682Y-15340484D01*
X13997682Y-15340484D02*
X13978634Y-15340484D01*
X13978634Y-15340484D02*
X13959586Y-15330960D01*
X13959586Y-15330960D02*
X13950063Y-15321436D01*
X13950063Y-15321436D02*
X13940539Y-15302388D01*
X13940539Y-15302388D02*
X13931015Y-15264293D01*
X13931015Y-15264293D02*
X13931015Y-15216674D01*
X13931015Y-15216674D02*
X13940539Y-15178579D01*
X13940539Y-15178579D02*
X13950063Y-15159531D01*
X13950063Y-15159531D02*
X13959586Y-15150008D01*
X13959586Y-15150008D02*
X13978634Y-15140484D01*
X14131015Y-15321436D02*
X14140539Y-15330960D01*
X14140539Y-15330960D02*
X14131015Y-15340484D01*
X14131015Y-15340484D02*
X14121491Y-15330960D01*
X14121491Y-15330960D02*
X14131015Y-15321436D01*
X14131015Y-15321436D02*
X14131015Y-15340484D01*
X14264348Y-15140484D02*
X14283396Y-15140484D01*
X14283396Y-15140484D02*
X14302444Y-15150008D01*
X14302444Y-15150008D02*
X14311967Y-15159531D01*
X14311967Y-15159531D02*
X14321491Y-15178579D01*
X14321491Y-15178579D02*
X14331015Y-15216674D01*
X14331015Y-15216674D02*
X14331015Y-15264293D01*
X14331015Y-15264293D02*
X14321491Y-15302388D01*
X14321491Y-15302388D02*
X14311967Y-15321436D01*
X14311967Y-15321436D02*
X14302444Y-15330960D01*
X14302444Y-15330960D02*
X14283396Y-15340484D01*
X14283396Y-15340484D02*
X14264348Y-15340484D01*
X14264348Y-15340484D02*
X14245301Y-15330960D01*
X14245301Y-15330960D02*
X14235777Y-15321436D01*
X14235777Y-15321436D02*
X14226253Y-15302388D01*
X14226253Y-15302388D02*
X14216729Y-15264293D01*
X14216729Y-15264293D02*
X14216729Y-15216674D01*
X14216729Y-15216674D02*
X14226253Y-15178579D01*
X14226253Y-15178579D02*
X14235777Y-15159531D01*
X14235777Y-15159531D02*
X14245301Y-15150008D01*
X14245301Y-15150008D02*
X14264348Y-15140484D01*
X14397682Y-15140484D02*
X14521491Y-15140484D01*
X14521491Y-15140484D02*
X14454825Y-15216674D01*
X14454825Y-15216674D02*
X14483396Y-15216674D01*
X14483396Y-15216674D02*
X14502444Y-15226198D01*
X14502444Y-15226198D02*
X14511967Y-15235722D01*
X14511967Y-15235722D02*
X14521491Y-15254769D01*
X14521491Y-15254769D02*
X14521491Y-15302388D01*
X14521491Y-15302388D02*
X14511967Y-15321436D01*
X14511967Y-15321436D02*
X14502444Y-15330960D01*
X14502444Y-15330960D02*
X14483396Y-15340484D01*
X14483396Y-15340484D02*
X14426253Y-15340484D01*
X14426253Y-15340484D02*
X14407206Y-15330960D01*
X14407206Y-15330960D02*
X14397682Y-15321436D01*
X14616729Y-15340484D02*
X14654825Y-15340484D01*
X14654825Y-15340484D02*
X14673872Y-15330960D01*
X14673872Y-15330960D02*
X14683396Y-15321436D01*
X14683396Y-15321436D02*
X14702444Y-15292865D01*
X14702444Y-15292865D02*
X14711967Y-15254769D01*
X14711967Y-15254769D02*
X14711967Y-15178579D01*
X14711967Y-15178579D02*
X14702444Y-15159531D01*
X14702444Y-15159531D02*
X14692920Y-15150008D01*
X14692920Y-15150008D02*
X14673872Y-15140484D01*
X14673872Y-15140484D02*
X14635777Y-15140484D01*
X14635777Y-15140484D02*
X14616729Y-15150008D01*
X14616729Y-15150008D02*
X14607206Y-15159531D01*
X14607206Y-15159531D02*
X14597682Y-15178579D01*
X14597682Y-15178579D02*
X14597682Y-15226198D01*
X14597682Y-15226198D02*
X14607206Y-15245246D01*
X14607206Y-15245246D02*
X14616729Y-15254769D01*
X14616729Y-15254769D02*
X14635777Y-15264293D01*
X14635777Y-15264293D02*
X14673872Y-15264293D01*
X14673872Y-15264293D02*
X14692920Y-15254769D01*
X14692920Y-15254769D02*
X14702444Y-15245246D01*
X14702444Y-15245246D02*
X14711967Y-15226198D01*
X14883396Y-15207150D02*
X14883396Y-15340484D01*
X14835777Y-15130960D02*
X14788158Y-15273817D01*
X14788158Y-15273817D02*
X14911967Y-15273817D01*
X14978634Y-15140484D02*
X14978634Y-15178579D01*
X15054825Y-15140484D02*
X15054825Y-15178579D01*
X15350063Y-15416674D02*
X15340539Y-15407150D01*
X15340539Y-15407150D02*
X15321491Y-15378579D01*
X15321491Y-15378579D02*
X15311968Y-15359531D01*
X15311968Y-15359531D02*
X15302444Y-15330960D01*
X15302444Y-15330960D02*
X15292920Y-15283341D01*
X15292920Y-15283341D02*
X15292920Y-15245246D01*
X15292920Y-15245246D02*
X15302444Y-15197627D01*
X15302444Y-15197627D02*
X15311968Y-15169055D01*
X15311968Y-15169055D02*
X15321491Y-15150008D01*
X15321491Y-15150008D02*
X15340539Y-15121436D01*
X15340539Y-15121436D02*
X15350063Y-15111912D01*
X15416729Y-15159531D02*
X15426253Y-15150008D01*
X15426253Y-15150008D02*
X15445301Y-15140484D01*
X15445301Y-15140484D02*
X15492920Y-15140484D01*
X15492920Y-15140484D02*
X15511968Y-15150008D01*
X15511968Y-15150008D02*
X15521491Y-15159531D01*
X15521491Y-15159531D02*
X15531015Y-15178579D01*
X15531015Y-15178579D02*
X15531015Y-15197627D01*
X15531015Y-15197627D02*
X15521491Y-15226198D01*
X15521491Y-15226198D02*
X15407206Y-15340484D01*
X15407206Y-15340484D02*
X15531015Y-15340484D01*
X15654825Y-15140484D02*
X15673872Y-15140484D01*
X15673872Y-15140484D02*
X15692920Y-15150008D01*
X15692920Y-15150008D02*
X15702444Y-15159531D01*
X15702444Y-15159531D02*
X15711968Y-15178579D01*
X15711968Y-15178579D02*
X15721491Y-15216674D01*
X15721491Y-15216674D02*
X15721491Y-15264293D01*
X15721491Y-15264293D02*
X15711968Y-15302388D01*
X15711968Y-15302388D02*
X15702444Y-15321436D01*
X15702444Y-15321436D02*
X15692920Y-15330960D01*
X15692920Y-15330960D02*
X15673872Y-15340484D01*
X15673872Y-15340484D02*
X15654825Y-15340484D01*
X15654825Y-15340484D02*
X15635777Y-15330960D01*
X15635777Y-15330960D02*
X15626253Y-15321436D01*
X15626253Y-15321436D02*
X15616729Y-15302388D01*
X15616729Y-15302388D02*
X15607206Y-15264293D01*
X15607206Y-15264293D02*
X15607206Y-15216674D01*
X15607206Y-15216674D02*
X15616729Y-15178579D01*
X15616729Y-15178579D02*
X15626253Y-15159531D01*
X15626253Y-15159531D02*
X15635777Y-15150008D01*
X15635777Y-15150008D02*
X15654825Y-15140484D01*
X15959587Y-15340484D02*
X15959587Y-15140484D01*
X16045301Y-15340484D02*
X16045301Y-15235722D01*
X16045301Y-15235722D02*
X16035777Y-15216674D01*
X16035777Y-15216674D02*
X16016730Y-15207150D01*
X16016730Y-15207150D02*
X15988158Y-15207150D01*
X15988158Y-15207150D02*
X15969110Y-15216674D01*
X15969110Y-15216674D02*
X15959587Y-15226198D01*
X16169110Y-15340484D02*
X16150063Y-15330960D01*
X16150063Y-15330960D02*
X16140539Y-15321436D01*
X16140539Y-15321436D02*
X16131015Y-15302388D01*
X16131015Y-15302388D02*
X16131015Y-15245246D01*
X16131015Y-15245246D02*
X16140539Y-15226198D01*
X16140539Y-15226198D02*
X16150063Y-15216674D01*
X16150063Y-15216674D02*
X16169110Y-15207150D01*
X16169110Y-15207150D02*
X16197682Y-15207150D01*
X16197682Y-15207150D02*
X16216730Y-15216674D01*
X16216730Y-15216674D02*
X16226253Y-15226198D01*
X16226253Y-15226198D02*
X16235777Y-15245246D01*
X16235777Y-15245246D02*
X16235777Y-15302388D01*
X16235777Y-15302388D02*
X16226253Y-15321436D01*
X16226253Y-15321436D02*
X16216730Y-15330960D01*
X16216730Y-15330960D02*
X16197682Y-15340484D01*
X16197682Y-15340484D02*
X16169110Y-15340484D01*
X16350063Y-15340484D02*
X16331015Y-15330960D01*
X16331015Y-15330960D02*
X16321491Y-15311912D01*
X16321491Y-15311912D02*
X16321491Y-15140484D01*
X16502444Y-15330960D02*
X16483396Y-15340484D01*
X16483396Y-15340484D02*
X16445301Y-15340484D01*
X16445301Y-15340484D02*
X16426253Y-15330960D01*
X16426253Y-15330960D02*
X16416730Y-15311912D01*
X16416730Y-15311912D02*
X16416730Y-15235722D01*
X16416730Y-15235722D02*
X16426253Y-15216674D01*
X16426253Y-15216674D02*
X16445301Y-15207150D01*
X16445301Y-15207150D02*
X16483396Y-15207150D01*
X16483396Y-15207150D02*
X16502444Y-15216674D01*
X16502444Y-15216674D02*
X16511968Y-15235722D01*
X16511968Y-15235722D02*
X16511968Y-15254769D01*
X16511968Y-15254769D02*
X16416730Y-15273817D01*
X16588158Y-15330960D02*
X16607206Y-15340484D01*
X16607206Y-15340484D02*
X16645301Y-15340484D01*
X16645301Y-15340484D02*
X16664349Y-15330960D01*
X16664349Y-15330960D02*
X16673872Y-15311912D01*
X16673872Y-15311912D02*
X16673872Y-15302388D01*
X16673872Y-15302388D02*
X16664349Y-15283341D01*
X16664349Y-15283341D02*
X16645301Y-15273817D01*
X16645301Y-15273817D02*
X16616730Y-15273817D01*
X16616730Y-15273817D02*
X16597682Y-15264293D01*
X16597682Y-15264293D02*
X16588158Y-15245246D01*
X16588158Y-15245246D02*
X16588158Y-15235722D01*
X16588158Y-15235722D02*
X16597682Y-15216674D01*
X16597682Y-15216674D02*
X16616730Y-15207150D01*
X16616730Y-15207150D02*
X16645301Y-15207150D01*
X16645301Y-15207150D02*
X16664349Y-15216674D01*
X16911968Y-15264293D02*
X17064349Y-15264293D01*
X16988158Y-15340484D02*
X16988158Y-15188103D01*
X17292920Y-15140484D02*
X17416730Y-15140484D01*
X17416730Y-15140484D02*
X17350063Y-15216674D01*
X17350063Y-15216674D02*
X17378635Y-15216674D01*
X17378635Y-15216674D02*
X17397682Y-15226198D01*
X17397682Y-15226198D02*
X17407206Y-15235722D01*
X17407206Y-15235722D02*
X17416730Y-15254769D01*
X17416730Y-15254769D02*
X17416730Y-15302388D01*
X17416730Y-15302388D02*
X17407206Y-15321436D01*
X17407206Y-15321436D02*
X17397682Y-15330960D01*
X17397682Y-15330960D02*
X17378635Y-15340484D01*
X17378635Y-15340484D02*
X17321492Y-15340484D01*
X17321492Y-15340484D02*
X17302444Y-15330960D01*
X17302444Y-15330960D02*
X17292920Y-15321436D01*
X17645301Y-15330960D02*
X17664349Y-15340484D01*
X17664349Y-15340484D02*
X17702444Y-15340484D01*
X17702444Y-15340484D02*
X17721492Y-15330960D01*
X17721492Y-15330960D02*
X17731016Y-15311912D01*
X17731016Y-15311912D02*
X17731016Y-15302388D01*
X17731016Y-15302388D02*
X17721492Y-15283341D01*
X17721492Y-15283341D02*
X17702444Y-15273817D01*
X17702444Y-15273817D02*
X17673873Y-15273817D01*
X17673873Y-15273817D02*
X17654825Y-15264293D01*
X17654825Y-15264293D02*
X17645301Y-15245246D01*
X17645301Y-15245246D02*
X17645301Y-15235722D01*
X17645301Y-15235722D02*
X17654825Y-15216674D01*
X17654825Y-15216674D02*
X17673873Y-15207150D01*
X17673873Y-15207150D02*
X17702444Y-15207150D01*
X17702444Y-15207150D02*
X17721492Y-15216674D01*
X17845301Y-15340484D02*
X17826254Y-15330960D01*
X17826254Y-15330960D02*
X17816730Y-15311912D01*
X17816730Y-15311912D02*
X17816730Y-15140484D01*
X17950063Y-15340484D02*
X17931016Y-15330960D01*
X17931016Y-15330960D02*
X17921492Y-15321436D01*
X17921492Y-15321436D02*
X17911968Y-15302388D01*
X17911968Y-15302388D02*
X17911968Y-15245246D01*
X17911968Y-15245246D02*
X17921492Y-15226198D01*
X17921492Y-15226198D02*
X17931016Y-15216674D01*
X17931016Y-15216674D02*
X17950063Y-15207150D01*
X17950063Y-15207150D02*
X17978635Y-15207150D01*
X17978635Y-15207150D02*
X17997682Y-15216674D01*
X17997682Y-15216674D02*
X18007206Y-15226198D01*
X18007206Y-15226198D02*
X18016730Y-15245246D01*
X18016730Y-15245246D02*
X18016730Y-15302388D01*
X18016730Y-15302388D02*
X18007206Y-15321436D01*
X18007206Y-15321436D02*
X17997682Y-15330960D01*
X17997682Y-15330960D02*
X17978635Y-15340484D01*
X17978635Y-15340484D02*
X17950063Y-15340484D01*
X18073873Y-15207150D02*
X18150063Y-15207150D01*
X18102444Y-15140484D02*
X18102444Y-15311912D01*
X18102444Y-15311912D02*
X18111968Y-15330960D01*
X18111968Y-15330960D02*
X18131016Y-15340484D01*
X18131016Y-15340484D02*
X18150063Y-15340484D01*
X18207206Y-15330960D02*
X18226254Y-15340484D01*
X18226254Y-15340484D02*
X18264349Y-15340484D01*
X18264349Y-15340484D02*
X18283397Y-15330960D01*
X18283397Y-15330960D02*
X18292920Y-15311912D01*
X18292920Y-15311912D02*
X18292920Y-15302388D01*
X18292920Y-15302388D02*
X18283397Y-15283341D01*
X18283397Y-15283341D02*
X18264349Y-15273817D01*
X18264349Y-15273817D02*
X18235777Y-15273817D01*
X18235777Y-15273817D02*
X18216730Y-15264293D01*
X18216730Y-15264293D02*
X18207206Y-15245246D01*
X18207206Y-15245246D02*
X18207206Y-15235722D01*
X18207206Y-15235722D02*
X18216730Y-15216674D01*
X18216730Y-15216674D02*
X18235777Y-15207150D01*
X18235777Y-15207150D02*
X18264349Y-15207150D01*
X18264349Y-15207150D02*
X18283397Y-15216674D01*
X18359587Y-15416674D02*
X18369111Y-15407150D01*
X18369111Y-15407150D02*
X18388158Y-15378579D01*
X18388158Y-15378579D02*
X18397682Y-15359531D01*
X18397682Y-15359531D02*
X18407206Y-15330960D01*
X18407206Y-15330960D02*
X18416730Y-15283341D01*
X18416730Y-15283341D02*
X18416730Y-15245246D01*
X18416730Y-15245246D02*
X18407206Y-15197627D01*
X18407206Y-15197627D02*
X18397682Y-15169055D01*
X18397682Y-15169055D02*
X18388158Y-15150008D01*
X18388158Y-15150008D02*
X18369111Y-15121436D01*
X18369111Y-15121436D02*
X18359587Y-15111912D01*
D19*
X11665000Y-15458000D02*
X11775000Y-15568000D01*
X11775000Y-15458000D02*
X11665000Y-15568000D01*
X11758891Y-15551891D02*
X11758891Y-15474109D01*
X11681109Y-15474109D01*
X11681109Y-15551891D01*
X11758891Y-15551891D01*
D11*
X12140539Y-15604484D02*
X12026253Y-15604484D01*
X12083396Y-15604484D02*
X12083396Y-15404484D01*
X12083396Y-15404484D02*
X12064348Y-15433055D01*
X12064348Y-15433055D02*
X12045301Y-15452103D01*
X12045301Y-15452103D02*
X12026253Y-15461627D01*
X12226253Y-15585436D02*
X12235777Y-15594960D01*
X12235777Y-15594960D02*
X12226253Y-15604484D01*
X12226253Y-15604484D02*
X12216729Y-15594960D01*
X12216729Y-15594960D02*
X12226253Y-15585436D01*
X12226253Y-15585436D02*
X12226253Y-15604484D01*
X12426253Y-15604484D02*
X12311967Y-15604484D01*
X12369110Y-15604484D02*
X12369110Y-15404484D01*
X12369110Y-15404484D02*
X12350062Y-15433055D01*
X12350062Y-15433055D02*
X12331015Y-15452103D01*
X12331015Y-15452103D02*
X12311967Y-15461627D01*
X12550062Y-15404484D02*
X12569110Y-15404484D01*
X12569110Y-15404484D02*
X12588158Y-15414008D01*
X12588158Y-15414008D02*
X12597682Y-15423531D01*
X12597682Y-15423531D02*
X12607205Y-15442579D01*
X12607205Y-15442579D02*
X12616729Y-15480674D01*
X12616729Y-15480674D02*
X12616729Y-15528293D01*
X12616729Y-15528293D02*
X12607205Y-15566388D01*
X12607205Y-15566388D02*
X12597682Y-15585436D01*
X12597682Y-15585436D02*
X12588158Y-15594960D01*
X12588158Y-15594960D02*
X12569110Y-15604484D01*
X12569110Y-15604484D02*
X12550062Y-15604484D01*
X12550062Y-15604484D02*
X12531015Y-15594960D01*
X12531015Y-15594960D02*
X12521491Y-15585436D01*
X12521491Y-15585436D02*
X12511967Y-15566388D01*
X12511967Y-15566388D02*
X12502443Y-15528293D01*
X12502443Y-15528293D02*
X12502443Y-15480674D01*
X12502443Y-15480674D02*
X12511967Y-15442579D01*
X12511967Y-15442579D02*
X12521491Y-15423531D01*
X12521491Y-15423531D02*
X12531015Y-15414008D01*
X12531015Y-15414008D02*
X12550062Y-15404484D01*
X12740539Y-15404484D02*
X12759586Y-15404484D01*
X12759586Y-15404484D02*
X12778634Y-15414008D01*
X12778634Y-15414008D02*
X12788158Y-15423531D01*
X12788158Y-15423531D02*
X12797682Y-15442579D01*
X12797682Y-15442579D02*
X12807205Y-15480674D01*
X12807205Y-15480674D02*
X12807205Y-15528293D01*
X12807205Y-15528293D02*
X12797682Y-15566388D01*
X12797682Y-15566388D02*
X12788158Y-15585436D01*
X12788158Y-15585436D02*
X12778634Y-15594960D01*
X12778634Y-15594960D02*
X12759586Y-15604484D01*
X12759586Y-15604484D02*
X12740539Y-15604484D01*
X12740539Y-15604484D02*
X12721491Y-15594960D01*
X12721491Y-15594960D02*
X12711967Y-15585436D01*
X12711967Y-15585436D02*
X12702443Y-15566388D01*
X12702443Y-15566388D02*
X12692920Y-15528293D01*
X12692920Y-15528293D02*
X12692920Y-15480674D01*
X12692920Y-15480674D02*
X12702443Y-15442579D01*
X12702443Y-15442579D02*
X12711967Y-15423531D01*
X12711967Y-15423531D02*
X12721491Y-15414008D01*
X12721491Y-15414008D02*
X12740539Y-15404484D01*
X12892920Y-15604484D02*
X12892920Y-15471150D01*
X12892920Y-15490198D02*
X12902443Y-15480674D01*
X12902443Y-15480674D02*
X12921491Y-15471150D01*
X12921491Y-15471150D02*
X12950063Y-15471150D01*
X12950063Y-15471150D02*
X12969110Y-15480674D01*
X12969110Y-15480674D02*
X12978634Y-15499722D01*
X12978634Y-15499722D02*
X12978634Y-15604484D01*
X12978634Y-15499722D02*
X12988158Y-15480674D01*
X12988158Y-15480674D02*
X13007205Y-15471150D01*
X13007205Y-15471150D02*
X13035777Y-15471150D01*
X13035777Y-15471150D02*
X13054824Y-15480674D01*
X13054824Y-15480674D02*
X13064348Y-15499722D01*
X13064348Y-15499722D02*
X13064348Y-15604484D01*
X13159586Y-15604484D02*
X13159586Y-15471150D01*
X13159586Y-15490198D02*
X13169110Y-15480674D01*
X13169110Y-15480674D02*
X13188158Y-15471150D01*
X13188158Y-15471150D02*
X13216729Y-15471150D01*
X13216729Y-15471150D02*
X13235777Y-15480674D01*
X13235777Y-15480674D02*
X13245301Y-15499722D01*
X13245301Y-15499722D02*
X13245301Y-15604484D01*
X13245301Y-15499722D02*
X13254824Y-15480674D01*
X13254824Y-15480674D02*
X13273872Y-15471150D01*
X13273872Y-15471150D02*
X13302443Y-15471150D01*
X13302443Y-15471150D02*
X13321491Y-15480674D01*
X13321491Y-15480674D02*
X13331015Y-15499722D01*
X13331015Y-15499722D02*
X13331015Y-15604484D01*
X13721491Y-15394960D02*
X13550063Y-15652103D01*
X13978634Y-15404484D02*
X13997682Y-15404484D01*
X13997682Y-15404484D02*
X14016729Y-15414008D01*
X14016729Y-15414008D02*
X14026253Y-15423531D01*
X14026253Y-15423531D02*
X14035777Y-15442579D01*
X14035777Y-15442579D02*
X14045301Y-15480674D01*
X14045301Y-15480674D02*
X14045301Y-15528293D01*
X14045301Y-15528293D02*
X14035777Y-15566388D01*
X14035777Y-15566388D02*
X14026253Y-15585436D01*
X14026253Y-15585436D02*
X14016729Y-15594960D01*
X14016729Y-15594960D02*
X13997682Y-15604484D01*
X13997682Y-15604484D02*
X13978634Y-15604484D01*
X13978634Y-15604484D02*
X13959586Y-15594960D01*
X13959586Y-15594960D02*
X13950063Y-15585436D01*
X13950063Y-15585436D02*
X13940539Y-15566388D01*
X13940539Y-15566388D02*
X13931015Y-15528293D01*
X13931015Y-15528293D02*
X13931015Y-15480674D01*
X13931015Y-15480674D02*
X13940539Y-15442579D01*
X13940539Y-15442579D02*
X13950063Y-15423531D01*
X13950063Y-15423531D02*
X13959586Y-15414008D01*
X13959586Y-15414008D02*
X13978634Y-15404484D01*
X14131015Y-15585436D02*
X14140539Y-15594960D01*
X14140539Y-15594960D02*
X14131015Y-15604484D01*
X14131015Y-15604484D02*
X14121491Y-15594960D01*
X14121491Y-15594960D02*
X14131015Y-15585436D01*
X14131015Y-15585436D02*
X14131015Y-15604484D01*
X14264348Y-15404484D02*
X14283396Y-15404484D01*
X14283396Y-15404484D02*
X14302444Y-15414008D01*
X14302444Y-15414008D02*
X14311967Y-15423531D01*
X14311967Y-15423531D02*
X14321491Y-15442579D01*
X14321491Y-15442579D02*
X14331015Y-15480674D01*
X14331015Y-15480674D02*
X14331015Y-15528293D01*
X14331015Y-15528293D02*
X14321491Y-15566388D01*
X14321491Y-15566388D02*
X14311967Y-15585436D01*
X14311967Y-15585436D02*
X14302444Y-15594960D01*
X14302444Y-15594960D02*
X14283396Y-15604484D01*
X14283396Y-15604484D02*
X14264348Y-15604484D01*
X14264348Y-15604484D02*
X14245301Y-15594960D01*
X14245301Y-15594960D02*
X14235777Y-15585436D01*
X14235777Y-15585436D02*
X14226253Y-15566388D01*
X14226253Y-15566388D02*
X14216729Y-15528293D01*
X14216729Y-15528293D02*
X14216729Y-15480674D01*
X14216729Y-15480674D02*
X14226253Y-15442579D01*
X14226253Y-15442579D02*
X14235777Y-15423531D01*
X14235777Y-15423531D02*
X14245301Y-15414008D01*
X14245301Y-15414008D02*
X14264348Y-15404484D01*
X14502444Y-15471150D02*
X14502444Y-15604484D01*
X14454825Y-15394960D02*
X14407206Y-15537817D01*
X14407206Y-15537817D02*
X14531015Y-15537817D01*
X14588158Y-15404484D02*
X14711967Y-15404484D01*
X14711967Y-15404484D02*
X14645301Y-15480674D01*
X14645301Y-15480674D02*
X14673872Y-15480674D01*
X14673872Y-15480674D02*
X14692920Y-15490198D01*
X14692920Y-15490198D02*
X14702444Y-15499722D01*
X14702444Y-15499722D02*
X14711967Y-15518769D01*
X14711967Y-15518769D02*
X14711967Y-15566388D01*
X14711967Y-15566388D02*
X14702444Y-15585436D01*
X14702444Y-15585436D02*
X14692920Y-15594960D01*
X14692920Y-15594960D02*
X14673872Y-15604484D01*
X14673872Y-15604484D02*
X14616729Y-15604484D01*
X14616729Y-15604484D02*
X14597682Y-15594960D01*
X14597682Y-15594960D02*
X14588158Y-15585436D01*
X14778634Y-15404484D02*
X14902444Y-15404484D01*
X14902444Y-15404484D02*
X14835777Y-15480674D01*
X14835777Y-15480674D02*
X14864348Y-15480674D01*
X14864348Y-15480674D02*
X14883396Y-15490198D01*
X14883396Y-15490198D02*
X14892920Y-15499722D01*
X14892920Y-15499722D02*
X14902444Y-15518769D01*
X14902444Y-15518769D02*
X14902444Y-15566388D01*
X14902444Y-15566388D02*
X14892920Y-15585436D01*
X14892920Y-15585436D02*
X14883396Y-15594960D01*
X14883396Y-15594960D02*
X14864348Y-15604484D01*
X14864348Y-15604484D02*
X14807206Y-15604484D01*
X14807206Y-15604484D02*
X14788158Y-15594960D01*
X14788158Y-15594960D02*
X14778634Y-15585436D01*
X14978634Y-15404484D02*
X14978634Y-15442579D01*
X15054825Y-15404484D02*
X15054825Y-15442579D01*
X15350063Y-15680674D02*
X15340539Y-15671150D01*
X15340539Y-15671150D02*
X15321491Y-15642579D01*
X15321491Y-15642579D02*
X15311968Y-15623531D01*
X15311968Y-15623531D02*
X15302444Y-15594960D01*
X15302444Y-15594960D02*
X15292920Y-15547341D01*
X15292920Y-15547341D02*
X15292920Y-15509246D01*
X15292920Y-15509246D02*
X15302444Y-15461627D01*
X15302444Y-15461627D02*
X15311968Y-15433055D01*
X15311968Y-15433055D02*
X15321491Y-15414008D01*
X15321491Y-15414008D02*
X15340539Y-15385436D01*
X15340539Y-15385436D02*
X15350063Y-15375912D01*
X15407206Y-15404484D02*
X15531015Y-15404484D01*
X15531015Y-15404484D02*
X15464348Y-15480674D01*
X15464348Y-15480674D02*
X15492920Y-15480674D01*
X15492920Y-15480674D02*
X15511968Y-15490198D01*
X15511968Y-15490198D02*
X15521491Y-15499722D01*
X15521491Y-15499722D02*
X15531015Y-15518769D01*
X15531015Y-15518769D02*
X15531015Y-15566388D01*
X15531015Y-15566388D02*
X15521491Y-15585436D01*
X15521491Y-15585436D02*
X15511968Y-15594960D01*
X15511968Y-15594960D02*
X15492920Y-15604484D01*
X15492920Y-15604484D02*
X15435777Y-15604484D01*
X15435777Y-15604484D02*
X15416729Y-15594960D01*
X15416729Y-15594960D02*
X15407206Y-15585436D01*
X15769110Y-15604484D02*
X15769110Y-15404484D01*
X15854825Y-15604484D02*
X15854825Y-15499722D01*
X15854825Y-15499722D02*
X15845301Y-15480674D01*
X15845301Y-15480674D02*
X15826253Y-15471150D01*
X15826253Y-15471150D02*
X15797682Y-15471150D01*
X15797682Y-15471150D02*
X15778634Y-15480674D01*
X15778634Y-15480674D02*
X15769110Y-15490198D01*
X15978634Y-15604484D02*
X15959587Y-15594960D01*
X15959587Y-15594960D02*
X15950063Y-15585436D01*
X15950063Y-15585436D02*
X15940539Y-15566388D01*
X15940539Y-15566388D02*
X15940539Y-15509246D01*
X15940539Y-15509246D02*
X15950063Y-15490198D01*
X15950063Y-15490198D02*
X15959587Y-15480674D01*
X15959587Y-15480674D02*
X15978634Y-15471150D01*
X15978634Y-15471150D02*
X16007206Y-15471150D01*
X16007206Y-15471150D02*
X16026253Y-15480674D01*
X16026253Y-15480674D02*
X16035777Y-15490198D01*
X16035777Y-15490198D02*
X16045301Y-15509246D01*
X16045301Y-15509246D02*
X16045301Y-15566388D01*
X16045301Y-15566388D02*
X16035777Y-15585436D01*
X16035777Y-15585436D02*
X16026253Y-15594960D01*
X16026253Y-15594960D02*
X16007206Y-15604484D01*
X16007206Y-15604484D02*
X15978634Y-15604484D01*
X16159587Y-15604484D02*
X16140539Y-15594960D01*
X16140539Y-15594960D02*
X16131015Y-15575912D01*
X16131015Y-15575912D02*
X16131015Y-15404484D01*
X16311968Y-15594960D02*
X16292920Y-15604484D01*
X16292920Y-15604484D02*
X16254825Y-15604484D01*
X16254825Y-15604484D02*
X16235777Y-15594960D01*
X16235777Y-15594960D02*
X16226253Y-15575912D01*
X16226253Y-15575912D02*
X16226253Y-15499722D01*
X16226253Y-15499722D02*
X16235777Y-15480674D01*
X16235777Y-15480674D02*
X16254825Y-15471150D01*
X16254825Y-15471150D02*
X16292920Y-15471150D01*
X16292920Y-15471150D02*
X16311968Y-15480674D01*
X16311968Y-15480674D02*
X16321491Y-15499722D01*
X16321491Y-15499722D02*
X16321491Y-15518769D01*
X16321491Y-15518769D02*
X16226253Y-15537817D01*
X16397682Y-15594960D02*
X16416730Y-15604484D01*
X16416730Y-15604484D02*
X16454825Y-15604484D01*
X16454825Y-15604484D02*
X16473872Y-15594960D01*
X16473872Y-15594960D02*
X16483396Y-15575912D01*
X16483396Y-15575912D02*
X16483396Y-15566388D01*
X16483396Y-15566388D02*
X16473872Y-15547341D01*
X16473872Y-15547341D02*
X16454825Y-15537817D01*
X16454825Y-15537817D02*
X16426253Y-15537817D01*
X16426253Y-15537817D02*
X16407206Y-15528293D01*
X16407206Y-15528293D02*
X16397682Y-15509246D01*
X16397682Y-15509246D02*
X16397682Y-15499722D01*
X16397682Y-15499722D02*
X16407206Y-15480674D01*
X16407206Y-15480674D02*
X16426253Y-15471150D01*
X16426253Y-15471150D02*
X16454825Y-15471150D01*
X16454825Y-15471150D02*
X16473872Y-15480674D01*
X16550063Y-15680674D02*
X16559587Y-15671150D01*
X16559587Y-15671150D02*
X16578634Y-15642579D01*
X16578634Y-15642579D02*
X16588158Y-15623531D01*
X16588158Y-15623531D02*
X16597682Y-15594960D01*
X16597682Y-15594960D02*
X16607206Y-15547341D01*
X16607206Y-15547341D02*
X16607206Y-15509246D01*
X16607206Y-15509246D02*
X16597682Y-15461627D01*
X16597682Y-15461627D02*
X16588158Y-15433055D01*
X16588158Y-15433055D02*
X16578634Y-15414008D01*
X16578634Y-15414008D02*
X16559587Y-15385436D01*
X16559587Y-15385436D02*
X16550063Y-15375912D01*
D20*
X11645000Y-15712000D02*
X11775000Y-15842000D01*
X11775000Y-15712000D02*
X11645000Y-15842000D01*
X11710000Y-15842000D02*
X11775000Y-15777000D01*
X11710000Y-15712000D01*
X11645000Y-15777000D01*
X11710000Y-15842000D01*
D11*
X12140539Y-15868484D02*
X12026253Y-15868484D01*
X12083396Y-15868484D02*
X12083396Y-15668484D01*
X12083396Y-15668484D02*
X12064348Y-15697055D01*
X12064348Y-15697055D02*
X12045301Y-15716103D01*
X12045301Y-15716103D02*
X12026253Y-15725627D01*
X12226253Y-15849436D02*
X12235777Y-15858960D01*
X12235777Y-15858960D02*
X12226253Y-15868484D01*
X12226253Y-15868484D02*
X12216729Y-15858960D01*
X12216729Y-15858960D02*
X12226253Y-15849436D01*
X12226253Y-15849436D02*
X12226253Y-15868484D01*
X12302443Y-15668484D02*
X12426253Y-15668484D01*
X12426253Y-15668484D02*
X12359586Y-15744674D01*
X12359586Y-15744674D02*
X12388158Y-15744674D01*
X12388158Y-15744674D02*
X12407205Y-15754198D01*
X12407205Y-15754198D02*
X12416729Y-15763722D01*
X12416729Y-15763722D02*
X12426253Y-15782769D01*
X12426253Y-15782769D02*
X12426253Y-15830388D01*
X12426253Y-15830388D02*
X12416729Y-15849436D01*
X12416729Y-15849436D02*
X12407205Y-15858960D01*
X12407205Y-15858960D02*
X12388158Y-15868484D01*
X12388158Y-15868484D02*
X12331015Y-15868484D01*
X12331015Y-15868484D02*
X12311967Y-15858960D01*
X12311967Y-15858960D02*
X12302443Y-15849436D01*
X12550062Y-15668484D02*
X12569110Y-15668484D01*
X12569110Y-15668484D02*
X12588158Y-15678008D01*
X12588158Y-15678008D02*
X12597682Y-15687531D01*
X12597682Y-15687531D02*
X12607205Y-15706579D01*
X12607205Y-15706579D02*
X12616729Y-15744674D01*
X12616729Y-15744674D02*
X12616729Y-15792293D01*
X12616729Y-15792293D02*
X12607205Y-15830388D01*
X12607205Y-15830388D02*
X12597682Y-15849436D01*
X12597682Y-15849436D02*
X12588158Y-15858960D01*
X12588158Y-15858960D02*
X12569110Y-15868484D01*
X12569110Y-15868484D02*
X12550062Y-15868484D01*
X12550062Y-15868484D02*
X12531015Y-15858960D01*
X12531015Y-15858960D02*
X12521491Y-15849436D01*
X12521491Y-15849436D02*
X12511967Y-15830388D01*
X12511967Y-15830388D02*
X12502443Y-15792293D01*
X12502443Y-15792293D02*
X12502443Y-15744674D01*
X12502443Y-15744674D02*
X12511967Y-15706579D01*
X12511967Y-15706579D02*
X12521491Y-15687531D01*
X12521491Y-15687531D02*
X12531015Y-15678008D01*
X12531015Y-15678008D02*
X12550062Y-15668484D01*
X12740539Y-15668484D02*
X12759586Y-15668484D01*
X12759586Y-15668484D02*
X12778634Y-15678008D01*
X12778634Y-15678008D02*
X12788158Y-15687531D01*
X12788158Y-15687531D02*
X12797682Y-15706579D01*
X12797682Y-15706579D02*
X12807205Y-15744674D01*
X12807205Y-15744674D02*
X12807205Y-15792293D01*
X12807205Y-15792293D02*
X12797682Y-15830388D01*
X12797682Y-15830388D02*
X12788158Y-15849436D01*
X12788158Y-15849436D02*
X12778634Y-15858960D01*
X12778634Y-15858960D02*
X12759586Y-15868484D01*
X12759586Y-15868484D02*
X12740539Y-15868484D01*
X12740539Y-15868484D02*
X12721491Y-15858960D01*
X12721491Y-15858960D02*
X12711967Y-15849436D01*
X12711967Y-15849436D02*
X12702443Y-15830388D01*
X12702443Y-15830388D02*
X12692920Y-15792293D01*
X12692920Y-15792293D02*
X12692920Y-15744674D01*
X12692920Y-15744674D02*
X12702443Y-15706579D01*
X12702443Y-15706579D02*
X12711967Y-15687531D01*
X12711967Y-15687531D02*
X12721491Y-15678008D01*
X12721491Y-15678008D02*
X12740539Y-15668484D01*
X12892920Y-15868484D02*
X12892920Y-15735150D01*
X12892920Y-15754198D02*
X12902443Y-15744674D01*
X12902443Y-15744674D02*
X12921491Y-15735150D01*
X12921491Y-15735150D02*
X12950063Y-15735150D01*
X12950063Y-15735150D02*
X12969110Y-15744674D01*
X12969110Y-15744674D02*
X12978634Y-15763722D01*
X12978634Y-15763722D02*
X12978634Y-15868484D01*
X12978634Y-15763722D02*
X12988158Y-15744674D01*
X12988158Y-15744674D02*
X13007205Y-15735150D01*
X13007205Y-15735150D02*
X13035777Y-15735150D01*
X13035777Y-15735150D02*
X13054824Y-15744674D01*
X13054824Y-15744674D02*
X13064348Y-15763722D01*
X13064348Y-15763722D02*
X13064348Y-15868484D01*
X13159586Y-15868484D02*
X13159586Y-15735150D01*
X13159586Y-15754198D02*
X13169110Y-15744674D01*
X13169110Y-15744674D02*
X13188158Y-15735150D01*
X13188158Y-15735150D02*
X13216729Y-15735150D01*
X13216729Y-15735150D02*
X13235777Y-15744674D01*
X13235777Y-15744674D02*
X13245301Y-15763722D01*
X13245301Y-15763722D02*
X13245301Y-15868484D01*
X13245301Y-15763722D02*
X13254824Y-15744674D01*
X13254824Y-15744674D02*
X13273872Y-15735150D01*
X13273872Y-15735150D02*
X13302443Y-15735150D01*
X13302443Y-15735150D02*
X13321491Y-15744674D01*
X13321491Y-15744674D02*
X13331015Y-15763722D01*
X13331015Y-15763722D02*
X13331015Y-15868484D01*
X13721491Y-15658960D02*
X13550063Y-15916103D01*
X13978634Y-15668484D02*
X13997682Y-15668484D01*
X13997682Y-15668484D02*
X14016729Y-15678008D01*
X14016729Y-15678008D02*
X14026253Y-15687531D01*
X14026253Y-15687531D02*
X14035777Y-15706579D01*
X14035777Y-15706579D02*
X14045301Y-15744674D01*
X14045301Y-15744674D02*
X14045301Y-15792293D01*
X14045301Y-15792293D02*
X14035777Y-15830388D01*
X14035777Y-15830388D02*
X14026253Y-15849436D01*
X14026253Y-15849436D02*
X14016729Y-15858960D01*
X14016729Y-15858960D02*
X13997682Y-15868484D01*
X13997682Y-15868484D02*
X13978634Y-15868484D01*
X13978634Y-15868484D02*
X13959586Y-15858960D01*
X13959586Y-15858960D02*
X13950063Y-15849436D01*
X13950063Y-15849436D02*
X13940539Y-15830388D01*
X13940539Y-15830388D02*
X13931015Y-15792293D01*
X13931015Y-15792293D02*
X13931015Y-15744674D01*
X13931015Y-15744674D02*
X13940539Y-15706579D01*
X13940539Y-15706579D02*
X13950063Y-15687531D01*
X13950063Y-15687531D02*
X13959586Y-15678008D01*
X13959586Y-15678008D02*
X13978634Y-15668484D01*
X14131015Y-15849436D02*
X14140539Y-15858960D01*
X14140539Y-15858960D02*
X14131015Y-15868484D01*
X14131015Y-15868484D02*
X14121491Y-15858960D01*
X14121491Y-15858960D02*
X14131015Y-15849436D01*
X14131015Y-15849436D02*
X14131015Y-15868484D01*
X14264348Y-15668484D02*
X14283396Y-15668484D01*
X14283396Y-15668484D02*
X14302444Y-15678008D01*
X14302444Y-15678008D02*
X14311967Y-15687531D01*
X14311967Y-15687531D02*
X14321491Y-15706579D01*
X14321491Y-15706579D02*
X14331015Y-15744674D01*
X14331015Y-15744674D02*
X14331015Y-15792293D01*
X14331015Y-15792293D02*
X14321491Y-15830388D01*
X14321491Y-15830388D02*
X14311967Y-15849436D01*
X14311967Y-15849436D02*
X14302444Y-15858960D01*
X14302444Y-15858960D02*
X14283396Y-15868484D01*
X14283396Y-15868484D02*
X14264348Y-15868484D01*
X14264348Y-15868484D02*
X14245301Y-15858960D01*
X14245301Y-15858960D02*
X14235777Y-15849436D01*
X14235777Y-15849436D02*
X14226253Y-15830388D01*
X14226253Y-15830388D02*
X14216729Y-15792293D01*
X14216729Y-15792293D02*
X14216729Y-15744674D01*
X14216729Y-15744674D02*
X14226253Y-15706579D01*
X14226253Y-15706579D02*
X14235777Y-15687531D01*
X14235777Y-15687531D02*
X14245301Y-15678008D01*
X14245301Y-15678008D02*
X14264348Y-15668484D01*
X14511967Y-15668484D02*
X14416729Y-15668484D01*
X14416729Y-15668484D02*
X14407206Y-15763722D01*
X14407206Y-15763722D02*
X14416729Y-15754198D01*
X14416729Y-15754198D02*
X14435777Y-15744674D01*
X14435777Y-15744674D02*
X14483396Y-15744674D01*
X14483396Y-15744674D02*
X14502444Y-15754198D01*
X14502444Y-15754198D02*
X14511967Y-15763722D01*
X14511967Y-15763722D02*
X14521491Y-15782769D01*
X14521491Y-15782769D02*
X14521491Y-15830388D01*
X14521491Y-15830388D02*
X14511967Y-15849436D01*
X14511967Y-15849436D02*
X14502444Y-15858960D01*
X14502444Y-15858960D02*
X14483396Y-15868484D01*
X14483396Y-15868484D02*
X14435777Y-15868484D01*
X14435777Y-15868484D02*
X14416729Y-15858960D01*
X14416729Y-15858960D02*
X14407206Y-15849436D01*
X14711967Y-15868484D02*
X14597682Y-15868484D01*
X14654825Y-15868484D02*
X14654825Y-15668484D01*
X14654825Y-15668484D02*
X14635777Y-15697055D01*
X14635777Y-15697055D02*
X14616729Y-15716103D01*
X14616729Y-15716103D02*
X14597682Y-15725627D01*
X14788158Y-15687531D02*
X14797682Y-15678008D01*
X14797682Y-15678008D02*
X14816729Y-15668484D01*
X14816729Y-15668484D02*
X14864348Y-15668484D01*
X14864348Y-15668484D02*
X14883396Y-15678008D01*
X14883396Y-15678008D02*
X14892920Y-15687531D01*
X14892920Y-15687531D02*
X14902444Y-15706579D01*
X14902444Y-15706579D02*
X14902444Y-15725627D01*
X14902444Y-15725627D02*
X14892920Y-15754198D01*
X14892920Y-15754198D02*
X14778634Y-15868484D01*
X14778634Y-15868484D02*
X14902444Y-15868484D01*
X14978634Y-15668484D02*
X14978634Y-15706579D01*
X15054825Y-15668484D02*
X15054825Y-15706579D01*
X15350063Y-15944674D02*
X15340539Y-15935150D01*
X15340539Y-15935150D02*
X15321491Y-15906579D01*
X15321491Y-15906579D02*
X15311968Y-15887531D01*
X15311968Y-15887531D02*
X15302444Y-15858960D01*
X15302444Y-15858960D02*
X15292920Y-15811341D01*
X15292920Y-15811341D02*
X15292920Y-15773246D01*
X15292920Y-15773246D02*
X15302444Y-15725627D01*
X15302444Y-15725627D02*
X15311968Y-15697055D01*
X15311968Y-15697055D02*
X15321491Y-15678008D01*
X15321491Y-15678008D02*
X15340539Y-15649436D01*
X15340539Y-15649436D02*
X15350063Y-15639912D01*
X15416729Y-15687531D02*
X15426253Y-15678008D01*
X15426253Y-15678008D02*
X15445301Y-15668484D01*
X15445301Y-15668484D02*
X15492920Y-15668484D01*
X15492920Y-15668484D02*
X15511968Y-15678008D01*
X15511968Y-15678008D02*
X15521491Y-15687531D01*
X15521491Y-15687531D02*
X15531015Y-15706579D01*
X15531015Y-15706579D02*
X15531015Y-15725627D01*
X15531015Y-15725627D02*
X15521491Y-15754198D01*
X15521491Y-15754198D02*
X15407206Y-15868484D01*
X15407206Y-15868484D02*
X15531015Y-15868484D01*
X15769110Y-15868484D02*
X15769110Y-15668484D01*
X15854825Y-15868484D02*
X15854825Y-15763722D01*
X15854825Y-15763722D02*
X15845301Y-15744674D01*
X15845301Y-15744674D02*
X15826253Y-15735150D01*
X15826253Y-15735150D02*
X15797682Y-15735150D01*
X15797682Y-15735150D02*
X15778634Y-15744674D01*
X15778634Y-15744674D02*
X15769110Y-15754198D01*
X15978634Y-15868484D02*
X15959587Y-15858960D01*
X15959587Y-15858960D02*
X15950063Y-15849436D01*
X15950063Y-15849436D02*
X15940539Y-15830388D01*
X15940539Y-15830388D02*
X15940539Y-15773246D01*
X15940539Y-15773246D02*
X15950063Y-15754198D01*
X15950063Y-15754198D02*
X15959587Y-15744674D01*
X15959587Y-15744674D02*
X15978634Y-15735150D01*
X15978634Y-15735150D02*
X16007206Y-15735150D01*
X16007206Y-15735150D02*
X16026253Y-15744674D01*
X16026253Y-15744674D02*
X16035777Y-15754198D01*
X16035777Y-15754198D02*
X16045301Y-15773246D01*
X16045301Y-15773246D02*
X16045301Y-15830388D01*
X16045301Y-15830388D02*
X16035777Y-15849436D01*
X16035777Y-15849436D02*
X16026253Y-15858960D01*
X16026253Y-15858960D02*
X16007206Y-15868484D01*
X16007206Y-15868484D02*
X15978634Y-15868484D01*
X16159587Y-15868484D02*
X16140539Y-15858960D01*
X16140539Y-15858960D02*
X16131015Y-15839912D01*
X16131015Y-15839912D02*
X16131015Y-15668484D01*
X16311968Y-15858960D02*
X16292920Y-15868484D01*
X16292920Y-15868484D02*
X16254825Y-15868484D01*
X16254825Y-15868484D02*
X16235777Y-15858960D01*
X16235777Y-15858960D02*
X16226253Y-15839912D01*
X16226253Y-15839912D02*
X16226253Y-15763722D01*
X16226253Y-15763722D02*
X16235777Y-15744674D01*
X16235777Y-15744674D02*
X16254825Y-15735150D01*
X16254825Y-15735150D02*
X16292920Y-15735150D01*
X16292920Y-15735150D02*
X16311968Y-15744674D01*
X16311968Y-15744674D02*
X16321491Y-15763722D01*
X16321491Y-15763722D02*
X16321491Y-15782769D01*
X16321491Y-15782769D02*
X16226253Y-15801817D01*
X16397682Y-15858960D02*
X16416730Y-15868484D01*
X16416730Y-15868484D02*
X16454825Y-15868484D01*
X16454825Y-15868484D02*
X16473872Y-15858960D01*
X16473872Y-15858960D02*
X16483396Y-15839912D01*
X16483396Y-15839912D02*
X16483396Y-15830388D01*
X16483396Y-15830388D02*
X16473872Y-15811341D01*
X16473872Y-15811341D02*
X16454825Y-15801817D01*
X16454825Y-15801817D02*
X16426253Y-15801817D01*
X16426253Y-15801817D02*
X16407206Y-15792293D01*
X16407206Y-15792293D02*
X16397682Y-15773246D01*
X16397682Y-15773246D02*
X16397682Y-15763722D01*
X16397682Y-15763722D02*
X16407206Y-15744674D01*
X16407206Y-15744674D02*
X16426253Y-15735150D01*
X16426253Y-15735150D02*
X16454825Y-15735150D01*
X16454825Y-15735150D02*
X16473872Y-15744674D01*
X16550063Y-15944674D02*
X16559587Y-15935150D01*
X16559587Y-15935150D02*
X16578634Y-15906579D01*
X16578634Y-15906579D02*
X16588158Y-15887531D01*
X16588158Y-15887531D02*
X16597682Y-15858960D01*
X16597682Y-15858960D02*
X16607206Y-15811341D01*
X16607206Y-15811341D02*
X16607206Y-15773246D01*
X16607206Y-15773246D02*
X16597682Y-15725627D01*
X16597682Y-15725627D02*
X16588158Y-15697055D01*
X16588158Y-15697055D02*
X16578634Y-15678008D01*
X16578634Y-15678008D02*
X16559587Y-15649436D01*
X16559587Y-15649436D02*
X16550063Y-15639912D01*
M02*
