G04 #@! TF.GenerationSoftware,KiCad,Pcbnew,7.0.8*
G04 #@! TF.CreationDate,2024-02-21T14:15:02-03:00*
G04 #@! TF.ProjectId,Lidar PCB,4c696461-7220-4504-9342-2e6b69636164,1.0*
G04 #@! TF.SameCoordinates,Original*
G04 #@! TF.FileFunction,Copper,L1,Top*
G04 #@! TF.FilePolarity,Positive*
%FSLAX46Y46*%
G04 Gerber Fmt 4.6, Leading zero omitted, Abs format (unit mm)*
G04 Created by KiCad (PCBNEW 7.0.8) date 2024-02-21 14:15:02*
%MOMM*%
%LPD*%
G01*
G04 APERTURE LIST*
G04 Aperture macros list*
%AMRoundRect*
0 Rectangle with rounded corners*
0 $1 Rounding radius*
0 $2 $3 $4 $5 $6 $7 $8 $9 X,Y pos of 4 corners*
0 Add a 4 corners polygon primitive as box body*
4,1,4,$2,$3,$4,$5,$6,$7,$8,$9,$2,$3,0*
0 Add four circle primitives for the rounded corners*
1,1,$1+$1,$2,$3*
1,1,$1+$1,$4,$5*
1,1,$1+$1,$6,$7*
1,1,$1+$1,$8,$9*
0 Add four rect primitives between the rounded corners*
20,1,$1+$1,$2,$3,$4,$5,0*
20,1,$1+$1,$4,$5,$6,$7,0*
20,1,$1+$1,$6,$7,$8,$9,0*
20,1,$1+$1,$8,$9,$2,$3,0*%
%AMHorizOval*
0 Thick line with rounded ends*
0 $1 width*
0 $2 $3 position (X,Y) of the first rounded end (center of the circle)*
0 $4 $5 position (X,Y) of the second rounded end (center of the circle)*
0 Add line between two ends*
20,1,$1,$2,$3,$4,$5,0*
0 Add two circle primitives to create the rounded ends*
1,1,$1,$2,$3*
1,1,$1,$4,$5*%
%AMRotRect*
0 Rectangle, with rotation*
0 The origin of the aperture is its center*
0 $1 length*
0 $2 width*
0 $3 Rotation angle, in degrees counterclockwise*
0 Add horizontal line*
21,1,$1,$2,0,0,$3*%
G04 Aperture macros list end*
G04 #@! TA.AperFunction,SMDPad,CuDef*
%ADD10RoundRect,0.200000X-0.200000X-0.275000X0.200000X-0.275000X0.200000X0.275000X-0.200000X0.275000X0*%
G04 #@! TD*
G04 #@! TA.AperFunction,ComponentPad*
%ADD11C,2.000000*%
G04 #@! TD*
G04 #@! TA.AperFunction,SMDPad,CuDef*
%ADD12RoundRect,0.218750X-0.218750X-0.256250X0.218750X-0.256250X0.218750X0.256250X-0.218750X0.256250X0*%
G04 #@! TD*
G04 #@! TA.AperFunction,SMDPad,CuDef*
%ADD13RoundRect,0.250000X0.475000X-0.250000X0.475000X0.250000X-0.475000X0.250000X-0.475000X-0.250000X0*%
G04 #@! TD*
G04 #@! TA.AperFunction,SMDPad,CuDef*
%ADD14RoundRect,0.200000X-0.275000X0.200000X-0.275000X-0.200000X0.275000X-0.200000X0.275000X0.200000X0*%
G04 #@! TD*
G04 #@! TA.AperFunction,SMDPad,CuDef*
%ADD15R,4.500000X2.000000*%
G04 #@! TD*
G04 #@! TA.AperFunction,SMDPad,CuDef*
%ADD16RoundRect,0.250000X1.050000X0.550000X-1.050000X0.550000X-1.050000X-0.550000X1.050000X-0.550000X0*%
G04 #@! TD*
G04 #@! TA.AperFunction,SMDPad,CuDef*
%ADD17R,0.550000X1.600000*%
G04 #@! TD*
G04 #@! TA.AperFunction,SMDPad,CuDef*
%ADD18R,1.600000X0.550000*%
G04 #@! TD*
G04 #@! TA.AperFunction,ComponentPad*
%ADD19R,1.700000X1.700000*%
G04 #@! TD*
G04 #@! TA.AperFunction,ComponentPad*
%ADD20O,1.700000X1.700000*%
G04 #@! TD*
G04 #@! TA.AperFunction,SMDPad,CuDef*
%ADD21RoundRect,0.200000X0.275000X-0.200000X0.275000X0.200000X-0.275000X0.200000X-0.275000X-0.200000X0*%
G04 #@! TD*
G04 #@! TA.AperFunction,ComponentPad*
%ADD22C,2.100000*%
G04 #@! TD*
G04 #@! TA.AperFunction,ComponentPad*
%ADD23C,1.750000*%
G04 #@! TD*
G04 #@! TA.AperFunction,ComponentPad*
%ADD24RoundRect,0.250000X-0.725000X0.600000X-0.725000X-0.600000X0.725000X-0.600000X0.725000X0.600000X0*%
G04 #@! TD*
G04 #@! TA.AperFunction,ComponentPad*
%ADD25O,1.950000X1.700000*%
G04 #@! TD*
G04 #@! TA.AperFunction,SMDPad,CuDef*
%ADD26RoundRect,0.225000X-0.225000X-0.250000X0.225000X-0.250000X0.225000X0.250000X-0.225000X0.250000X0*%
G04 #@! TD*
G04 #@! TA.AperFunction,SMDPad,CuDef*
%ADD27RoundRect,0.150000X-0.150000X0.825000X-0.150000X-0.825000X0.150000X-0.825000X0.150000X0.825000X0*%
G04 #@! TD*
G04 #@! TA.AperFunction,SMDPad,CuDef*
%ADD28RoundRect,0.250000X-0.375000X-0.625000X0.375000X-0.625000X0.375000X0.625000X-0.375000X0.625000X0*%
G04 #@! TD*
G04 #@! TA.AperFunction,ComponentPad*
%ADD29R,4.600000X2.000000*%
G04 #@! TD*
G04 #@! TA.AperFunction,ComponentPad*
%ADD30O,4.200000X2.000000*%
G04 #@! TD*
G04 #@! TA.AperFunction,ComponentPad*
%ADD31O,2.000000X4.200000*%
G04 #@! TD*
G04 #@! TA.AperFunction,SMDPad,CuDef*
%ADD32RoundRect,0.250000X1.000000X0.650000X-1.000000X0.650000X-1.000000X-0.650000X1.000000X-0.650000X0*%
G04 #@! TD*
G04 #@! TA.AperFunction,ComponentPad*
%ADD33R,1.800000X1.800000*%
G04 #@! TD*
G04 #@! TA.AperFunction,ComponentPad*
%ADD34C,1.800000*%
G04 #@! TD*
G04 #@! TA.AperFunction,SMDPad,CuDef*
%ADD35RoundRect,0.200000X0.200000X0.275000X-0.200000X0.275000X-0.200000X-0.275000X0.200000X-0.275000X0*%
G04 #@! TD*
G04 #@! TA.AperFunction,SMDPad,CuDef*
%ADD36RoundRect,0.225000X0.250000X-0.225000X0.250000X0.225000X-0.250000X0.225000X-0.250000X-0.225000X0*%
G04 #@! TD*
G04 #@! TA.AperFunction,ComponentPad*
%ADD37R,1.600000X1.600000*%
G04 #@! TD*
G04 #@! TA.AperFunction,ComponentPad*
%ADD38O,1.600000X1.600000*%
G04 #@! TD*
G04 #@! TA.AperFunction,ComponentPad*
%ADD39RoundRect,0.250000X0.600000X0.750000X-0.600000X0.750000X-0.600000X-0.750000X0.600000X-0.750000X0*%
G04 #@! TD*
G04 #@! TA.AperFunction,ComponentPad*
%ADD40O,1.700000X2.000000*%
G04 #@! TD*
G04 #@! TA.AperFunction,ComponentPad*
%ADD41RotRect,1.905000X2.000000X330.000000*%
G04 #@! TD*
G04 #@! TA.AperFunction,ComponentPad*
%ADD42HorizOval,1.905000X-0.023750X-0.041136X0.023750X0.041136X0*%
G04 #@! TD*
G04 #@! TA.AperFunction,SMDPad,CuDef*
%ADD43R,0.450000X1.750000*%
G04 #@! TD*
G04 #@! TA.AperFunction,SMDPad,CuDef*
%ADD44RoundRect,0.225000X0.225000X0.250000X-0.225000X0.250000X-0.225000X-0.250000X0.225000X-0.250000X0*%
G04 #@! TD*
G04 #@! TA.AperFunction,SMDPad,CuDef*
%ADD45R,0.600000X1.160000*%
G04 #@! TD*
G04 #@! TA.AperFunction,SMDPad,CuDef*
%ADD46R,0.300000X1.160000*%
G04 #@! TD*
G04 #@! TA.AperFunction,ComponentPad*
%ADD47O,0.900000X2.000000*%
G04 #@! TD*
G04 #@! TA.AperFunction,ComponentPad*
%ADD48O,0.900000X1.700000*%
G04 #@! TD*
G04 #@! TA.AperFunction,SMDPad,CuDef*
%ADD49R,1.500000X2.000000*%
G04 #@! TD*
G04 #@! TA.AperFunction,SMDPad,CuDef*
%ADD50R,3.800000X2.000000*%
G04 #@! TD*
G04 #@! TA.AperFunction,ViaPad*
%ADD51C,0.800000*%
G04 #@! TD*
G04 #@! TA.AperFunction,Conductor*
%ADD52C,1.000000*%
G04 #@! TD*
G04 #@! TA.AperFunction,Conductor*
%ADD53C,0.500000*%
G04 #@! TD*
G04 #@! TA.AperFunction,Conductor*
%ADD54C,0.250000*%
G04 #@! TD*
G04 #@! TA.AperFunction,Conductor*
%ADD55C,0.200000*%
G04 #@! TD*
G04 APERTURE END LIST*
D10*
X169101000Y-121203000D03*
X170751000Y-121203000D03*
D11*
X163000000Y-88730000D03*
X163000000Y-91270000D03*
X173000000Y-88730000D03*
X173000000Y-91270000D03*
D12*
X165519500Y-119126000D03*
X167094500Y-119126000D03*
D13*
X132080000Y-100350000D03*
X132080000Y-98450000D03*
D14*
X144018000Y-122525000D03*
X144018000Y-124175000D03*
D15*
X162551000Y-105537000D03*
X154051000Y-105537000D03*
D16*
X124228000Y-111252000D03*
X120628000Y-111252000D03*
D17*
X148215000Y-108145000D03*
X147415000Y-108145000D03*
X146615000Y-108145000D03*
X145815000Y-108145000D03*
X145015000Y-108145000D03*
X144215000Y-108145000D03*
X143415000Y-108145000D03*
X142615000Y-108145000D03*
D18*
X141165000Y-109595000D03*
X141165000Y-110395000D03*
X141165000Y-111195000D03*
X141165000Y-111995000D03*
X141165000Y-112795000D03*
X141165000Y-113595000D03*
X141165000Y-114395000D03*
X141165000Y-115195000D03*
D17*
X142615000Y-116645000D03*
X143415000Y-116645000D03*
X144215000Y-116645000D03*
X145015000Y-116645000D03*
X145815000Y-116645000D03*
X146615000Y-116645000D03*
X147415000Y-116645000D03*
X148215000Y-116645000D03*
D18*
X149665000Y-115195000D03*
X149665000Y-114395000D03*
X149665000Y-113595000D03*
X149665000Y-112795000D03*
X149665000Y-111995000D03*
X149665000Y-111195000D03*
X149665000Y-110395000D03*
X149665000Y-109595000D03*
D19*
X123210000Y-115824000D03*
D20*
X120670000Y-115824000D03*
X123210000Y-118364000D03*
X120670000Y-118364000D03*
X123210000Y-120904000D03*
X120670000Y-120904000D03*
D21*
X152880000Y-120840000D03*
X152880000Y-119190000D03*
D22*
X167986800Y-124162500D03*
X160976800Y-124162500D03*
D23*
X166736800Y-126652500D03*
X162236800Y-126652500D03*
D24*
X172720000Y-104180000D03*
D25*
X172720000Y-106680000D03*
X172720000Y-109180000D03*
X172720000Y-111680000D03*
X172720000Y-114180000D03*
X172720000Y-116680000D03*
D26*
X141865000Y-118745000D03*
X143415000Y-118745000D03*
D10*
X161672000Y-121203000D03*
X163322000Y-121203000D03*
D21*
X152000000Y-70929000D03*
X152000000Y-69279000D03*
D27*
X167767000Y-96142000D03*
X166497000Y-96142000D03*
X165227000Y-96142000D03*
X163957000Y-96142000D03*
X162687000Y-96142000D03*
X161417000Y-96142000D03*
X160147000Y-96142000D03*
X160147000Y-101092000D03*
X161417000Y-101092000D03*
X162687000Y-101092000D03*
X163957000Y-101092000D03*
X165227000Y-101092000D03*
X166497000Y-101092000D03*
X167767000Y-101092000D03*
D28*
X127632000Y-113284000D03*
X130432000Y-113284000D03*
D29*
X130568000Y-116990000D03*
D30*
X130568000Y-123290000D03*
D31*
X135368000Y-119890000D03*
D32*
X124385500Y-99060000D03*
X120385500Y-99060000D03*
D33*
X138870000Y-124175000D03*
D34*
X141410000Y-124175000D03*
D35*
X131180000Y-96520000D03*
X129530000Y-96520000D03*
D13*
X129780000Y-100350000D03*
X129780000Y-98450000D03*
D36*
X142135000Y-106132000D03*
X142135000Y-104582000D03*
D10*
X161672000Y-119126000D03*
X163322000Y-119126000D03*
D11*
X145730000Y-74000000D03*
X148270000Y-74000000D03*
X145730000Y-64000000D03*
X148270000Y-64000000D03*
D10*
X163000000Y-85090000D03*
X164650000Y-85090000D03*
D37*
X129530000Y-93985000D03*
D38*
X129530000Y-91445000D03*
X121910000Y-91445000D03*
X121910000Y-93985000D03*
D39*
X123658000Y-105410000D03*
D40*
X121158000Y-105410000D03*
D14*
X119380000Y-91445000D03*
X119380000Y-93095000D03*
D10*
X167350000Y-77000000D03*
X169000000Y-77000000D03*
D12*
X165519500Y-121203000D03*
X167094500Y-121203000D03*
D36*
X159045000Y-120726000D03*
X159045000Y-119176000D03*
D21*
X149880000Y-120840000D03*
X149880000Y-119190000D03*
D11*
X157453948Y-77703948D03*
X159250000Y-79500000D03*
X164525016Y-70632880D03*
X166321068Y-72428932D03*
D21*
X157564800Y-125450000D03*
X157564800Y-123800000D03*
D10*
X171350000Y-95000000D03*
X173000000Y-95000000D03*
D41*
X124376296Y-84447415D03*
D42*
X126576001Y-85717415D03*
X128775705Y-86987415D03*
D43*
X164245000Y-109684000D03*
X163595000Y-109684000D03*
X162945000Y-109684000D03*
X162295000Y-109684000D03*
X161645000Y-109684000D03*
X160995000Y-109684000D03*
X160345000Y-109684000D03*
X159695000Y-109684000D03*
X159045000Y-109684000D03*
X158395000Y-109684000D03*
X157745000Y-109684000D03*
X157095000Y-109684000D03*
X156445000Y-109684000D03*
X155795000Y-109684000D03*
X155795000Y-116884000D03*
X156445000Y-116884000D03*
X157095000Y-116884000D03*
X157745000Y-116884000D03*
X158395000Y-116884000D03*
X159045000Y-116884000D03*
X159695000Y-116884000D03*
X160345000Y-116884000D03*
X160995000Y-116884000D03*
X161645000Y-116884000D03*
X162295000Y-116884000D03*
X162945000Y-116884000D03*
X163595000Y-116884000D03*
X164245000Y-116884000D03*
D36*
X157095000Y-120726000D03*
X157095000Y-119176000D03*
X143895000Y-106132000D03*
X143895000Y-104582000D03*
D44*
X147365000Y-106132000D03*
X145815000Y-106132000D03*
D45*
X147930000Y-123220000D03*
X148730000Y-123220000D03*
D46*
X149880000Y-123220000D03*
X150880000Y-123220000D03*
X151380000Y-123220000D03*
X152380000Y-123220000D03*
D45*
X153530000Y-123220000D03*
X154330000Y-123220000D03*
X154330000Y-123220000D03*
X153530000Y-123220000D03*
D46*
X152880000Y-123220000D03*
X151880000Y-123220000D03*
X150380000Y-123220000D03*
X149380000Y-123220000D03*
D45*
X148730000Y-123220000D03*
X147930000Y-123220000D03*
D47*
X146810000Y-123800000D03*
D48*
X146810000Y-127970000D03*
D47*
X155450000Y-123800000D03*
D48*
X155450000Y-127970000D03*
D49*
X134380000Y-102895000D03*
X132080000Y-102895000D03*
D50*
X132080000Y-109195000D03*
D49*
X129780000Y-102895000D03*
D51*
X170434000Y-118364000D03*
X160345000Y-111520450D03*
X159045000Y-122174000D03*
X162620000Y-115125000D03*
X167894000Y-114808000D03*
X119380000Y-94488000D03*
X148420800Y-119227500D03*
X154432000Y-119227500D03*
X148717000Y-106172000D03*
X159695000Y-115125000D03*
X160147000Y-94234000D03*
X141859000Y-120142000D03*
X166878000Y-114808000D03*
X145815000Y-118364000D03*
X159004000Y-125450000D03*
X145015000Y-109728000D03*
X134380000Y-100990000D03*
X133717000Y-98450000D03*
X142135000Y-103251000D03*
X128256000Y-98450000D03*
X146615000Y-109728000D03*
X157095000Y-122174000D03*
X147930000Y-121539000D03*
X154330000Y-121539000D03*
X166878000Y-110744000D03*
X157745000Y-115125000D03*
X143895000Y-103251000D03*
X169926000Y-122682000D03*
X146177000Y-104902000D03*
X129286000Y-109195000D03*
X135382000Y-100350000D03*
X159385000Y-105537000D03*
X140843000Y-106132000D03*
X169037000Y-96139000D03*
X173000000Y-96266000D03*
X143764000Y-115195000D03*
X140970000Y-116645000D03*
X142748000Y-114395000D03*
X125984000Y-113538000D03*
X148082000Y-111995000D03*
X147066000Y-112795000D03*
X148082000Y-113595000D03*
X148082000Y-115195000D03*
X147066000Y-114395000D03*
X162687000Y-94234000D03*
X163957000Y-97917000D03*
X147614503Y-109728000D03*
X157745000Y-111520450D03*
X142748000Y-111995000D03*
X143764000Y-112795000D03*
X163322000Y-111520450D03*
D52*
X130432000Y-112650500D02*
X130432000Y-113284000D01*
D53*
X132334000Y-83820000D02*
X132334000Y-86360000D01*
X140208000Y-75946000D02*
X132334000Y-83820000D01*
D52*
X124385500Y-104682500D02*
X123658000Y-105410000D01*
D54*
X139670000Y-122525000D02*
X138430000Y-121285000D01*
D52*
X127508000Y-101854000D02*
X129012000Y-100350000D01*
D54*
X138430000Y-116840000D02*
X134874000Y-113284000D01*
D53*
X127000000Y-91694000D02*
X127000000Y-99441000D01*
D52*
X127508000Y-109728000D02*
X127508000Y-101854000D01*
D53*
X160020000Y-82804000D02*
X153162000Y-75946000D01*
D54*
X134874000Y-113284000D02*
X130432000Y-113284000D01*
D52*
X129780000Y-100350000D02*
X129780000Y-102895000D01*
D54*
X138430000Y-121285000D02*
X138430000Y-116840000D01*
D53*
X127000000Y-99441000D02*
X127635000Y-100076000D01*
D52*
X124228000Y-111252000D02*
X124228000Y-105980000D01*
X124228000Y-105980000D02*
X123658000Y-105410000D01*
D53*
X153162000Y-75946000D02*
X140208000Y-75946000D01*
D54*
X144018000Y-122525000D02*
X139670000Y-122525000D01*
D52*
X129012000Y-100350000D02*
X129780000Y-100350000D01*
D53*
X127635000Y-100076000D02*
X129506000Y-100076000D01*
D52*
X124385500Y-99060000D02*
X124385500Y-104682500D01*
D53*
X132334000Y-86360000D02*
X127000000Y-91694000D01*
X164650000Y-85090000D02*
X162364000Y-82804000D01*
X162364000Y-82804000D02*
X160020000Y-82804000D01*
D52*
X129033500Y-111252000D02*
X130432000Y-112650500D01*
X125984000Y-111252000D02*
X129033500Y-111252000D01*
X127508000Y-109728000D02*
X125984000Y-111252000D01*
X125984000Y-111252000D02*
X124228000Y-111252000D01*
D53*
X129506000Y-100076000D02*
X129780000Y-100350000D01*
D54*
X141859000Y-120142000D02*
X141859000Y-118751000D01*
X145015000Y-108145000D02*
X145015000Y-109728000D01*
X162295000Y-115450000D02*
X162620000Y-115125000D01*
X143895000Y-104582000D02*
X143895000Y-103251000D01*
X162945000Y-116884000D02*
X162945000Y-115450000D01*
X119380000Y-93095000D02*
X119380000Y-94488000D01*
X148590000Y-106172000D02*
X147447000Y-106172000D01*
X146615000Y-108145000D02*
X146615000Y-109728000D01*
X157564800Y-125450000D02*
X158978000Y-125450000D01*
X146615000Y-106882000D02*
X147365000Y-106132000D01*
X154432000Y-119227500D02*
X152880000Y-119227500D01*
D53*
X129780000Y-98450000D02*
X128256000Y-98450000D01*
D54*
X159045000Y-122174000D02*
X159045000Y-120726000D01*
D53*
X132080000Y-98450000D02*
X133717000Y-98450000D01*
D54*
X157095000Y-122174000D02*
X157095000Y-120726000D01*
X148420800Y-119227500D02*
X149880000Y-119227500D01*
X170434000Y-118364000D02*
X167894000Y-115824000D01*
X147930000Y-121539000D02*
X147930000Y-123220000D01*
X159695000Y-116884000D02*
X159695000Y-115125447D01*
X160345000Y-109684000D02*
X160345000Y-111520450D01*
X160147000Y-96142000D02*
X160147000Y-94234000D01*
X162945000Y-115450000D02*
X162620000Y-115125000D01*
X167894000Y-115824000D02*
X167894000Y-114808000D01*
X145815000Y-116645000D02*
X145815000Y-118364000D01*
X141859000Y-118751000D02*
X141865000Y-118745000D01*
X146615000Y-108145000D02*
X146615000Y-106882000D01*
X162295000Y-116884000D02*
X162295000Y-115450000D01*
X158978000Y-125450000D02*
X159004000Y-125476000D01*
X157745000Y-116884000D02*
X157745000Y-115125000D01*
D53*
X134380000Y-102895000D02*
X134380000Y-100990000D01*
D54*
X142135000Y-104582000D02*
X142135000Y-103251000D01*
X166878000Y-114808000D02*
X166878000Y-110744000D01*
X154330000Y-121539000D02*
X154330000Y-123220000D01*
D53*
X132575852Y-99854148D02*
X134886148Y-99854148D01*
X142660000Y-120992000D02*
X141058000Y-120992000D01*
D54*
X144653000Y-110617000D02*
X145415000Y-110617000D01*
D53*
X139446000Y-119380000D02*
X139446000Y-111506000D01*
D52*
X132080000Y-100350000D02*
X132080000Y-102895000D01*
D54*
X169101000Y-121203000D02*
X169101000Y-121857000D01*
X162295000Y-108494690D02*
X162295000Y-109684000D01*
X145815000Y-105264000D02*
X146177000Y-104902000D01*
X167094500Y-121203000D02*
X167094500Y-119126000D01*
X145815000Y-106132000D02*
X145815000Y-105264000D01*
X170394000Y-104180000D02*
X167132000Y-107442000D01*
X161036000Y-122428000D02*
X160274000Y-121666000D01*
D53*
X161279000Y-70929000D02*
X152000000Y-70929000D01*
D54*
X167094500Y-121703500D02*
X166370000Y-122428000D01*
D53*
X171350000Y-100230000D02*
X171350000Y-95000000D01*
X172720000Y-104180000D02*
X172720000Y-101600000D01*
D54*
X145815000Y-108145000D02*
X145815000Y-106132000D01*
D53*
X139446000Y-111506000D02*
X137135000Y-109195000D01*
D54*
X167767000Y-101473000D02*
X170474000Y-104180000D01*
X169101000Y-121857000D02*
X169926000Y-122682000D01*
X160274000Y-120396000D02*
X159054000Y-119176000D01*
D53*
X143415000Y-118745000D02*
X143415000Y-120237000D01*
D54*
X163347690Y-107442000D02*
X162295000Y-108494690D01*
D53*
X137135000Y-102103000D02*
X135382000Y-100350000D01*
D54*
X145815000Y-110217000D02*
X145815000Y-108145000D01*
X167767000Y-101092000D02*
X167767000Y-101473000D01*
X144215000Y-108145000D02*
X144215000Y-110179000D01*
X159045000Y-116884000D02*
X158395000Y-116884000D01*
X167132000Y-107442000D02*
X163347690Y-107442000D01*
D53*
X167350000Y-91000000D02*
X171350000Y-95000000D01*
X143415000Y-120237000D02*
X142660000Y-120992000D01*
D54*
X159054000Y-119176000D02*
X159045000Y-119176000D01*
X167094500Y-121203000D02*
X167094500Y-121703500D01*
X145415000Y-110617000D02*
X145815000Y-110217000D01*
D53*
X172720000Y-101600000D02*
X171350000Y-100230000D01*
D52*
X132080000Y-102895000D02*
X132080000Y-109195000D01*
D54*
X144215000Y-110179000D02*
X144653000Y-110617000D01*
X160274000Y-121666000D02*
X160274000Y-120396000D01*
X132080000Y-109195000D02*
X129286000Y-109195000D01*
X166370000Y-122428000D02*
X161036000Y-122428000D01*
D53*
X137135000Y-109195000D02*
X137135000Y-102103000D01*
D54*
X143415000Y-116645000D02*
X143415000Y-118745000D01*
D53*
X167350000Y-77000000D02*
X161279000Y-70929000D01*
X134886148Y-99854148D02*
X135382000Y-100350000D01*
X167350000Y-77000000D02*
X167350000Y-91000000D01*
D54*
X159045000Y-119176000D02*
X159045000Y-116884000D01*
X170474000Y-104180000D02*
X172720000Y-104180000D01*
D53*
X141058000Y-120992000D02*
X139446000Y-119380000D01*
D54*
X169101000Y-121203000D02*
X167094500Y-121203000D01*
X172720000Y-104180000D02*
X170394000Y-104180000D01*
D53*
X132080000Y-100350000D02*
X132575852Y-99854148D01*
D54*
X145034000Y-104648000D02*
X145034000Y-105660182D01*
X143415000Y-108145000D02*
X143415000Y-106612000D01*
X143415000Y-106612000D02*
X143895000Y-106132000D01*
X145034000Y-105660182D02*
X144562182Y-106132000D01*
X145796000Y-103886000D02*
X145034000Y-104648000D01*
X154051000Y-105537000D02*
X152400000Y-103886000D01*
X152400000Y-103886000D02*
X145796000Y-103886000D01*
X144562182Y-106132000D02*
X143895000Y-106132000D01*
X142135000Y-106132000D02*
X140843000Y-106132000D01*
X142615000Y-106612000D02*
X142135000Y-106132000D01*
X159385000Y-105537000D02*
X162551000Y-105537000D01*
X142615000Y-108145000D02*
X142615000Y-106612000D01*
X157095000Y-119176000D02*
X157095000Y-116884000D01*
X163322000Y-121203000D02*
X165519500Y-121203000D01*
X163000000Y-85090000D02*
X163000000Y-88730000D01*
X173000000Y-95000000D02*
X173000000Y-91270000D01*
X173000000Y-95000000D02*
X173000000Y-96266000D01*
X167767000Y-96142000D02*
X169034000Y-96142000D01*
X169034000Y-96142000D02*
X169037000Y-96139000D01*
X155194000Y-72136000D02*
X150622000Y-72136000D01*
X148270000Y-66311000D02*
X151238000Y-69279000D01*
X165989000Y-82931000D02*
X155194000Y-72136000D01*
X151238000Y-69279000D02*
X152000000Y-69279000D01*
X165989000Y-92075000D02*
X165989000Y-82931000D01*
X148270000Y-64000000D02*
X148270000Y-66311000D01*
X150622000Y-72136000D02*
X148270000Y-69784000D01*
X165227000Y-92837000D02*
X165989000Y-92075000D01*
X148270000Y-69784000D02*
X148270000Y-64000000D01*
X165227000Y-96142000D02*
X165227000Y-92837000D01*
X144018000Y-124175000D02*
X141410000Y-124175000D01*
D52*
X127632000Y-113284000D02*
X127632000Y-114054000D01*
X127632000Y-114054000D02*
X130568000Y-116990000D01*
D54*
X153530000Y-123800000D02*
X153530000Y-123220000D01*
X148730000Y-123815406D02*
X149882594Y-124968000D01*
X149882594Y-124968000D02*
X152362000Y-124968000D01*
X152362000Y-124968000D02*
X153530000Y-123800000D01*
X148730000Y-123220000D02*
X148730000Y-123815406D01*
X149880000Y-120802500D02*
X149880000Y-123220000D01*
D55*
X151880000Y-122349999D02*
X151880000Y-123220000D01*
X153001200Y-114525000D02*
X151855000Y-115671200D01*
X155795000Y-115571499D02*
X155895000Y-115471499D01*
X155895000Y-115471499D02*
X155895000Y-115065200D01*
X155795000Y-116884000D02*
X155795000Y-115571499D01*
X155895000Y-115065200D02*
X155354800Y-114525000D01*
X150880000Y-123220000D02*
X150880000Y-123956000D01*
X151880000Y-123964000D02*
X151880000Y-123220000D01*
X151855000Y-115671200D02*
X151855000Y-122324999D01*
X155354800Y-114525000D02*
X153001200Y-114525000D01*
X151855000Y-122324999D02*
X151880000Y-122349999D01*
X150880000Y-123956000D02*
X151089132Y-124165132D01*
X151678868Y-124165132D02*
X151880000Y-123964000D01*
X151089132Y-124165132D02*
X151678868Y-124165132D01*
X151405000Y-115484800D02*
X151405000Y-122324999D01*
X151405000Y-122324999D02*
X151380000Y-122349999D01*
X156345000Y-114878800D02*
X155541200Y-114075000D01*
X150380000Y-122363868D02*
X150569868Y-122174000D01*
X150569868Y-122174000D02*
X151204001Y-122174000D01*
X152814800Y-114075000D02*
X151405000Y-115484800D01*
X151204001Y-122174000D02*
X151380000Y-122349999D01*
X156345000Y-115471499D02*
X156345000Y-114878800D01*
X155541200Y-114075000D02*
X152814800Y-114075000D01*
X150380000Y-123220000D02*
X150380000Y-122363868D01*
X156445000Y-115571499D02*
X156345000Y-115471499D01*
X151380000Y-122349999D02*
X151380000Y-123220000D01*
X156445000Y-116884000D02*
X156445000Y-115571499D01*
D54*
X152880000Y-120802500D02*
X152880000Y-123220000D01*
X157564800Y-123800000D02*
X155450000Y-123800000D01*
X141165000Y-115195000D02*
X143764000Y-115195000D01*
X142615000Y-116645000D02*
X140970000Y-116645000D01*
X119126000Y-115189000D02*
X119126000Y-116820000D01*
X141165000Y-114395000D02*
X142748000Y-114395000D01*
X119126000Y-116820000D02*
X120670000Y-118364000D01*
X120269000Y-114046000D02*
X119126000Y-115189000D01*
X125984000Y-113538000D02*
X125476000Y-114046000D01*
X125476000Y-114046000D02*
X120269000Y-114046000D01*
X170751000Y-120205000D02*
X164084000Y-113538000D01*
X164084000Y-113538000D02*
X153162000Y-113538000D01*
X153162000Y-113538000D02*
X151619000Y-111995000D01*
X170751000Y-124397000D02*
X170751000Y-120205000D01*
X149665000Y-111995000D02*
X148082000Y-111995000D01*
X168495500Y-126652500D02*
X170751000Y-124397000D01*
X151619000Y-111995000D02*
X149665000Y-111995000D01*
X166736800Y-126652500D02*
X168495500Y-126652500D01*
X149665000Y-112795000D02*
X147066000Y-112795000D01*
X149665000Y-113595000D02*
X148082000Y-113595000D01*
X149665000Y-115195000D02*
X148082000Y-115195000D01*
X149665000Y-114395000D02*
X147066000Y-114395000D01*
X121910000Y-91445000D02*
X121910000Y-86913711D01*
X119380000Y-91445000D02*
X121910000Y-91445000D01*
X121910000Y-86913711D02*
X124376296Y-84447415D01*
X162687000Y-96142000D02*
X162687000Y-94234000D01*
X169000000Y-77000000D02*
X169000000Y-75107864D01*
X169000000Y-75107864D02*
X166321068Y-72428932D01*
X153750000Y-74000000D02*
X157453948Y-77703948D01*
X148270000Y-74000000D02*
X153750000Y-74000000D01*
X160995000Y-116884000D02*
X160995000Y-118449000D01*
X160995000Y-118449000D02*
X161672000Y-119126000D01*
X161672000Y-120778000D02*
X161672000Y-121203000D01*
X160345000Y-116884000D02*
X160345000Y-119451000D01*
X160345000Y-119451000D02*
X161672000Y-120778000D01*
X133350000Y-96520000D02*
X138430000Y-101600000D01*
X139351000Y-110395000D02*
X141165000Y-110395000D01*
X138430000Y-101600000D02*
X138430000Y-109474000D01*
X138430000Y-109474000D02*
X139351000Y-110395000D01*
X131180000Y-96520000D02*
X133350000Y-96520000D01*
X129530000Y-96330000D02*
X129530000Y-93985000D01*
X155194000Y-107696000D02*
X155601620Y-107696000D01*
X157861000Y-105436620D02*
X157861000Y-100076000D01*
X161417000Y-96520000D02*
X161417000Y-96142000D01*
X155136000Y-107754000D02*
X155194000Y-107696000D01*
X157861000Y-100076000D02*
X161417000Y-96520000D01*
X155601620Y-107696000D02*
X157861000Y-105436620D01*
X148606000Y-107754000D02*
X155136000Y-107754000D01*
X148215000Y-108145000D02*
X148606000Y-107754000D01*
X147415000Y-108145000D02*
X147415000Y-109528497D01*
X163957000Y-96142000D02*
X163957000Y-97917000D01*
X147415000Y-109528497D02*
X147614503Y-109728000D01*
X157745000Y-109684000D02*
X157745000Y-111520450D01*
X141165000Y-111995000D02*
X142748000Y-111995000D01*
X163595000Y-111247450D02*
X163322000Y-111520450D01*
X163595000Y-109684000D02*
X163595000Y-111247450D01*
X141165000Y-112795000D02*
X143764000Y-112795000D01*
X151130000Y-110998000D02*
X154432000Y-110998000D01*
X164301000Y-109740000D02*
X164245000Y-109684000D01*
X163576000Y-112776000D02*
X164301000Y-112051000D01*
X150933000Y-111195000D02*
X151130000Y-110998000D01*
X156210000Y-112776000D02*
X163576000Y-112776000D01*
X149665000Y-111195000D02*
X150933000Y-111195000D01*
X154432000Y-110998000D02*
X156210000Y-112776000D01*
X164301000Y-112051000D02*
X164301000Y-109740000D01*
X161645000Y-111532000D02*
X161645000Y-109684000D01*
X149665000Y-110395000D02*
X154591000Y-110395000D01*
X160909000Y-112268000D02*
X161645000Y-111532000D01*
X154591000Y-110395000D02*
X156464000Y-112268000D01*
X156464000Y-112268000D02*
X160909000Y-112268000D01*
X153676000Y-109595000D02*
X155067000Y-108204000D01*
X164808000Y-98806000D02*
X166497000Y-97117000D01*
X156210000Y-108204000D02*
X158623000Y-105791000D01*
X149665000Y-109595000D02*
X153676000Y-109595000D01*
X158623000Y-100076000D02*
X159893000Y-98806000D01*
X155067000Y-108204000D02*
X156210000Y-108204000D01*
X166497000Y-97117000D02*
X166497000Y-96142000D01*
X158623000Y-105791000D02*
X158623000Y-100076000D01*
X159893000Y-98806000D02*
X164808000Y-98806000D01*
X120628000Y-105940000D02*
X121158000Y-105410000D01*
D52*
X120385500Y-99060000D02*
X120385500Y-98943500D01*
X120628000Y-111252000D02*
X120628000Y-105940000D01*
X124714000Y-94615000D02*
X124714000Y-87579416D01*
X124714000Y-87579416D02*
X126576001Y-85717415D01*
X120385500Y-99060000D02*
X120385500Y-104637500D01*
X120385500Y-98943500D02*
X124714000Y-94615000D01*
X120385500Y-104637500D02*
X121158000Y-105410000D01*
D54*
X163322000Y-119126000D02*
X165519500Y-119126000D01*
M02*
