M48
; DRILL file {KiCad 7.0.8} date Wed Feb 21 14:15:14 2024
; FORMAT={-:-/ absolute / metric / decimal}
; #@! TF.CreationDate,2024-02-21T14:15:14-03:00
; #@! TF.GenerationSoftware,Kicad,Pcbnew,7.0.8
; #@! TF.FileFunction,Plated,1,2,PTH
FMAT,2
METRIC
; #@! TA.AperFunction,Plated,PTH,ViaDrill
T1C0.400
; #@! TA.AperFunction,Plated,PTH,ComponentDrill
T2C0.600
; #@! TA.AperFunction,Plated,PTH,ComponentDrill
T3C0.800
; #@! TA.AperFunction,Plated,PTH,ComponentDrill
T4C0.900
; #@! TA.AperFunction,Plated,PTH,ComponentDrill
T5C0.950
; #@! TA.AperFunction,Plated,PTH,ComponentDrill
T6C0.990
; #@! TA.AperFunction,Plated,PTH,ComponentDrill
T7C1.000
; #@! TA.AperFunction,Plated,PTH,ComponentDrill
T8C1.100
; #@! TA.AperFunction,Plated,PTH,ComponentDrill
T9C1.300
%
G90
G05
T1
X119.38Y-94.488
X125.984Y-113.538
X128.256Y-98.45
X129.286Y-109.195
X133.717Y-98.45
X134.38Y-100.99
X135.382Y-100.35
X140.843Y-106.132
X140.97Y-116.645
X141.859Y-120.142
X142.135Y-103.251
X142.748Y-111.995
X142.748Y-114.395
X143.764Y-112.795
X143.764Y-115.195
X143.895Y-103.251
X145.015Y-109.728
X145.815Y-118.364
X146.177Y-104.902
X146.615Y-109.728
X147.066Y-112.795
X147.066Y-114.395
X147.615Y-109.728
X147.93Y-121.539
X148.082Y-111.995
X148.082Y-113.595
X148.082Y-115.195
X148.421Y-119.227
X148.717Y-106.172
X154.33Y-121.539
X154.432Y-119.227
X157.095Y-122.174
X157.745Y-111.52
X157.745Y-115.125
X159.004Y-125.45
X159.045Y-122.174
X159.385Y-105.537
X159.695Y-115.125
X160.147Y-94.234
X160.345Y-111.52
X162.62Y-115.125
X162.687Y-94.234
X163.322Y-111.52
X163.957Y-97.917
X166.878Y-110.744
X166.878Y-114.808
X167.894Y-114.808
X169.037Y-96.139
X169.926Y-122.682
X170.434Y-118.364
X173.0Y-96.266
T3
X121.91Y-91.445
X121.91Y-93.985
X129.53Y-91.445
X129.53Y-93.985
T4
X138.87Y-124.175
X141.41Y-124.175
T5
X172.72Y-104.18
X172.72Y-106.68
X172.72Y-109.18
X172.72Y-111.68
X172.72Y-114.18
X172.72Y-116.68
T6
X162.237Y-126.652
X166.737Y-126.652
T7
X120.67Y-115.824
X120.67Y-118.364
X120.67Y-120.904
X121.158Y-105.41
X123.21Y-115.824
X123.21Y-118.364
X123.21Y-120.904
X123.658Y-105.41
X145.73Y-64.0
X145.73Y-74.0
X148.27Y-64.0
X148.27Y-74.0
X157.454Y-77.704
X159.25Y-79.5
X163.0Y-88.73
X163.0Y-91.27
X164.525Y-70.633
X166.321Y-72.429
X173.0Y-88.73
X173.0Y-91.27
T8
X124.376Y-84.447
X126.576Y-85.717
X128.776Y-86.987
T9
X160.977Y-124.162
X167.987Y-124.162
T2
X146.81Y-124.35G85X146.81Y-123.25
G05
X146.81Y-128.37G85X146.81Y-127.57
G05
X155.45Y-124.35G85X155.45Y-123.25
G05
X155.45Y-128.37G85X155.45Y-127.57
G05
T7
X129.268Y-116.99G85X131.868Y-116.99
G05
X129.468Y-123.29G85X131.668Y-123.29
G05
X135.368Y-118.79G85X135.368Y-120.99
G05
T0
M30
