G04 #@! TF.GenerationSoftware,KiCad,Pcbnew,7.0.8*
G04 #@! TF.CreationDate,2024-02-21T14:15:02-03:00*
G04 #@! TF.ProjectId,Lidar PCB,4c696461-7220-4504-9342-2e6b69636164,1.0*
G04 #@! TF.SameCoordinates,Original*
G04 #@! TF.FileFunction,Legend,Bot*
G04 #@! TF.FilePolarity,Positive*
%FSLAX46Y46*%
G04 Gerber Fmt 4.6, Leading zero omitted, Abs format (unit mm)*
G04 Created by KiCad (PCBNEW 7.0.8) date 2024-02-21 14:15:02*
%MOMM*%
%LPD*%
G01*
G04 APERTURE LIST*
G04 Aperture macros list*
%AMRoundRect*
0 Rectangle with rounded corners*
0 $1 Rounding radius*
0 $2 $3 $4 $5 $6 $7 $8 $9 X,Y pos of 4 corners*
0 Add a 4 corners polygon primitive as box body*
4,1,4,$2,$3,$4,$5,$6,$7,$8,$9,$2,$3,0*
0 Add four circle primitives for the rounded corners*
1,1,$1+$1,$2,$3*
1,1,$1+$1,$4,$5*
1,1,$1+$1,$6,$7*
1,1,$1+$1,$8,$9*
0 Add four rect primitives between the rounded corners*
20,1,$1+$1,$2,$3,$4,$5,0*
20,1,$1+$1,$4,$5,$6,$7,0*
20,1,$1+$1,$6,$7,$8,$9,0*
20,1,$1+$1,$8,$9,$2,$3,0*%
%AMHorizOval*
0 Thick line with rounded ends*
0 $1 width*
0 $2 $3 position (X,Y) of the first rounded end (center of the circle)*
0 $4 $5 position (X,Y) of the second rounded end (center of the circle)*
0 Add line between two ends*
20,1,$1,$2,$3,$4,$5,0*
0 Add two circle primitives to create the rounded ends*
1,1,$1,$2,$3*
1,1,$1,$4,$5*%
%AMRotRect*
0 Rectangle, with rotation*
0 The origin of the aperture is its center*
0 $1 length*
0 $2 width*
0 $3 Rotation angle, in degrees counterclockwise*
0 Add horizontal line*
21,1,$1,$2,0,0,$3*%
G04 Aperture macros list end*
%ADD10C,0.600000*%
%ADD11C,0.300000*%
%ADD12C,2.000000*%
%ADD13R,1.700000X1.700000*%
%ADD14O,1.700000X1.700000*%
%ADD15C,2.500000*%
%ADD16C,2.100000*%
%ADD17C,1.750000*%
%ADD18RoundRect,0.250000X-0.725000X0.600000X-0.725000X-0.600000X0.725000X-0.600000X0.725000X0.600000X0*%
%ADD19O,1.950000X1.700000*%
%ADD20R,4.600000X2.000000*%
%ADD21O,4.200000X2.000000*%
%ADD22O,2.000000X4.200000*%
%ADD23R,1.800000X1.800000*%
%ADD24C,1.800000*%
%ADD25R,1.600000X1.600000*%
%ADD26O,1.600000X1.600000*%
%ADD27RoundRect,0.250000X0.600000X0.750000X-0.600000X0.750000X-0.600000X-0.750000X0.600000X-0.750000X0*%
%ADD28O,1.700000X2.000000*%
%ADD29HorizOval,3.500000X0.000000X0.000000X0.000000X0.000000X0*%
%ADD30RotRect,1.905000X2.000000X330.000000*%
%ADD31HorizOval,1.905000X-0.023750X-0.041136X0.023750X0.041136X0*%
%ADD32O,0.900000X2.000000*%
%ADD33O,0.900000X1.700000*%
G04 APERTURE END LIST*
D10*
X166785714Y-112354657D02*
X166785714Y-109354657D01*
X166785714Y-109354657D02*
X165642857Y-109354657D01*
X165642857Y-109354657D02*
X165357142Y-109497514D01*
X165357142Y-109497514D02*
X165214285Y-109640371D01*
X165214285Y-109640371D02*
X165071428Y-109926085D01*
X165071428Y-109926085D02*
X165071428Y-110354657D01*
X165071428Y-110354657D02*
X165214285Y-110640371D01*
X165214285Y-110640371D02*
X165357142Y-110783228D01*
X165357142Y-110783228D02*
X165642857Y-110926085D01*
X165642857Y-110926085D02*
X166785714Y-110926085D01*
X163785714Y-112354657D02*
X163785714Y-109354657D01*
X162500000Y-112354657D02*
X162500000Y-110783228D01*
X162500000Y-110783228D02*
X162642857Y-110497514D01*
X162642857Y-110497514D02*
X162928571Y-110354657D01*
X162928571Y-110354657D02*
X163357142Y-110354657D01*
X163357142Y-110354657D02*
X163642857Y-110497514D01*
X163642857Y-110497514D02*
X163785714Y-110640371D01*
X160642856Y-112354657D02*
X160928571Y-112211800D01*
X160928571Y-112211800D02*
X161071428Y-112068942D01*
X161071428Y-112068942D02*
X161214285Y-111783228D01*
X161214285Y-111783228D02*
X161214285Y-110926085D01*
X161214285Y-110926085D02*
X161071428Y-110640371D01*
X161071428Y-110640371D02*
X160928571Y-110497514D01*
X160928571Y-110497514D02*
X160642856Y-110354657D01*
X160642856Y-110354657D02*
X160214285Y-110354657D01*
X160214285Y-110354657D02*
X159928571Y-110497514D01*
X159928571Y-110497514D02*
X159785714Y-110640371D01*
X159785714Y-110640371D02*
X159642856Y-110926085D01*
X159642856Y-110926085D02*
X159642856Y-111783228D01*
X159642856Y-111783228D02*
X159785714Y-112068942D01*
X159785714Y-112068942D02*
X159928571Y-112211800D01*
X159928571Y-112211800D02*
X160214285Y-112354657D01*
X160214285Y-112354657D02*
X160642856Y-112354657D01*
X158785713Y-110354657D02*
X157642856Y-110354657D01*
X158357142Y-109354657D02*
X158357142Y-111926085D01*
X158357142Y-111926085D02*
X158214285Y-112211800D01*
X158214285Y-112211800D02*
X157928570Y-112354657D01*
X157928570Y-112354657D02*
X157642856Y-112354657D01*
X156214284Y-112354657D02*
X156499999Y-112211800D01*
X156499999Y-112211800D02*
X156642856Y-112068942D01*
X156642856Y-112068942D02*
X156785713Y-111783228D01*
X156785713Y-111783228D02*
X156785713Y-110926085D01*
X156785713Y-110926085D02*
X156642856Y-110640371D01*
X156642856Y-110640371D02*
X156499999Y-110497514D01*
X156499999Y-110497514D02*
X156214284Y-110354657D01*
X156214284Y-110354657D02*
X155785713Y-110354657D01*
X155785713Y-110354657D02*
X155499999Y-110497514D01*
X155499999Y-110497514D02*
X155357142Y-110640371D01*
X155357142Y-110640371D02*
X155214284Y-110926085D01*
X155214284Y-110926085D02*
X155214284Y-111783228D01*
X155214284Y-111783228D02*
X155357142Y-112068942D01*
X155357142Y-112068942D02*
X155499999Y-112211800D01*
X155499999Y-112211800D02*
X155785713Y-112354657D01*
X155785713Y-112354657D02*
X156214284Y-112354657D01*
X153928570Y-110354657D02*
X153928570Y-112354657D01*
X153928570Y-110640371D02*
X153785713Y-110497514D01*
X153785713Y-110497514D02*
X153499998Y-110354657D01*
X153499998Y-110354657D02*
X153071427Y-110354657D01*
X153071427Y-110354657D02*
X152785713Y-110497514D01*
X152785713Y-110497514D02*
X152642856Y-110783228D01*
X152642856Y-110783228D02*
X152642856Y-112354657D01*
X147499998Y-112354657D02*
X148928570Y-112354657D01*
X148928570Y-112354657D02*
X148928570Y-109354657D01*
X146499999Y-112354657D02*
X146499999Y-110354657D01*
X146499999Y-109354657D02*
X146642856Y-109497514D01*
X146642856Y-109497514D02*
X146499999Y-109640371D01*
X146499999Y-109640371D02*
X146357142Y-109497514D01*
X146357142Y-109497514D02*
X146499999Y-109354657D01*
X146499999Y-109354657D02*
X146499999Y-109640371D01*
X143785714Y-112354657D02*
X143785714Y-109354657D01*
X143785714Y-112211800D02*
X144071428Y-112354657D01*
X144071428Y-112354657D02*
X144642856Y-112354657D01*
X144642856Y-112354657D02*
X144928571Y-112211800D01*
X144928571Y-112211800D02*
X145071428Y-112068942D01*
X145071428Y-112068942D02*
X145214285Y-111783228D01*
X145214285Y-111783228D02*
X145214285Y-110926085D01*
X145214285Y-110926085D02*
X145071428Y-110640371D01*
X145071428Y-110640371D02*
X144928571Y-110497514D01*
X144928571Y-110497514D02*
X144642856Y-110354657D01*
X144642856Y-110354657D02*
X144071428Y-110354657D01*
X144071428Y-110354657D02*
X143785714Y-110497514D01*
X141071428Y-112354657D02*
X141071428Y-110783228D01*
X141071428Y-110783228D02*
X141214285Y-110497514D01*
X141214285Y-110497514D02*
X141499999Y-110354657D01*
X141499999Y-110354657D02*
X142071428Y-110354657D01*
X142071428Y-110354657D02*
X142357142Y-110497514D01*
X141071428Y-112211800D02*
X141357142Y-112354657D01*
X141357142Y-112354657D02*
X142071428Y-112354657D01*
X142071428Y-112354657D02*
X142357142Y-112211800D01*
X142357142Y-112211800D02*
X142499999Y-111926085D01*
X142499999Y-111926085D02*
X142499999Y-111640371D01*
X142499999Y-111640371D02*
X142357142Y-111354657D01*
X142357142Y-111354657D02*
X142071428Y-111211800D01*
X142071428Y-111211800D02*
X141357142Y-111211800D01*
X141357142Y-111211800D02*
X141071428Y-111068942D01*
X139642856Y-112354657D02*
X139642856Y-110354657D01*
X139642856Y-110926085D02*
X139499999Y-110640371D01*
X139499999Y-110640371D02*
X139357142Y-110497514D01*
X139357142Y-110497514D02*
X139071427Y-110354657D01*
X139071427Y-110354657D02*
X138785713Y-110354657D01*
X135928570Y-109354657D02*
X134928570Y-112354657D01*
X134928570Y-112354657D02*
X133928570Y-109354657D01*
X131357141Y-112354657D02*
X133071427Y-112354657D01*
X132214284Y-112354657D02*
X132214284Y-109354657D01*
X132214284Y-109354657D02*
X132499998Y-109783228D01*
X132499998Y-109783228D02*
X132785713Y-110068942D01*
X132785713Y-110068942D02*
X133071427Y-110211800D01*
X130071427Y-112068942D02*
X129928570Y-112211800D01*
X129928570Y-112211800D02*
X130071427Y-112354657D01*
X130071427Y-112354657D02*
X130214284Y-112211800D01*
X130214284Y-112211800D02*
X130071427Y-112068942D01*
X130071427Y-112068942D02*
X130071427Y-112354657D01*
X128071427Y-109354657D02*
X127785713Y-109354657D01*
X127785713Y-109354657D02*
X127499999Y-109497514D01*
X127499999Y-109497514D02*
X127357142Y-109640371D01*
X127357142Y-109640371D02*
X127214284Y-109926085D01*
X127214284Y-109926085D02*
X127071427Y-110497514D01*
X127071427Y-110497514D02*
X127071427Y-111211800D01*
X127071427Y-111211800D02*
X127214284Y-111783228D01*
X127214284Y-111783228D02*
X127357142Y-112068942D01*
X127357142Y-112068942D02*
X127499999Y-112211800D01*
X127499999Y-112211800D02*
X127785713Y-112354657D01*
X127785713Y-112354657D02*
X128071427Y-112354657D01*
X128071427Y-112354657D02*
X128357142Y-112211800D01*
X128357142Y-112211800D02*
X128499999Y-112068942D01*
X128499999Y-112068942D02*
X128642856Y-111783228D01*
X128642856Y-111783228D02*
X128785713Y-111211800D01*
X128785713Y-111211800D02*
X128785713Y-110497514D01*
X128785713Y-110497514D02*
X128642856Y-109926085D01*
X128642856Y-109926085D02*
X128499999Y-109640371D01*
X128499999Y-109640371D02*
X128357142Y-109497514D01*
X128357142Y-109497514D02*
X128071427Y-109354657D01*
D11*
X166831489Y-115624828D02*
X166831489Y-114124828D01*
X166831489Y-114124828D02*
X166474346Y-114124828D01*
X166474346Y-114124828D02*
X166260060Y-114196257D01*
X166260060Y-114196257D02*
X166117203Y-114339114D01*
X166117203Y-114339114D02*
X166045774Y-114481971D01*
X166045774Y-114481971D02*
X165974346Y-114767685D01*
X165974346Y-114767685D02*
X165974346Y-114981971D01*
X165974346Y-114981971D02*
X166045774Y-115267685D01*
X166045774Y-115267685D02*
X166117203Y-115410542D01*
X166117203Y-115410542D02*
X166260060Y-115553400D01*
X166260060Y-115553400D02*
X166474346Y-115624828D01*
X166474346Y-115624828D02*
X166831489Y-115624828D01*
X164760060Y-115553400D02*
X164902917Y-115624828D01*
X164902917Y-115624828D02*
X165188632Y-115624828D01*
X165188632Y-115624828D02*
X165331489Y-115553400D01*
X165331489Y-115553400D02*
X165402917Y-115410542D01*
X165402917Y-115410542D02*
X165402917Y-114839114D01*
X165402917Y-114839114D02*
X165331489Y-114696257D01*
X165331489Y-114696257D02*
X165188632Y-114624828D01*
X165188632Y-114624828D02*
X164902917Y-114624828D01*
X164902917Y-114624828D02*
X164760060Y-114696257D01*
X164760060Y-114696257D02*
X164688632Y-114839114D01*
X164688632Y-114839114D02*
X164688632Y-114981971D01*
X164688632Y-114981971D02*
X165402917Y-115124828D01*
X164117203Y-115553400D02*
X163974346Y-115624828D01*
X163974346Y-115624828D02*
X163688632Y-115624828D01*
X163688632Y-115624828D02*
X163545775Y-115553400D01*
X163545775Y-115553400D02*
X163474346Y-115410542D01*
X163474346Y-115410542D02*
X163474346Y-115339114D01*
X163474346Y-115339114D02*
X163545775Y-115196257D01*
X163545775Y-115196257D02*
X163688632Y-115124828D01*
X163688632Y-115124828D02*
X163902918Y-115124828D01*
X163902918Y-115124828D02*
X164045775Y-115053400D01*
X164045775Y-115053400D02*
X164117203Y-114910542D01*
X164117203Y-114910542D02*
X164117203Y-114839114D01*
X164117203Y-114839114D02*
X164045775Y-114696257D01*
X164045775Y-114696257D02*
X163902918Y-114624828D01*
X163902918Y-114624828D02*
X163688632Y-114624828D01*
X163688632Y-114624828D02*
X163545775Y-114696257D01*
X162831489Y-115624828D02*
X162831489Y-114624828D01*
X162831489Y-114124828D02*
X162902917Y-114196257D01*
X162902917Y-114196257D02*
X162831489Y-114267685D01*
X162831489Y-114267685D02*
X162760060Y-114196257D01*
X162760060Y-114196257D02*
X162831489Y-114124828D01*
X162831489Y-114124828D02*
X162831489Y-114267685D01*
X161474346Y-114624828D02*
X161474346Y-115839114D01*
X161474346Y-115839114D02*
X161545774Y-115981971D01*
X161545774Y-115981971D02*
X161617203Y-116053400D01*
X161617203Y-116053400D02*
X161760060Y-116124828D01*
X161760060Y-116124828D02*
X161974346Y-116124828D01*
X161974346Y-116124828D02*
X162117203Y-116053400D01*
X161474346Y-115553400D02*
X161617203Y-115624828D01*
X161617203Y-115624828D02*
X161902917Y-115624828D01*
X161902917Y-115624828D02*
X162045774Y-115553400D01*
X162045774Y-115553400D02*
X162117203Y-115481971D01*
X162117203Y-115481971D02*
X162188631Y-115339114D01*
X162188631Y-115339114D02*
X162188631Y-114910542D01*
X162188631Y-114910542D02*
X162117203Y-114767685D01*
X162117203Y-114767685D02*
X162045774Y-114696257D01*
X162045774Y-114696257D02*
X161902917Y-114624828D01*
X161902917Y-114624828D02*
X161617203Y-114624828D01*
X161617203Y-114624828D02*
X161474346Y-114696257D01*
X160760060Y-114624828D02*
X160760060Y-115624828D01*
X160760060Y-114767685D02*
X160688631Y-114696257D01*
X160688631Y-114696257D02*
X160545774Y-114624828D01*
X160545774Y-114624828D02*
X160331488Y-114624828D01*
X160331488Y-114624828D02*
X160188631Y-114696257D01*
X160188631Y-114696257D02*
X160117203Y-114839114D01*
X160117203Y-114839114D02*
X160117203Y-115624828D01*
X158831488Y-115553400D02*
X158974345Y-115624828D01*
X158974345Y-115624828D02*
X159260060Y-115624828D01*
X159260060Y-115624828D02*
X159402917Y-115553400D01*
X159402917Y-115553400D02*
X159474345Y-115410542D01*
X159474345Y-115410542D02*
X159474345Y-114839114D01*
X159474345Y-114839114D02*
X159402917Y-114696257D01*
X159402917Y-114696257D02*
X159260060Y-114624828D01*
X159260060Y-114624828D02*
X158974345Y-114624828D01*
X158974345Y-114624828D02*
X158831488Y-114696257D01*
X158831488Y-114696257D02*
X158760060Y-114839114D01*
X158760060Y-114839114D02*
X158760060Y-114981971D01*
X158760060Y-114981971D02*
X159474345Y-115124828D01*
X157474346Y-115624828D02*
X157474346Y-114124828D01*
X157474346Y-115553400D02*
X157617203Y-115624828D01*
X157617203Y-115624828D02*
X157902917Y-115624828D01*
X157902917Y-115624828D02*
X158045774Y-115553400D01*
X158045774Y-115553400D02*
X158117203Y-115481971D01*
X158117203Y-115481971D02*
X158188631Y-115339114D01*
X158188631Y-115339114D02*
X158188631Y-114910542D01*
X158188631Y-114910542D02*
X158117203Y-114767685D01*
X158117203Y-114767685D02*
X158045774Y-114696257D01*
X158045774Y-114696257D02*
X157902917Y-114624828D01*
X157902917Y-114624828D02*
X157617203Y-114624828D01*
X157617203Y-114624828D02*
X157474346Y-114696257D01*
X155617203Y-115624828D02*
X155617203Y-114124828D01*
X155617203Y-114696257D02*
X155474346Y-114624828D01*
X155474346Y-114624828D02*
X155188631Y-114624828D01*
X155188631Y-114624828D02*
X155045774Y-114696257D01*
X155045774Y-114696257D02*
X154974346Y-114767685D01*
X154974346Y-114767685D02*
X154902917Y-114910542D01*
X154902917Y-114910542D02*
X154902917Y-115339114D01*
X154902917Y-115339114D02*
X154974346Y-115481971D01*
X154974346Y-115481971D02*
X155045774Y-115553400D01*
X155045774Y-115553400D02*
X155188631Y-115624828D01*
X155188631Y-115624828D02*
X155474346Y-115624828D01*
X155474346Y-115624828D02*
X155617203Y-115553400D01*
X154402917Y-114624828D02*
X154045774Y-115624828D01*
X153688631Y-114624828D02*
X154045774Y-115624828D01*
X154045774Y-115624828D02*
X154188631Y-115981971D01*
X154188631Y-115981971D02*
X154260060Y-116053400D01*
X154260060Y-116053400D02*
X154402917Y-116124828D01*
X152045774Y-115196257D02*
X151331489Y-115196257D01*
X152188631Y-115624828D02*
X151688631Y-114124828D01*
X151688631Y-114124828D02*
X151188631Y-115624828D01*
X150474346Y-115624828D02*
X150617203Y-115553400D01*
X150617203Y-115553400D02*
X150688632Y-115410542D01*
X150688632Y-115410542D02*
X150688632Y-114124828D01*
X149260061Y-115624828D02*
X149260061Y-114839114D01*
X149260061Y-114839114D02*
X149331489Y-114696257D01*
X149331489Y-114696257D02*
X149474346Y-114624828D01*
X149474346Y-114624828D02*
X149760061Y-114624828D01*
X149760061Y-114624828D02*
X149902918Y-114696257D01*
X149260061Y-115553400D02*
X149402918Y-115624828D01*
X149402918Y-115624828D02*
X149760061Y-115624828D01*
X149760061Y-115624828D02*
X149902918Y-115553400D01*
X149902918Y-115553400D02*
X149974346Y-115410542D01*
X149974346Y-115410542D02*
X149974346Y-115267685D01*
X149974346Y-115267685D02*
X149902918Y-115124828D01*
X149902918Y-115124828D02*
X149760061Y-115053400D01*
X149760061Y-115053400D02*
X149402918Y-115053400D01*
X149402918Y-115053400D02*
X149260061Y-114981971D01*
X148545775Y-114624828D02*
X148545775Y-115624828D01*
X148545775Y-114767685D02*
X148474346Y-114696257D01*
X148474346Y-114696257D02*
X148331489Y-114624828D01*
X148331489Y-114624828D02*
X148117203Y-114624828D01*
X148117203Y-114624828D02*
X147974346Y-114696257D01*
X147974346Y-114696257D02*
X147902918Y-114839114D01*
X147902918Y-114839114D02*
X147902918Y-115624828D01*
X145188632Y-115481971D02*
X145260060Y-115553400D01*
X145260060Y-115553400D02*
X145474346Y-115624828D01*
X145474346Y-115624828D02*
X145617203Y-115624828D01*
X145617203Y-115624828D02*
X145831489Y-115553400D01*
X145831489Y-115553400D02*
X145974346Y-115410542D01*
X145974346Y-115410542D02*
X146045775Y-115267685D01*
X146045775Y-115267685D02*
X146117203Y-114981971D01*
X146117203Y-114981971D02*
X146117203Y-114767685D01*
X146117203Y-114767685D02*
X146045775Y-114481971D01*
X146045775Y-114481971D02*
X145974346Y-114339114D01*
X145974346Y-114339114D02*
X145831489Y-114196257D01*
X145831489Y-114196257D02*
X145617203Y-114124828D01*
X145617203Y-114124828D02*
X145474346Y-114124828D01*
X145474346Y-114124828D02*
X145260060Y-114196257D01*
X145260060Y-114196257D02*
X145188632Y-114267685D01*
X143902918Y-115624828D02*
X143902918Y-114839114D01*
X143902918Y-114839114D02*
X143974346Y-114696257D01*
X143974346Y-114696257D02*
X144117203Y-114624828D01*
X144117203Y-114624828D02*
X144402918Y-114624828D01*
X144402918Y-114624828D02*
X144545775Y-114696257D01*
X143902918Y-115553400D02*
X144045775Y-115624828D01*
X144045775Y-115624828D02*
X144402918Y-115624828D01*
X144402918Y-115624828D02*
X144545775Y-115553400D01*
X144545775Y-115553400D02*
X144617203Y-115410542D01*
X144617203Y-115410542D02*
X144617203Y-115267685D01*
X144617203Y-115267685D02*
X144545775Y-115124828D01*
X144545775Y-115124828D02*
X144402918Y-115053400D01*
X144402918Y-115053400D02*
X144045775Y-115053400D01*
X144045775Y-115053400D02*
X143902918Y-114981971D01*
X143188632Y-115624828D02*
X143188632Y-114624828D01*
X143188632Y-114910542D02*
X143117203Y-114767685D01*
X143117203Y-114767685D02*
X143045775Y-114696257D01*
X143045775Y-114696257D02*
X142902917Y-114624828D01*
X142902917Y-114624828D02*
X142760060Y-114624828D01*
X142402918Y-114624828D02*
X142045775Y-115624828D01*
X142045775Y-115624828D02*
X141688632Y-114624828D01*
X140474347Y-115624828D02*
X140474347Y-114839114D01*
X140474347Y-114839114D02*
X140545775Y-114696257D01*
X140545775Y-114696257D02*
X140688632Y-114624828D01*
X140688632Y-114624828D02*
X140974347Y-114624828D01*
X140974347Y-114624828D02*
X141117204Y-114696257D01*
X140474347Y-115553400D02*
X140617204Y-115624828D01*
X140617204Y-115624828D02*
X140974347Y-115624828D01*
X140974347Y-115624828D02*
X141117204Y-115553400D01*
X141117204Y-115553400D02*
X141188632Y-115410542D01*
X141188632Y-115410542D02*
X141188632Y-115267685D01*
X141188632Y-115267685D02*
X141117204Y-115124828D01*
X141117204Y-115124828D02*
X140974347Y-115053400D01*
X140974347Y-115053400D02*
X140617204Y-115053400D01*
X140617204Y-115053400D02*
X140474347Y-114981971D01*
X139545775Y-115624828D02*
X139688632Y-115553400D01*
X139688632Y-115553400D02*
X139760061Y-115410542D01*
X139760061Y-115410542D02*
X139760061Y-114124828D01*
X138974347Y-115624828D02*
X138974347Y-114124828D01*
X138331490Y-115624828D02*
X138331490Y-114839114D01*
X138331490Y-114839114D02*
X138402918Y-114696257D01*
X138402918Y-114696257D02*
X138545775Y-114624828D01*
X138545775Y-114624828D02*
X138760061Y-114624828D01*
X138760061Y-114624828D02*
X138902918Y-114696257D01*
X138902918Y-114696257D02*
X138974347Y-114767685D01*
X137402918Y-115624828D02*
X137545775Y-115553400D01*
X137545775Y-115553400D02*
X137617204Y-115481971D01*
X137617204Y-115481971D02*
X137688632Y-115339114D01*
X137688632Y-115339114D02*
X137688632Y-114910542D01*
X137688632Y-114910542D02*
X137617204Y-114767685D01*
X137617204Y-114767685D02*
X137545775Y-114696257D01*
X137545775Y-114696257D02*
X137402918Y-114624828D01*
X137402918Y-114624828D02*
X137188632Y-114624828D01*
X137188632Y-114624828D02*
X137045775Y-114696257D01*
X137045775Y-114696257D02*
X136974347Y-114767685D01*
X136974347Y-114767685D02*
X136902918Y-114910542D01*
X136902918Y-114910542D02*
X136902918Y-115339114D01*
X136902918Y-115339114D02*
X136974347Y-115481971D01*
X136974347Y-115481971D02*
X137045775Y-115553400D01*
X137045775Y-115553400D02*
X137188632Y-115624828D01*
X137188632Y-115624828D02*
X137402918Y-115624828D01*
%LPC*%
D12*
X163000000Y-88730000D03*
X163000000Y-91270000D03*
X173000000Y-88730000D03*
X173000000Y-91270000D03*
D13*
X123210000Y-115824000D03*
D14*
X120670000Y-115824000D03*
X123210000Y-118364000D03*
X120670000Y-118364000D03*
X123210000Y-120904000D03*
X120670000Y-120904000D03*
D15*
X155000000Y-66000000D03*
D16*
X167986800Y-124162500D03*
X160976800Y-124162500D03*
D17*
X166736800Y-126652500D03*
X162236800Y-126652500D03*
D18*
X172720000Y-104180000D03*
D19*
X172720000Y-106680000D03*
X172720000Y-109180000D03*
X172720000Y-111680000D03*
X172720000Y-114180000D03*
X172720000Y-116680000D03*
D20*
X130568000Y-116990000D03*
D21*
X130568000Y-123290000D03*
D22*
X135368000Y-119890000D03*
D15*
X121000000Y-127000000D03*
D23*
X138870000Y-124175000D03*
D24*
X141410000Y-124175000D03*
D15*
X139000000Y-66000000D03*
D12*
X145730000Y-74000000D03*
X148270000Y-74000000D03*
X145730000Y-64000000D03*
X148270000Y-64000000D03*
D25*
X129530000Y-93985000D03*
D26*
X129530000Y-91445000D03*
X121910000Y-91445000D03*
X121910000Y-93985000D03*
D27*
X123658000Y-105410000D03*
D28*
X121158000Y-105410000D03*
D12*
X157453948Y-77703948D03*
X159250000Y-79500000D03*
X164525016Y-70632880D03*
X166321068Y-72428932D03*
D15*
X173000000Y-127000000D03*
D29*
X134906001Y-71289432D03*
D30*
X124376296Y-84447415D03*
D31*
X126576001Y-85717415D03*
X128775705Y-86987415D03*
D32*
X146810000Y-123800000D03*
D33*
X146810000Y-127970000D03*
D32*
X155450000Y-123800000D03*
D33*
X155450000Y-127970000D03*
%LPD*%
M02*
