G04 #@! TF.GenerationSoftware,KiCad,Pcbnew,7.0.8*
G04 #@! TF.CreationDate,2024-02-21T14:15:02-03:00*
G04 #@! TF.ProjectId,Lidar PCB,4c696461-7220-4504-9342-2e6b69636164,1.0*
G04 #@! TF.SameCoordinates,Original*
G04 #@! TF.FileFunction,Legend,Top*
G04 #@! TF.FilePolarity,Positive*
%FSLAX46Y46*%
G04 Gerber Fmt 4.6, Leading zero omitted, Abs format (unit mm)*
G04 Created by KiCad (PCBNEW 7.0.8) date 2024-02-21 14:15:02*
%MOMM*%
%LPD*%
G01*
G04 APERTURE LIST*
G04 Aperture macros list*
%AMRoundRect*
0 Rectangle with rounded corners*
0 $1 Rounding radius*
0 $2 $3 $4 $5 $6 $7 $8 $9 X,Y pos of 4 corners*
0 Add a 4 corners polygon primitive as box body*
4,1,4,$2,$3,$4,$5,$6,$7,$8,$9,$2,$3,0*
0 Add four circle primitives for the rounded corners*
1,1,$1+$1,$2,$3*
1,1,$1+$1,$4,$5*
1,1,$1+$1,$6,$7*
1,1,$1+$1,$8,$9*
0 Add four rect primitives between the rounded corners*
20,1,$1+$1,$2,$3,$4,$5,0*
20,1,$1+$1,$4,$5,$6,$7,0*
20,1,$1+$1,$6,$7,$8,$9,0*
20,1,$1+$1,$8,$9,$2,$3,0*%
%AMHorizOval*
0 Thick line with rounded ends*
0 $1 width*
0 $2 $3 position (X,Y) of the first rounded end (center of the circle)*
0 $4 $5 position (X,Y) of the second rounded end (center of the circle)*
0 Add line between two ends*
20,1,$1,$2,$3,$4,$5,0*
0 Add two circle primitives to create the rounded ends*
1,1,$1,$2,$3*
1,1,$1,$4,$5*%
%AMRotRect*
0 Rectangle, with rotation*
0 The origin of the aperture is its center*
0 $1 length*
0 $2 width*
0 $3 Rotation angle, in degrees counterclockwise*
0 Add horizontal line*
21,1,$1,$2,0,0,$3*%
G04 Aperture macros list end*
%ADD10C,0.150000*%
%ADD11C,0.100000*%
%ADD12C,0.120000*%
%ADD13RoundRect,0.200000X-0.200000X-0.275000X0.200000X-0.275000X0.200000X0.275000X-0.200000X0.275000X0*%
%ADD14C,2.000000*%
%ADD15RoundRect,0.218750X-0.218750X-0.256250X0.218750X-0.256250X0.218750X0.256250X-0.218750X0.256250X0*%
%ADD16RoundRect,0.250000X0.475000X-0.250000X0.475000X0.250000X-0.475000X0.250000X-0.475000X-0.250000X0*%
%ADD17RoundRect,0.200000X-0.275000X0.200000X-0.275000X-0.200000X0.275000X-0.200000X0.275000X0.200000X0*%
%ADD18R,4.500000X2.000000*%
%ADD19RoundRect,0.250000X1.050000X0.550000X-1.050000X0.550000X-1.050000X-0.550000X1.050000X-0.550000X0*%
%ADD20R,0.550000X1.600000*%
%ADD21R,1.600000X0.550000*%
%ADD22R,1.700000X1.700000*%
%ADD23O,1.700000X1.700000*%
%ADD24C,2.500000*%
%ADD25RoundRect,0.200000X0.275000X-0.200000X0.275000X0.200000X-0.275000X0.200000X-0.275000X-0.200000X0*%
%ADD26C,2.100000*%
%ADD27C,1.750000*%
%ADD28RoundRect,0.250000X-0.725000X0.600000X-0.725000X-0.600000X0.725000X-0.600000X0.725000X0.600000X0*%
%ADD29O,1.950000X1.700000*%
%ADD30RoundRect,0.225000X-0.225000X-0.250000X0.225000X-0.250000X0.225000X0.250000X-0.225000X0.250000X0*%
%ADD31RoundRect,0.150000X-0.150000X0.825000X-0.150000X-0.825000X0.150000X-0.825000X0.150000X0.825000X0*%
%ADD32RoundRect,0.250000X-0.375000X-0.625000X0.375000X-0.625000X0.375000X0.625000X-0.375000X0.625000X0*%
%ADD33R,4.600000X2.000000*%
%ADD34O,4.200000X2.000000*%
%ADD35O,2.000000X4.200000*%
%ADD36RoundRect,0.250000X1.000000X0.650000X-1.000000X0.650000X-1.000000X-0.650000X1.000000X-0.650000X0*%
%ADD37R,1.800000X1.800000*%
%ADD38C,1.800000*%
%ADD39RoundRect,0.200000X0.200000X0.275000X-0.200000X0.275000X-0.200000X-0.275000X0.200000X-0.275000X0*%
%ADD40RoundRect,0.225000X0.250000X-0.225000X0.250000X0.225000X-0.250000X0.225000X-0.250000X-0.225000X0*%
%ADD41R,1.600000X1.600000*%
%ADD42O,1.600000X1.600000*%
%ADD43RoundRect,0.250000X0.600000X0.750000X-0.600000X0.750000X-0.600000X-0.750000X0.600000X-0.750000X0*%
%ADD44O,1.700000X2.000000*%
%ADD45HorizOval,3.500000X0.000000X0.000000X0.000000X0.000000X0*%
%ADD46RotRect,1.905000X2.000000X330.000000*%
%ADD47HorizOval,1.905000X-0.023750X-0.041136X0.023750X0.041136X0*%
%ADD48R,0.450000X1.750000*%
%ADD49RoundRect,0.225000X0.225000X0.250000X-0.225000X0.250000X-0.225000X-0.250000X0.225000X-0.250000X0*%
%ADD50R,0.600000X1.160000*%
%ADD51R,0.300000X1.160000*%
%ADD52O,0.900000X2.000000*%
%ADD53O,0.900000X1.700000*%
%ADD54R,1.500000X2.000000*%
%ADD55R,3.800000X2.000000*%
G04 APERTURE END LIST*
D10*
X159639000Y-122301000D02*
X159784674Y-122509064D01*
X166198098Y-116339716D02*
X166108305Y-116249899D01*
X159711844Y-122405014D02*
X159784674Y-122509064D01*
X169799000Y-123063000D02*
X169911935Y-123323534D01*
X169717340Y-123160283D02*
X169799000Y-123063000D01*
X166287896Y-116429507D02*
X166108305Y-116249899D01*
X167513000Y-121412000D02*
X169911935Y-123323534D01*
X169635729Y-123257561D02*
X169799000Y-123063000D01*
X169911935Y-123323534D02*
X169635729Y-123257561D01*
X159784674Y-122509064D02*
X159503781Y-122550720D01*
X161417000Y-121158000D02*
X159503781Y-122550720D01*
X166108305Y-116249899D02*
X166377697Y-116160100D01*
X166377697Y-116160100D02*
X166287896Y-116429507D01*
X163703000Y-118872000D02*
X166377697Y-116160100D01*
X159503781Y-122550720D02*
X159639000Y-122301000D01*
X172204142Y-122374819D02*
X171870809Y-121898628D01*
X171632714Y-122374819D02*
X171632714Y-121374819D01*
X171632714Y-121374819D02*
X172013666Y-121374819D01*
X172013666Y-121374819D02*
X172108904Y-121422438D01*
X172108904Y-121422438D02*
X172156523Y-121470057D01*
X172156523Y-121470057D02*
X172204142Y-121565295D01*
X172204142Y-121565295D02*
X172204142Y-121708152D01*
X172204142Y-121708152D02*
X172156523Y-121803390D01*
X172156523Y-121803390D02*
X172108904Y-121851009D01*
X172108904Y-121851009D02*
X172013666Y-121898628D01*
X172013666Y-121898628D02*
X171632714Y-121898628D01*
X173156523Y-122374819D02*
X172585095Y-122374819D01*
X172870809Y-122374819D02*
X172870809Y-121374819D01*
X172870809Y-121374819D02*
X172775571Y-121517676D01*
X172775571Y-121517676D02*
X172680333Y-121612914D01*
X172680333Y-121612914D02*
X172585095Y-121660533D01*
X174061285Y-121374819D02*
X173585095Y-121374819D01*
X173585095Y-121374819D02*
X173537476Y-121851009D01*
X173537476Y-121851009D02*
X173585095Y-121803390D01*
X173585095Y-121803390D02*
X173680333Y-121755771D01*
X173680333Y-121755771D02*
X173918428Y-121755771D01*
X173918428Y-121755771D02*
X174013666Y-121803390D01*
X174013666Y-121803390D02*
X174061285Y-121851009D01*
X174061285Y-121851009D02*
X174108904Y-121946247D01*
X174108904Y-121946247D02*
X174108904Y-122184342D01*
X174108904Y-122184342D02*
X174061285Y-122279580D01*
X174061285Y-122279580D02*
X174013666Y-122327200D01*
X174013666Y-122327200D02*
X173918428Y-122374819D01*
X173918428Y-122374819D02*
X173680333Y-122374819D01*
X173680333Y-122374819D02*
X173585095Y-122327200D01*
X173585095Y-122327200D02*
X173537476Y-122279580D01*
D11*
X167238095Y-85055419D02*
X167238095Y-85864942D01*
X167238095Y-85864942D02*
X167285714Y-85960180D01*
X167285714Y-85960180D02*
X167333333Y-86007800D01*
X167333333Y-86007800D02*
X167428571Y-86055419D01*
X167428571Y-86055419D02*
X167619047Y-86055419D01*
X167619047Y-86055419D02*
X167714285Y-86007800D01*
X167714285Y-86007800D02*
X167761904Y-85960180D01*
X167761904Y-85960180D02*
X167809523Y-85864942D01*
X167809523Y-85864942D02*
X167809523Y-85055419D01*
X168714285Y-85055419D02*
X168523809Y-85055419D01*
X168523809Y-85055419D02*
X168428571Y-85103038D01*
X168428571Y-85103038D02*
X168380952Y-85150657D01*
X168380952Y-85150657D02*
X168285714Y-85293514D01*
X168285714Y-85293514D02*
X168238095Y-85483990D01*
X168238095Y-85483990D02*
X168238095Y-85864942D01*
X168238095Y-85864942D02*
X168285714Y-85960180D01*
X168285714Y-85960180D02*
X168333333Y-86007800D01*
X168333333Y-86007800D02*
X168428571Y-86055419D01*
X168428571Y-86055419D02*
X168619047Y-86055419D01*
X168619047Y-86055419D02*
X168714285Y-86007800D01*
X168714285Y-86007800D02*
X168761904Y-85960180D01*
X168761904Y-85960180D02*
X168809523Y-85864942D01*
X168809523Y-85864942D02*
X168809523Y-85626847D01*
X168809523Y-85626847D02*
X168761904Y-85531609D01*
X168761904Y-85531609D02*
X168714285Y-85483990D01*
X168714285Y-85483990D02*
X168619047Y-85436371D01*
X168619047Y-85436371D02*
X168428571Y-85436371D01*
X168428571Y-85436371D02*
X168333333Y-85483990D01*
X168333333Y-85483990D02*
X168285714Y-85531609D01*
X168285714Y-85531609D02*
X168238095Y-85626847D01*
D10*
X166266905Y-118183819D02*
X166266905Y-117183819D01*
X166266905Y-117183819D02*
X166505000Y-117183819D01*
X166505000Y-117183819D02*
X166647857Y-117231438D01*
X166647857Y-117231438D02*
X166743095Y-117326676D01*
X166743095Y-117326676D02*
X166790714Y-117421914D01*
X166790714Y-117421914D02*
X166838333Y-117612390D01*
X166838333Y-117612390D02*
X166838333Y-117755247D01*
X166838333Y-117755247D02*
X166790714Y-117945723D01*
X166790714Y-117945723D02*
X166743095Y-118040961D01*
X166743095Y-118040961D02*
X166647857Y-118136200D01*
X166647857Y-118136200D02*
X166505000Y-118183819D01*
X166505000Y-118183819D02*
X166266905Y-118183819D01*
X167790714Y-118183819D02*
X167219286Y-118183819D01*
X167505000Y-118183819D02*
X167505000Y-117183819D01*
X167505000Y-117183819D02*
X167409762Y-117326676D01*
X167409762Y-117326676D02*
X167314524Y-117421914D01*
X167314524Y-117421914D02*
X167219286Y-117469533D01*
X133818333Y-99927580D02*
X133770714Y-99975200D01*
X133770714Y-99975200D02*
X133627857Y-100022819D01*
X133627857Y-100022819D02*
X133532619Y-100022819D01*
X133532619Y-100022819D02*
X133389762Y-99975200D01*
X133389762Y-99975200D02*
X133294524Y-99879961D01*
X133294524Y-99879961D02*
X133246905Y-99784723D01*
X133246905Y-99784723D02*
X133199286Y-99594247D01*
X133199286Y-99594247D02*
X133199286Y-99451390D01*
X133199286Y-99451390D02*
X133246905Y-99260914D01*
X133246905Y-99260914D02*
X133294524Y-99165676D01*
X133294524Y-99165676D02*
X133389762Y-99070438D01*
X133389762Y-99070438D02*
X133532619Y-99022819D01*
X133532619Y-99022819D02*
X133627857Y-99022819D01*
X133627857Y-99022819D02*
X133770714Y-99070438D01*
X133770714Y-99070438D02*
X133818333Y-99118057D01*
X134199286Y-99118057D02*
X134246905Y-99070438D01*
X134246905Y-99070438D02*
X134342143Y-99022819D01*
X134342143Y-99022819D02*
X134580238Y-99022819D01*
X134580238Y-99022819D02*
X134675476Y-99070438D01*
X134675476Y-99070438D02*
X134723095Y-99118057D01*
X134723095Y-99118057D02*
X134770714Y-99213295D01*
X134770714Y-99213295D02*
X134770714Y-99308533D01*
X134770714Y-99308533D02*
X134723095Y-99451390D01*
X134723095Y-99451390D02*
X134151667Y-100022819D01*
X134151667Y-100022819D02*
X134770714Y-100022819D01*
X143375142Y-121612819D02*
X143041809Y-121136628D01*
X142803714Y-121612819D02*
X142803714Y-120612819D01*
X142803714Y-120612819D02*
X143184666Y-120612819D01*
X143184666Y-120612819D02*
X143279904Y-120660438D01*
X143279904Y-120660438D02*
X143327523Y-120708057D01*
X143327523Y-120708057D02*
X143375142Y-120803295D01*
X143375142Y-120803295D02*
X143375142Y-120946152D01*
X143375142Y-120946152D02*
X143327523Y-121041390D01*
X143327523Y-121041390D02*
X143279904Y-121089009D01*
X143279904Y-121089009D02*
X143184666Y-121136628D01*
X143184666Y-121136628D02*
X142803714Y-121136628D01*
X144327523Y-121612819D02*
X143756095Y-121612819D01*
X144041809Y-121612819D02*
X144041809Y-120612819D01*
X144041809Y-120612819D02*
X143946571Y-120755676D01*
X143946571Y-120755676D02*
X143851333Y-120850914D01*
X143851333Y-120850914D02*
X143756095Y-120898533D01*
X145184666Y-120946152D02*
X145184666Y-121612819D01*
X144946571Y-120565200D02*
X144708476Y-121279485D01*
X144708476Y-121279485D02*
X145327523Y-121279485D01*
X165766809Y-105515628D02*
X165766809Y-105991819D01*
X165433476Y-104991819D02*
X165766809Y-105515628D01*
X165766809Y-105515628D02*
X166100142Y-104991819D01*
X166957285Y-105991819D02*
X166385857Y-105991819D01*
X166671571Y-105991819D02*
X166671571Y-104991819D01*
X166671571Y-104991819D02*
X166576333Y-105134676D01*
X166576333Y-105134676D02*
X166481095Y-105229914D01*
X166481095Y-105229914D02*
X166385857Y-105277533D01*
X125436333Y-109706580D02*
X125388714Y-109754200D01*
X125388714Y-109754200D02*
X125245857Y-109801819D01*
X125245857Y-109801819D02*
X125150619Y-109801819D01*
X125150619Y-109801819D02*
X125007762Y-109754200D01*
X125007762Y-109754200D02*
X124912524Y-109658961D01*
X124912524Y-109658961D02*
X124864905Y-109563723D01*
X124864905Y-109563723D02*
X124817286Y-109373247D01*
X124817286Y-109373247D02*
X124817286Y-109230390D01*
X124817286Y-109230390D02*
X124864905Y-109039914D01*
X124864905Y-109039914D02*
X124912524Y-108944676D01*
X124912524Y-108944676D02*
X125007762Y-108849438D01*
X125007762Y-108849438D02*
X125150619Y-108801819D01*
X125150619Y-108801819D02*
X125245857Y-108801819D01*
X125245857Y-108801819D02*
X125388714Y-108849438D01*
X125388714Y-108849438D02*
X125436333Y-108897057D01*
X125912524Y-109801819D02*
X126103000Y-109801819D01*
X126103000Y-109801819D02*
X126198238Y-109754200D01*
X126198238Y-109754200D02*
X126245857Y-109706580D01*
X126245857Y-109706580D02*
X126341095Y-109563723D01*
X126341095Y-109563723D02*
X126388714Y-109373247D01*
X126388714Y-109373247D02*
X126388714Y-108992295D01*
X126388714Y-108992295D02*
X126341095Y-108897057D01*
X126341095Y-108897057D02*
X126293476Y-108849438D01*
X126293476Y-108849438D02*
X126198238Y-108801819D01*
X126198238Y-108801819D02*
X126007762Y-108801819D01*
X126007762Y-108801819D02*
X125912524Y-108849438D01*
X125912524Y-108849438D02*
X125864905Y-108897057D01*
X125864905Y-108897057D02*
X125817286Y-108992295D01*
X125817286Y-108992295D02*
X125817286Y-109230390D01*
X125817286Y-109230390D02*
X125864905Y-109325628D01*
X125864905Y-109325628D02*
X125912524Y-109373247D01*
X125912524Y-109373247D02*
X126007762Y-109420866D01*
X126007762Y-109420866D02*
X126198238Y-109420866D01*
X126198238Y-109420866D02*
X126293476Y-109373247D01*
X126293476Y-109373247D02*
X126341095Y-109325628D01*
X126341095Y-109325628D02*
X126388714Y-109230390D01*
X151130095Y-111849819D02*
X151130095Y-112659342D01*
X151130095Y-112659342D02*
X151177714Y-112754580D01*
X151177714Y-112754580D02*
X151225333Y-112802200D01*
X151225333Y-112802200D02*
X151320571Y-112849819D01*
X151320571Y-112849819D02*
X151511047Y-112849819D01*
X151511047Y-112849819D02*
X151606285Y-112802200D01*
X151606285Y-112802200D02*
X151653904Y-112754580D01*
X151653904Y-112754580D02*
X151701523Y-112659342D01*
X151701523Y-112659342D02*
X151701523Y-111849819D01*
X152130095Y-111945057D02*
X152177714Y-111897438D01*
X152177714Y-111897438D02*
X152272952Y-111849819D01*
X152272952Y-111849819D02*
X152511047Y-111849819D01*
X152511047Y-111849819D02*
X152606285Y-111897438D01*
X152606285Y-111897438D02*
X152653904Y-111945057D01*
X152653904Y-111945057D02*
X152701523Y-112040295D01*
X152701523Y-112040295D02*
X152701523Y-112135533D01*
X152701523Y-112135533D02*
X152653904Y-112278390D01*
X152653904Y-112278390D02*
X152082476Y-112849819D01*
X152082476Y-112849819D02*
X152701523Y-112849819D01*
X123110666Y-122898819D02*
X123110666Y-123613104D01*
X123110666Y-123613104D02*
X123063047Y-123755961D01*
X123063047Y-123755961D02*
X122967809Y-123851200D01*
X122967809Y-123851200D02*
X122824952Y-123898819D01*
X122824952Y-123898819D02*
X122729714Y-123898819D01*
X124015428Y-123232152D02*
X124015428Y-123898819D01*
X123777333Y-122851200D02*
X123539238Y-123565485D01*
X123539238Y-123565485D02*
X124158285Y-123565485D01*
X118919810Y-123898819D02*
X118919810Y-122898819D01*
X119967428Y-123803580D02*
X119919809Y-123851200D01*
X119919809Y-123851200D02*
X119776952Y-123898819D01*
X119776952Y-123898819D02*
X119681714Y-123898819D01*
X119681714Y-123898819D02*
X119538857Y-123851200D01*
X119538857Y-123851200D02*
X119443619Y-123755961D01*
X119443619Y-123755961D02*
X119396000Y-123660723D01*
X119396000Y-123660723D02*
X119348381Y-123470247D01*
X119348381Y-123470247D02*
X119348381Y-123327390D01*
X119348381Y-123327390D02*
X119396000Y-123136914D01*
X119396000Y-123136914D02*
X119443619Y-123041676D01*
X119443619Y-123041676D02*
X119538857Y-122946438D01*
X119538857Y-122946438D02*
X119681714Y-122898819D01*
X119681714Y-122898819D02*
X119776952Y-122898819D01*
X119776952Y-122898819D02*
X119919809Y-122946438D01*
X119919809Y-122946438D02*
X119967428Y-122994057D01*
X120348381Y-123851200D02*
X120491238Y-123898819D01*
X120491238Y-123898819D02*
X120729333Y-123898819D01*
X120729333Y-123898819D02*
X120824571Y-123851200D01*
X120824571Y-123851200D02*
X120872190Y-123803580D01*
X120872190Y-123803580D02*
X120919809Y-123708342D01*
X120919809Y-123708342D02*
X120919809Y-123613104D01*
X120919809Y-123613104D02*
X120872190Y-123517866D01*
X120872190Y-123517866D02*
X120824571Y-123470247D01*
X120824571Y-123470247D02*
X120729333Y-123422628D01*
X120729333Y-123422628D02*
X120538857Y-123375009D01*
X120538857Y-123375009D02*
X120443619Y-123327390D01*
X120443619Y-123327390D02*
X120396000Y-123279771D01*
X120396000Y-123279771D02*
X120348381Y-123184533D01*
X120348381Y-123184533D02*
X120348381Y-123089295D01*
X120348381Y-123089295D02*
X120396000Y-122994057D01*
X120396000Y-122994057D02*
X120443619Y-122946438D01*
X120443619Y-122946438D02*
X120538857Y-122898819D01*
X120538857Y-122898819D02*
X120776952Y-122898819D01*
X120776952Y-122898819D02*
X120919809Y-122946438D01*
X121348381Y-123898819D02*
X121348381Y-122898819D01*
X121348381Y-122898819D02*
X121729333Y-122898819D01*
X121729333Y-122898819D02*
X121824571Y-122946438D01*
X121824571Y-122946438D02*
X121872190Y-122994057D01*
X121872190Y-122994057D02*
X121919809Y-123089295D01*
X121919809Y-123089295D02*
X121919809Y-123232152D01*
X121919809Y-123232152D02*
X121872190Y-123327390D01*
X121872190Y-123327390D02*
X121824571Y-123375009D01*
X121824571Y-123375009D02*
X121729333Y-123422628D01*
X121729333Y-123422628D02*
X121348381Y-123422628D01*
X152614333Y-118310819D02*
X152281000Y-117834628D01*
X152042905Y-118310819D02*
X152042905Y-117310819D01*
X152042905Y-117310819D02*
X152423857Y-117310819D01*
X152423857Y-117310819D02*
X152519095Y-117358438D01*
X152519095Y-117358438D02*
X152566714Y-117406057D01*
X152566714Y-117406057D02*
X152614333Y-117501295D01*
X152614333Y-117501295D02*
X152614333Y-117644152D01*
X152614333Y-117644152D02*
X152566714Y-117739390D01*
X152566714Y-117739390D02*
X152519095Y-117787009D01*
X152519095Y-117787009D02*
X152423857Y-117834628D01*
X152423857Y-117834628D02*
X152042905Y-117834628D01*
X153471476Y-117644152D02*
X153471476Y-118310819D01*
X153233381Y-117263200D02*
X152995286Y-117977485D01*
X152995286Y-117977485D02*
X153614333Y-117977485D01*
X163153467Y-125121200D02*
X163296324Y-125168819D01*
X163296324Y-125168819D02*
X163534419Y-125168819D01*
X163534419Y-125168819D02*
X163629657Y-125121200D01*
X163629657Y-125121200D02*
X163677276Y-125073580D01*
X163677276Y-125073580D02*
X163724895Y-124978342D01*
X163724895Y-124978342D02*
X163724895Y-124883104D01*
X163724895Y-124883104D02*
X163677276Y-124787866D01*
X163677276Y-124787866D02*
X163629657Y-124740247D01*
X163629657Y-124740247D02*
X163534419Y-124692628D01*
X163534419Y-124692628D02*
X163343943Y-124645009D01*
X163343943Y-124645009D02*
X163248705Y-124597390D01*
X163248705Y-124597390D02*
X163201086Y-124549771D01*
X163201086Y-124549771D02*
X163153467Y-124454533D01*
X163153467Y-124454533D02*
X163153467Y-124359295D01*
X163153467Y-124359295D02*
X163201086Y-124264057D01*
X163201086Y-124264057D02*
X163248705Y-124216438D01*
X163248705Y-124216438D02*
X163343943Y-124168819D01*
X163343943Y-124168819D02*
X163582038Y-124168819D01*
X163582038Y-124168819D02*
X163724895Y-124216438D01*
X164058229Y-124168819D02*
X164296324Y-125168819D01*
X164296324Y-125168819D02*
X164486800Y-124454533D01*
X164486800Y-124454533D02*
X164677276Y-125168819D01*
X164677276Y-125168819D02*
X164915372Y-124168819D01*
X165820133Y-125168819D02*
X165248705Y-125168819D01*
X165534419Y-125168819D02*
X165534419Y-124168819D01*
X165534419Y-124168819D02*
X165439181Y-124311676D01*
X165439181Y-124311676D02*
X165343943Y-124406914D01*
X165343943Y-124406914D02*
X165248705Y-124454533D01*
X163139618Y-123644819D02*
X162806285Y-123168628D01*
X162568190Y-123644819D02*
X162568190Y-122644819D01*
X162568190Y-122644819D02*
X162949142Y-122644819D01*
X162949142Y-122644819D02*
X163044380Y-122692438D01*
X163044380Y-122692438D02*
X163091999Y-122740057D01*
X163091999Y-122740057D02*
X163139618Y-122835295D01*
X163139618Y-122835295D02*
X163139618Y-122978152D01*
X163139618Y-122978152D02*
X163091999Y-123073390D01*
X163091999Y-123073390D02*
X163044380Y-123121009D01*
X163044380Y-123121009D02*
X162949142Y-123168628D01*
X162949142Y-123168628D02*
X162568190Y-123168628D01*
X163568190Y-123121009D02*
X163901523Y-123121009D01*
X164044380Y-123644819D02*
X163568190Y-123644819D01*
X163568190Y-123644819D02*
X163568190Y-122644819D01*
X163568190Y-122644819D02*
X164044380Y-122644819D01*
X164425333Y-123597200D02*
X164568190Y-123644819D01*
X164568190Y-123644819D02*
X164806285Y-123644819D01*
X164806285Y-123644819D02*
X164901523Y-123597200D01*
X164901523Y-123597200D02*
X164949142Y-123549580D01*
X164949142Y-123549580D02*
X164996761Y-123454342D01*
X164996761Y-123454342D02*
X164996761Y-123359104D01*
X164996761Y-123359104D02*
X164949142Y-123263866D01*
X164949142Y-123263866D02*
X164901523Y-123216247D01*
X164901523Y-123216247D02*
X164806285Y-123168628D01*
X164806285Y-123168628D02*
X164615809Y-123121009D01*
X164615809Y-123121009D02*
X164520571Y-123073390D01*
X164520571Y-123073390D02*
X164472952Y-123025771D01*
X164472952Y-123025771D02*
X164425333Y-122930533D01*
X164425333Y-122930533D02*
X164425333Y-122835295D01*
X164425333Y-122835295D02*
X164472952Y-122740057D01*
X164472952Y-122740057D02*
X164520571Y-122692438D01*
X164520571Y-122692438D02*
X164615809Y-122644819D01*
X164615809Y-122644819D02*
X164853904Y-122644819D01*
X164853904Y-122644819D02*
X164996761Y-122692438D01*
X165425333Y-123121009D02*
X165758666Y-123121009D01*
X165901523Y-123644819D02*
X165425333Y-123644819D01*
X165425333Y-123644819D02*
X165425333Y-122644819D01*
X165425333Y-122644819D02*
X165901523Y-122644819D01*
X166187238Y-122644819D02*
X166758666Y-122644819D01*
X166472952Y-123644819D02*
X166472952Y-122644819D01*
X172894666Y-119850819D02*
X172894666Y-120565104D01*
X172894666Y-120565104D02*
X172847047Y-120707961D01*
X172847047Y-120707961D02*
X172751809Y-120803200D01*
X172751809Y-120803200D02*
X172608952Y-120850819D01*
X172608952Y-120850819D02*
X172513714Y-120850819D01*
X173847047Y-119850819D02*
X173370857Y-119850819D01*
X173370857Y-119850819D02*
X173323238Y-120327009D01*
X173323238Y-120327009D02*
X173370857Y-120279390D01*
X173370857Y-120279390D02*
X173466095Y-120231771D01*
X173466095Y-120231771D02*
X173704190Y-120231771D01*
X173704190Y-120231771D02*
X173799428Y-120279390D01*
X173799428Y-120279390D02*
X173847047Y-120327009D01*
X173847047Y-120327009D02*
X173894666Y-120422247D01*
X173894666Y-120422247D02*
X173894666Y-120660342D01*
X173894666Y-120660342D02*
X173847047Y-120755580D01*
X173847047Y-120755580D02*
X173799428Y-120803200D01*
X173799428Y-120803200D02*
X173704190Y-120850819D01*
X173704190Y-120850819D02*
X173466095Y-120850819D01*
X173466095Y-120850819D02*
X173370857Y-120803200D01*
X173370857Y-120803200D02*
X173323238Y-120755580D01*
X170664380Y-100784819D02*
X170188190Y-100784819D01*
X170188190Y-100784819D02*
X170188190Y-99784819D01*
X170950095Y-100499104D02*
X171426285Y-100499104D01*
X170854857Y-100784819D02*
X171188190Y-99784819D01*
X171188190Y-99784819D02*
X171521523Y-100784819D01*
X171807238Y-100737200D02*
X171950095Y-100784819D01*
X171950095Y-100784819D02*
X172188190Y-100784819D01*
X172188190Y-100784819D02*
X172283428Y-100737200D01*
X172283428Y-100737200D02*
X172331047Y-100689580D01*
X172331047Y-100689580D02*
X172378666Y-100594342D01*
X172378666Y-100594342D02*
X172378666Y-100499104D01*
X172378666Y-100499104D02*
X172331047Y-100403866D01*
X172331047Y-100403866D02*
X172283428Y-100356247D01*
X172283428Y-100356247D02*
X172188190Y-100308628D01*
X172188190Y-100308628D02*
X171997714Y-100261009D01*
X171997714Y-100261009D02*
X171902476Y-100213390D01*
X171902476Y-100213390D02*
X171854857Y-100165771D01*
X171854857Y-100165771D02*
X171807238Y-100070533D01*
X171807238Y-100070533D02*
X171807238Y-99975295D01*
X171807238Y-99975295D02*
X171854857Y-99880057D01*
X171854857Y-99880057D02*
X171902476Y-99832438D01*
X171902476Y-99832438D02*
X171997714Y-99784819D01*
X171997714Y-99784819D02*
X172235809Y-99784819D01*
X172235809Y-99784819D02*
X172378666Y-99832438D01*
X172807238Y-100261009D02*
X173140571Y-100261009D01*
X173283428Y-100784819D02*
X172807238Y-100784819D01*
X172807238Y-100784819D02*
X172807238Y-99784819D01*
X172807238Y-99784819D02*
X173283428Y-99784819D01*
X174283428Y-100784819D02*
X173950095Y-100308628D01*
X173712000Y-100784819D02*
X173712000Y-99784819D01*
X173712000Y-99784819D02*
X174092952Y-99784819D01*
X174092952Y-99784819D02*
X174188190Y-99832438D01*
X174188190Y-99832438D02*
X174235809Y-99880057D01*
X174235809Y-99880057D02*
X174283428Y-99975295D01*
X174283428Y-99975295D02*
X174283428Y-100118152D01*
X174283428Y-100118152D02*
X174235809Y-100213390D01*
X174235809Y-100213390D02*
X174188190Y-100261009D01*
X174188190Y-100261009D02*
X174092952Y-100308628D01*
X174092952Y-100308628D02*
X173712000Y-100308628D01*
X139914333Y-119231580D02*
X139866714Y-119279200D01*
X139866714Y-119279200D02*
X139723857Y-119326819D01*
X139723857Y-119326819D02*
X139628619Y-119326819D01*
X139628619Y-119326819D02*
X139485762Y-119279200D01*
X139485762Y-119279200D02*
X139390524Y-119183961D01*
X139390524Y-119183961D02*
X139342905Y-119088723D01*
X139342905Y-119088723D02*
X139295286Y-118898247D01*
X139295286Y-118898247D02*
X139295286Y-118755390D01*
X139295286Y-118755390D02*
X139342905Y-118564914D01*
X139342905Y-118564914D02*
X139390524Y-118469676D01*
X139390524Y-118469676D02*
X139485762Y-118374438D01*
X139485762Y-118374438D02*
X139628619Y-118326819D01*
X139628619Y-118326819D02*
X139723857Y-118326819D01*
X139723857Y-118326819D02*
X139866714Y-118374438D01*
X139866714Y-118374438D02*
X139914333Y-118422057D01*
X140771476Y-118660152D02*
X140771476Y-119326819D01*
X140533381Y-118279200D02*
X140295286Y-118993485D01*
X140295286Y-118993485D02*
X140914333Y-118993485D01*
X159585819Y-123737666D02*
X159109628Y-124070999D01*
X159585819Y-124309094D02*
X158585819Y-124309094D01*
X158585819Y-124309094D02*
X158585819Y-123928142D01*
X158585819Y-123928142D02*
X158633438Y-123832904D01*
X158633438Y-123832904D02*
X158681057Y-123785285D01*
X158681057Y-123785285D02*
X158776295Y-123737666D01*
X158776295Y-123737666D02*
X158919152Y-123737666D01*
X158919152Y-123737666D02*
X159014390Y-123785285D01*
X159014390Y-123785285D02*
X159062009Y-123832904D01*
X159062009Y-123832904D02*
X159109628Y-123928142D01*
X159109628Y-123928142D02*
X159109628Y-124309094D01*
X158681057Y-123356713D02*
X158633438Y-123309094D01*
X158633438Y-123309094D02*
X158585819Y-123213856D01*
X158585819Y-123213856D02*
X158585819Y-122975761D01*
X158585819Y-122975761D02*
X158633438Y-122880523D01*
X158633438Y-122880523D02*
X158681057Y-122832904D01*
X158681057Y-122832904D02*
X158776295Y-122785285D01*
X158776295Y-122785285D02*
X158871533Y-122785285D01*
X158871533Y-122785285D02*
X159014390Y-122832904D01*
X159014390Y-122832904D02*
X159585819Y-123404332D01*
X159585819Y-123404332D02*
X159585819Y-122785285D01*
X153789142Y-70558819D02*
X153455809Y-70082628D01*
X153217714Y-70558819D02*
X153217714Y-69558819D01*
X153217714Y-69558819D02*
X153598666Y-69558819D01*
X153598666Y-69558819D02*
X153693904Y-69606438D01*
X153693904Y-69606438D02*
X153741523Y-69654057D01*
X153741523Y-69654057D02*
X153789142Y-69749295D01*
X153789142Y-69749295D02*
X153789142Y-69892152D01*
X153789142Y-69892152D02*
X153741523Y-69987390D01*
X153741523Y-69987390D02*
X153693904Y-70035009D01*
X153693904Y-70035009D02*
X153598666Y-70082628D01*
X153598666Y-70082628D02*
X153217714Y-70082628D01*
X154741523Y-70558819D02*
X154170095Y-70558819D01*
X154455809Y-70558819D02*
X154455809Y-69558819D01*
X154455809Y-69558819D02*
X154360571Y-69701676D01*
X154360571Y-69701676D02*
X154265333Y-69796914D01*
X154265333Y-69796914D02*
X154170095Y-69844533D01*
X155122476Y-69654057D02*
X155170095Y-69606438D01*
X155170095Y-69606438D02*
X155265333Y-69558819D01*
X155265333Y-69558819D02*
X155503428Y-69558819D01*
X155503428Y-69558819D02*
X155598666Y-69606438D01*
X155598666Y-69606438D02*
X155646285Y-69654057D01*
X155646285Y-69654057D02*
X155693904Y-69749295D01*
X155693904Y-69749295D02*
X155693904Y-69844533D01*
X155693904Y-69844533D02*
X155646285Y-69987390D01*
X155646285Y-69987390D02*
X155074857Y-70558819D01*
X155074857Y-70558819D02*
X155693904Y-70558819D01*
X168783095Y-97879819D02*
X168783095Y-98689342D01*
X168783095Y-98689342D02*
X168830714Y-98784580D01*
X168830714Y-98784580D02*
X168878333Y-98832200D01*
X168878333Y-98832200D02*
X168973571Y-98879819D01*
X168973571Y-98879819D02*
X169164047Y-98879819D01*
X169164047Y-98879819D02*
X169259285Y-98832200D01*
X169259285Y-98832200D02*
X169306904Y-98784580D01*
X169306904Y-98784580D02*
X169354523Y-98689342D01*
X169354523Y-98689342D02*
X169354523Y-97879819D01*
X170306904Y-97879819D02*
X169830714Y-97879819D01*
X169830714Y-97879819D02*
X169783095Y-98356009D01*
X169783095Y-98356009D02*
X169830714Y-98308390D01*
X169830714Y-98308390D02*
X169925952Y-98260771D01*
X169925952Y-98260771D02*
X170164047Y-98260771D01*
X170164047Y-98260771D02*
X170259285Y-98308390D01*
X170259285Y-98308390D02*
X170306904Y-98356009D01*
X170306904Y-98356009D02*
X170354523Y-98451247D01*
X170354523Y-98451247D02*
X170354523Y-98689342D01*
X170354523Y-98689342D02*
X170306904Y-98784580D01*
X170306904Y-98784580D02*
X170259285Y-98832200D01*
X170259285Y-98832200D02*
X170164047Y-98879819D01*
X170164047Y-98879819D02*
X169925952Y-98879819D01*
X169925952Y-98879819D02*
X169830714Y-98832200D01*
X169830714Y-98832200D02*
X169783095Y-98784580D01*
X128698666Y-111395009D02*
X128365333Y-111395009D01*
X128365333Y-111918819D02*
X128365333Y-110918819D01*
X128365333Y-110918819D02*
X128841523Y-110918819D01*
X129746285Y-111918819D02*
X129174857Y-111918819D01*
X129460571Y-111918819D02*
X129460571Y-110918819D01*
X129460571Y-110918819D02*
X129365333Y-111061676D01*
X129365333Y-111061676D02*
X129270095Y-111156914D01*
X129270095Y-111156914D02*
X129174857Y-111204533D01*
X133651666Y-114389819D02*
X133651666Y-115104104D01*
X133651666Y-115104104D02*
X133604047Y-115246961D01*
X133604047Y-115246961D02*
X133508809Y-115342200D01*
X133508809Y-115342200D02*
X133365952Y-115389819D01*
X133365952Y-115389819D02*
X133270714Y-115389819D01*
X134651666Y-115389819D02*
X134080238Y-115389819D01*
X134365952Y-115389819D02*
X134365952Y-114389819D01*
X134365952Y-114389819D02*
X134270714Y-114532676D01*
X134270714Y-114532676D02*
X134175476Y-114627914D01*
X134175476Y-114627914D02*
X134080238Y-114675533D01*
X136979819Y-129309523D02*
X135979819Y-129309523D01*
X135979819Y-129309523D02*
X135979819Y-128928571D01*
X135979819Y-128928571D02*
X136027438Y-128833333D01*
X136027438Y-128833333D02*
X136075057Y-128785714D01*
X136075057Y-128785714D02*
X136170295Y-128738095D01*
X136170295Y-128738095D02*
X136313152Y-128738095D01*
X136313152Y-128738095D02*
X136408390Y-128785714D01*
X136408390Y-128785714D02*
X136456009Y-128833333D01*
X136456009Y-128833333D02*
X136503628Y-128928571D01*
X136503628Y-128928571D02*
X136503628Y-129309523D01*
X135979819Y-128119047D02*
X135979819Y-127928571D01*
X135979819Y-127928571D02*
X136027438Y-127833333D01*
X136027438Y-127833333D02*
X136122676Y-127738095D01*
X136122676Y-127738095D02*
X136313152Y-127690476D01*
X136313152Y-127690476D02*
X136646485Y-127690476D01*
X136646485Y-127690476D02*
X136836961Y-127738095D01*
X136836961Y-127738095D02*
X136932200Y-127833333D01*
X136932200Y-127833333D02*
X136979819Y-127928571D01*
X136979819Y-127928571D02*
X136979819Y-128119047D01*
X136979819Y-128119047D02*
X136932200Y-128214285D01*
X136932200Y-128214285D02*
X136836961Y-128309523D01*
X136836961Y-128309523D02*
X136646485Y-128357142D01*
X136646485Y-128357142D02*
X136313152Y-128357142D01*
X136313152Y-128357142D02*
X136122676Y-128309523D01*
X136122676Y-128309523D02*
X136027438Y-128214285D01*
X136027438Y-128214285D02*
X135979819Y-128119047D01*
X135979819Y-127357142D02*
X136979819Y-127119047D01*
X136979819Y-127119047D02*
X136265533Y-126928571D01*
X136265533Y-126928571D02*
X136979819Y-126738095D01*
X136979819Y-126738095D02*
X135979819Y-126500000D01*
X136456009Y-126119047D02*
X136456009Y-125785714D01*
X136979819Y-125642857D02*
X136979819Y-126119047D01*
X136979819Y-126119047D02*
X135979819Y-126119047D01*
X135979819Y-126119047D02*
X135979819Y-125642857D01*
X136979819Y-124642857D02*
X136503628Y-124976190D01*
X136979819Y-125214285D02*
X135979819Y-125214285D01*
X135979819Y-125214285D02*
X135979819Y-124833333D01*
X135979819Y-124833333D02*
X136027438Y-124738095D01*
X136027438Y-124738095D02*
X136075057Y-124690476D01*
X136075057Y-124690476D02*
X136170295Y-124642857D01*
X136170295Y-124642857D02*
X136313152Y-124642857D01*
X136313152Y-124642857D02*
X136408390Y-124690476D01*
X136408390Y-124690476D02*
X136456009Y-124738095D01*
X136456009Y-124738095D02*
X136503628Y-124833333D01*
X136503628Y-124833333D02*
X136503628Y-125214285D01*
X121689905Y-97101819D02*
X121689905Y-96101819D01*
X121689905Y-96101819D02*
X121928000Y-96101819D01*
X121928000Y-96101819D02*
X122070857Y-96149438D01*
X122070857Y-96149438D02*
X122166095Y-96244676D01*
X122166095Y-96244676D02*
X122213714Y-96339914D01*
X122213714Y-96339914D02*
X122261333Y-96530390D01*
X122261333Y-96530390D02*
X122261333Y-96673247D01*
X122261333Y-96673247D02*
X122213714Y-96863723D01*
X122213714Y-96863723D02*
X122166095Y-96958961D01*
X122166095Y-96958961D02*
X122070857Y-97054200D01*
X122070857Y-97054200D02*
X121928000Y-97101819D01*
X121928000Y-97101819D02*
X121689905Y-97101819D01*
X122594667Y-96101819D02*
X123213714Y-96101819D01*
X123213714Y-96101819D02*
X122880381Y-96482771D01*
X122880381Y-96482771D02*
X123023238Y-96482771D01*
X123023238Y-96482771D02*
X123118476Y-96530390D01*
X123118476Y-96530390D02*
X123166095Y-96578009D01*
X123166095Y-96578009D02*
X123213714Y-96673247D01*
X123213714Y-96673247D02*
X123213714Y-96911342D01*
X123213714Y-96911342D02*
X123166095Y-97006580D01*
X123166095Y-97006580D02*
X123118476Y-97054200D01*
X123118476Y-97054200D02*
X123023238Y-97101819D01*
X123023238Y-97101819D02*
X122737524Y-97101819D01*
X122737524Y-97101819D02*
X122642286Y-97054200D01*
X122642286Y-97054200D02*
X122594667Y-97006580D01*
X142898905Y-127962819D02*
X142898905Y-126962819D01*
X142898905Y-126962819D02*
X143137000Y-126962819D01*
X143137000Y-126962819D02*
X143279857Y-127010438D01*
X143279857Y-127010438D02*
X143375095Y-127105676D01*
X143375095Y-127105676D02*
X143422714Y-127200914D01*
X143422714Y-127200914D02*
X143470333Y-127391390D01*
X143470333Y-127391390D02*
X143470333Y-127534247D01*
X143470333Y-127534247D02*
X143422714Y-127724723D01*
X143422714Y-127724723D02*
X143375095Y-127819961D01*
X143375095Y-127819961D02*
X143279857Y-127915200D01*
X143279857Y-127915200D02*
X143137000Y-127962819D01*
X143137000Y-127962819D02*
X142898905Y-127962819D01*
X143946524Y-127962819D02*
X144137000Y-127962819D01*
X144137000Y-127962819D02*
X144232238Y-127915200D01*
X144232238Y-127915200D02*
X144279857Y-127867580D01*
X144279857Y-127867580D02*
X144375095Y-127724723D01*
X144375095Y-127724723D02*
X144422714Y-127534247D01*
X144422714Y-127534247D02*
X144422714Y-127153295D01*
X144422714Y-127153295D02*
X144375095Y-127058057D01*
X144375095Y-127058057D02*
X144327476Y-127010438D01*
X144327476Y-127010438D02*
X144232238Y-126962819D01*
X144232238Y-126962819D02*
X144041762Y-126962819D01*
X144041762Y-126962819D02*
X143946524Y-127010438D01*
X143946524Y-127010438D02*
X143898905Y-127058057D01*
X143898905Y-127058057D02*
X143851286Y-127153295D01*
X143851286Y-127153295D02*
X143851286Y-127391390D01*
X143851286Y-127391390D02*
X143898905Y-127486628D01*
X143898905Y-127486628D02*
X143946524Y-127534247D01*
X143946524Y-127534247D02*
X144041762Y-127581866D01*
X144041762Y-127581866D02*
X144232238Y-127581866D01*
X144232238Y-127581866D02*
X144327476Y-127534247D01*
X144327476Y-127534247D02*
X144375095Y-127486628D01*
X144375095Y-127486628D02*
X144422714Y-127391390D01*
X131659333Y-95577819D02*
X131326000Y-95101628D01*
X131087905Y-95577819D02*
X131087905Y-94577819D01*
X131087905Y-94577819D02*
X131468857Y-94577819D01*
X131468857Y-94577819D02*
X131564095Y-94625438D01*
X131564095Y-94625438D02*
X131611714Y-94673057D01*
X131611714Y-94673057D02*
X131659333Y-94768295D01*
X131659333Y-94768295D02*
X131659333Y-94911152D01*
X131659333Y-94911152D02*
X131611714Y-95006390D01*
X131611714Y-95006390D02*
X131564095Y-95054009D01*
X131564095Y-95054009D02*
X131468857Y-95101628D01*
X131468857Y-95101628D02*
X131087905Y-95101628D01*
X132516476Y-94577819D02*
X132326000Y-94577819D01*
X132326000Y-94577819D02*
X132230762Y-94625438D01*
X132230762Y-94625438D02*
X132183143Y-94673057D01*
X132183143Y-94673057D02*
X132087905Y-94815914D01*
X132087905Y-94815914D02*
X132040286Y-95006390D01*
X132040286Y-95006390D02*
X132040286Y-95387342D01*
X132040286Y-95387342D02*
X132087905Y-95482580D01*
X132087905Y-95482580D02*
X132135524Y-95530200D01*
X132135524Y-95530200D02*
X132230762Y-95577819D01*
X132230762Y-95577819D02*
X132421238Y-95577819D01*
X132421238Y-95577819D02*
X132516476Y-95530200D01*
X132516476Y-95530200D02*
X132564095Y-95482580D01*
X132564095Y-95482580D02*
X132611714Y-95387342D01*
X132611714Y-95387342D02*
X132611714Y-95149247D01*
X132611714Y-95149247D02*
X132564095Y-95054009D01*
X132564095Y-95054009D02*
X132516476Y-95006390D01*
X132516476Y-95006390D02*
X132421238Y-94958771D01*
X132421238Y-94958771D02*
X132230762Y-94958771D01*
X132230762Y-94958771D02*
X132135524Y-95006390D01*
X132135524Y-95006390D02*
X132087905Y-95054009D01*
X132087905Y-95054009D02*
X132040286Y-95149247D01*
X127722333Y-99927580D02*
X127674714Y-99975200D01*
X127674714Y-99975200D02*
X127531857Y-100022819D01*
X127531857Y-100022819D02*
X127436619Y-100022819D01*
X127436619Y-100022819D02*
X127293762Y-99975200D01*
X127293762Y-99975200D02*
X127198524Y-99879961D01*
X127198524Y-99879961D02*
X127150905Y-99784723D01*
X127150905Y-99784723D02*
X127103286Y-99594247D01*
X127103286Y-99594247D02*
X127103286Y-99451390D01*
X127103286Y-99451390D02*
X127150905Y-99260914D01*
X127150905Y-99260914D02*
X127198524Y-99165676D01*
X127198524Y-99165676D02*
X127293762Y-99070438D01*
X127293762Y-99070438D02*
X127436619Y-99022819D01*
X127436619Y-99022819D02*
X127531857Y-99022819D01*
X127531857Y-99022819D02*
X127674714Y-99070438D01*
X127674714Y-99070438D02*
X127722333Y-99118057D01*
X128674714Y-100022819D02*
X128103286Y-100022819D01*
X128389000Y-100022819D02*
X128389000Y-99022819D01*
X128389000Y-99022819D02*
X128293762Y-99165676D01*
X128293762Y-99165676D02*
X128198524Y-99260914D01*
X128198524Y-99260914D02*
X128103286Y-99308533D01*
X140190333Y-105388580D02*
X140142714Y-105436200D01*
X140142714Y-105436200D02*
X139999857Y-105483819D01*
X139999857Y-105483819D02*
X139904619Y-105483819D01*
X139904619Y-105483819D02*
X139761762Y-105436200D01*
X139761762Y-105436200D02*
X139666524Y-105340961D01*
X139666524Y-105340961D02*
X139618905Y-105245723D01*
X139618905Y-105245723D02*
X139571286Y-105055247D01*
X139571286Y-105055247D02*
X139571286Y-104912390D01*
X139571286Y-104912390D02*
X139618905Y-104721914D01*
X139618905Y-104721914D02*
X139666524Y-104626676D01*
X139666524Y-104626676D02*
X139761762Y-104531438D01*
X139761762Y-104531438D02*
X139904619Y-104483819D01*
X139904619Y-104483819D02*
X139999857Y-104483819D01*
X139999857Y-104483819D02*
X140142714Y-104531438D01*
X140142714Y-104531438D02*
X140190333Y-104579057D01*
X141047476Y-104483819D02*
X140857000Y-104483819D01*
X140857000Y-104483819D02*
X140761762Y-104531438D01*
X140761762Y-104531438D02*
X140714143Y-104579057D01*
X140714143Y-104579057D02*
X140618905Y-104721914D01*
X140618905Y-104721914D02*
X140571286Y-104912390D01*
X140571286Y-104912390D02*
X140571286Y-105293342D01*
X140571286Y-105293342D02*
X140618905Y-105388580D01*
X140618905Y-105388580D02*
X140666524Y-105436200D01*
X140666524Y-105436200D02*
X140761762Y-105483819D01*
X140761762Y-105483819D02*
X140952238Y-105483819D01*
X140952238Y-105483819D02*
X141047476Y-105436200D01*
X141047476Y-105436200D02*
X141095095Y-105388580D01*
X141095095Y-105388580D02*
X141142714Y-105293342D01*
X141142714Y-105293342D02*
X141142714Y-105055247D01*
X141142714Y-105055247D02*
X141095095Y-104960009D01*
X141095095Y-104960009D02*
X141047476Y-104912390D01*
X141047476Y-104912390D02*
X140952238Y-104864771D01*
X140952238Y-104864771D02*
X140761762Y-104864771D01*
X140761762Y-104864771D02*
X140666524Y-104912390D01*
X140666524Y-104912390D02*
X140618905Y-104960009D01*
X140618905Y-104960009D02*
X140571286Y-105055247D01*
X167219333Y-116405819D02*
X166886000Y-115929628D01*
X166647905Y-116405819D02*
X166647905Y-115405819D01*
X166647905Y-115405819D02*
X167028857Y-115405819D01*
X167028857Y-115405819D02*
X167124095Y-115453438D01*
X167124095Y-115453438D02*
X167171714Y-115501057D01*
X167171714Y-115501057D02*
X167219333Y-115596295D01*
X167219333Y-115596295D02*
X167219333Y-115739152D01*
X167219333Y-115739152D02*
X167171714Y-115834390D01*
X167171714Y-115834390D02*
X167124095Y-115882009D01*
X167124095Y-115882009D02*
X167028857Y-115929628D01*
X167028857Y-115929628D02*
X166647905Y-115929628D01*
X168171714Y-116405819D02*
X167600286Y-116405819D01*
X167886000Y-116405819D02*
X167886000Y-115405819D01*
X167886000Y-115405819D02*
X167790762Y-115548676D01*
X167790762Y-115548676D02*
X167695524Y-115643914D01*
X167695524Y-115643914D02*
X167600286Y-115691533D01*
D11*
X141478095Y-68457419D02*
X141478095Y-69266942D01*
X141478095Y-69266942D02*
X141525714Y-69362180D01*
X141525714Y-69362180D02*
X141573333Y-69409800D01*
X141573333Y-69409800D02*
X141668571Y-69457419D01*
X141668571Y-69457419D02*
X141859047Y-69457419D01*
X141859047Y-69457419D02*
X141954285Y-69409800D01*
X141954285Y-69409800D02*
X142001904Y-69362180D01*
X142001904Y-69362180D02*
X142049523Y-69266942D01*
X142049523Y-69266942D02*
X142049523Y-68457419D01*
X142430476Y-68457419D02*
X143097142Y-68457419D01*
X143097142Y-68457419D02*
X142668571Y-69457419D01*
D10*
X163182142Y-84020819D02*
X162848809Y-83544628D01*
X162610714Y-84020819D02*
X162610714Y-83020819D01*
X162610714Y-83020819D02*
X162991666Y-83020819D01*
X162991666Y-83020819D02*
X163086904Y-83068438D01*
X163086904Y-83068438D02*
X163134523Y-83116057D01*
X163134523Y-83116057D02*
X163182142Y-83211295D01*
X163182142Y-83211295D02*
X163182142Y-83354152D01*
X163182142Y-83354152D02*
X163134523Y-83449390D01*
X163134523Y-83449390D02*
X163086904Y-83497009D01*
X163086904Y-83497009D02*
X162991666Y-83544628D01*
X162991666Y-83544628D02*
X162610714Y-83544628D01*
X164134523Y-84020819D02*
X163563095Y-84020819D01*
X163848809Y-84020819D02*
X163848809Y-83020819D01*
X163848809Y-83020819D02*
X163753571Y-83163676D01*
X163753571Y-83163676D02*
X163658333Y-83258914D01*
X163658333Y-83258914D02*
X163563095Y-83306533D01*
X164753571Y-83020819D02*
X164848809Y-83020819D01*
X164848809Y-83020819D02*
X164944047Y-83068438D01*
X164944047Y-83068438D02*
X164991666Y-83116057D01*
X164991666Y-83116057D02*
X165039285Y-83211295D01*
X165039285Y-83211295D02*
X165086904Y-83401771D01*
X165086904Y-83401771D02*
X165086904Y-83639866D01*
X165086904Y-83639866D02*
X165039285Y-83830342D01*
X165039285Y-83830342D02*
X164991666Y-83925580D01*
X164991666Y-83925580D02*
X164944047Y-83973200D01*
X164944047Y-83973200D02*
X164848809Y-84020819D01*
X164848809Y-84020819D02*
X164753571Y-84020819D01*
X164753571Y-84020819D02*
X164658333Y-83973200D01*
X164658333Y-83973200D02*
X164610714Y-83925580D01*
X164610714Y-83925580D02*
X164563095Y-83830342D01*
X164563095Y-83830342D02*
X164515476Y-83639866D01*
X164515476Y-83639866D02*
X164515476Y-83401771D01*
X164515476Y-83401771D02*
X164563095Y-83211295D01*
X164563095Y-83211295D02*
X164610714Y-83116057D01*
X164610714Y-83116057D02*
X164658333Y-83068438D01*
X164658333Y-83068438D02*
X164753571Y-83020819D01*
X124958095Y-95769819D02*
X124958095Y-96579342D01*
X124958095Y-96579342D02*
X125005714Y-96674580D01*
X125005714Y-96674580D02*
X125053333Y-96722200D01*
X125053333Y-96722200D02*
X125148571Y-96769819D01*
X125148571Y-96769819D02*
X125339047Y-96769819D01*
X125339047Y-96769819D02*
X125434285Y-96722200D01*
X125434285Y-96722200D02*
X125481904Y-96674580D01*
X125481904Y-96674580D02*
X125529523Y-96579342D01*
X125529523Y-96579342D02*
X125529523Y-95769819D01*
X126434285Y-96103152D02*
X126434285Y-96769819D01*
X126196190Y-95722200D02*
X125958095Y-96436485D01*
X125958095Y-96436485D02*
X126577142Y-96436485D01*
X126962819Y-108029333D02*
X127677104Y-108029333D01*
X127677104Y-108029333D02*
X127819961Y-108076952D01*
X127819961Y-108076952D02*
X127915200Y-108172190D01*
X127915200Y-108172190D02*
X127962819Y-108315047D01*
X127962819Y-108315047D02*
X127962819Y-108410285D01*
X126962819Y-107648380D02*
X126962819Y-107029333D01*
X126962819Y-107029333D02*
X127343771Y-107362666D01*
X127343771Y-107362666D02*
X127343771Y-107219809D01*
X127343771Y-107219809D02*
X127391390Y-107124571D01*
X127391390Y-107124571D02*
X127439009Y-107076952D01*
X127439009Y-107076952D02*
X127534247Y-107029333D01*
X127534247Y-107029333D02*
X127772342Y-107029333D01*
X127772342Y-107029333D02*
X127867580Y-107076952D01*
X127867580Y-107076952D02*
X127915200Y-107124571D01*
X127915200Y-107124571D02*
X127962819Y-107219809D01*
X127962819Y-107219809D02*
X127962819Y-107505523D01*
X127962819Y-107505523D02*
X127915200Y-107600761D01*
X127915200Y-107600761D02*
X127867580Y-107648380D01*
X127835819Y-106147904D02*
X126835819Y-106147904D01*
X126835819Y-106147904D02*
X127550104Y-105814571D01*
X127550104Y-105814571D02*
X126835819Y-105481238D01*
X126835819Y-105481238D02*
X127835819Y-105481238D01*
X126835819Y-104814571D02*
X126835819Y-104624095D01*
X126835819Y-104624095D02*
X126883438Y-104528857D01*
X126883438Y-104528857D02*
X126978676Y-104433619D01*
X126978676Y-104433619D02*
X127169152Y-104386000D01*
X127169152Y-104386000D02*
X127502485Y-104386000D01*
X127502485Y-104386000D02*
X127692961Y-104433619D01*
X127692961Y-104433619D02*
X127788200Y-104528857D01*
X127788200Y-104528857D02*
X127835819Y-104624095D01*
X127835819Y-104624095D02*
X127835819Y-104814571D01*
X127835819Y-104814571D02*
X127788200Y-104909809D01*
X127788200Y-104909809D02*
X127692961Y-105005047D01*
X127692961Y-105005047D02*
X127502485Y-105052666D01*
X127502485Y-105052666D02*
X127169152Y-105052666D01*
X127169152Y-105052666D02*
X126978676Y-105005047D01*
X126978676Y-105005047D02*
X126883438Y-104909809D01*
X126883438Y-104909809D02*
X126835819Y-104814571D01*
X126835819Y-104100285D02*
X126835819Y-103528857D01*
X127835819Y-103814571D02*
X126835819Y-103814571D01*
X126835819Y-103005047D02*
X126835819Y-102814571D01*
X126835819Y-102814571D02*
X126883438Y-102719333D01*
X126883438Y-102719333D02*
X126978676Y-102624095D01*
X126978676Y-102624095D02*
X127169152Y-102576476D01*
X127169152Y-102576476D02*
X127502485Y-102576476D01*
X127502485Y-102576476D02*
X127692961Y-102624095D01*
X127692961Y-102624095D02*
X127788200Y-102719333D01*
X127788200Y-102719333D02*
X127835819Y-102814571D01*
X127835819Y-102814571D02*
X127835819Y-103005047D01*
X127835819Y-103005047D02*
X127788200Y-103100285D01*
X127788200Y-103100285D02*
X127692961Y-103195523D01*
X127692961Y-103195523D02*
X127502485Y-103243142D01*
X127502485Y-103243142D02*
X127169152Y-103243142D01*
X127169152Y-103243142D02*
X126978676Y-103195523D01*
X126978676Y-103195523D02*
X126883438Y-103100285D01*
X126883438Y-103100285D02*
X126835819Y-103005047D01*
X127835819Y-101576476D02*
X127359628Y-101909809D01*
X127835819Y-102147904D02*
X126835819Y-102147904D01*
X126835819Y-102147904D02*
X126835819Y-101766952D01*
X126835819Y-101766952D02*
X126883438Y-101671714D01*
X126883438Y-101671714D02*
X126931057Y-101624095D01*
X126931057Y-101624095D02*
X127026295Y-101576476D01*
X127026295Y-101576476D02*
X127169152Y-101576476D01*
X127169152Y-101576476D02*
X127264390Y-101624095D01*
X127264390Y-101624095D02*
X127312009Y-101671714D01*
X127312009Y-101671714D02*
X127359628Y-101766952D01*
X127359628Y-101766952D02*
X127359628Y-102147904D01*
X119213333Y-90497819D02*
X118880000Y-90021628D01*
X118641905Y-90497819D02*
X118641905Y-89497819D01*
X118641905Y-89497819D02*
X119022857Y-89497819D01*
X119022857Y-89497819D02*
X119118095Y-89545438D01*
X119118095Y-89545438D02*
X119165714Y-89593057D01*
X119165714Y-89593057D02*
X119213333Y-89688295D01*
X119213333Y-89688295D02*
X119213333Y-89831152D01*
X119213333Y-89831152D02*
X119165714Y-89926390D01*
X119165714Y-89926390D02*
X119118095Y-89974009D01*
X119118095Y-89974009D02*
X119022857Y-90021628D01*
X119022857Y-90021628D02*
X118641905Y-90021628D01*
X119546667Y-89497819D02*
X120213333Y-89497819D01*
X120213333Y-89497819D02*
X119784762Y-90497819D01*
X167532142Y-79194819D02*
X167198809Y-78718628D01*
X166960714Y-79194819D02*
X166960714Y-78194819D01*
X166960714Y-78194819D02*
X167341666Y-78194819D01*
X167341666Y-78194819D02*
X167436904Y-78242438D01*
X167436904Y-78242438D02*
X167484523Y-78290057D01*
X167484523Y-78290057D02*
X167532142Y-78385295D01*
X167532142Y-78385295D02*
X167532142Y-78528152D01*
X167532142Y-78528152D02*
X167484523Y-78623390D01*
X167484523Y-78623390D02*
X167436904Y-78671009D01*
X167436904Y-78671009D02*
X167341666Y-78718628D01*
X167341666Y-78718628D02*
X166960714Y-78718628D01*
X168484523Y-79194819D02*
X167913095Y-79194819D01*
X168198809Y-79194819D02*
X168198809Y-78194819D01*
X168198809Y-78194819D02*
X168103571Y-78337676D01*
X168103571Y-78337676D02*
X168008333Y-78432914D01*
X168008333Y-78432914D02*
X167913095Y-78480533D01*
X168817857Y-78194819D02*
X169436904Y-78194819D01*
X169436904Y-78194819D02*
X169103571Y-78575771D01*
X169103571Y-78575771D02*
X169246428Y-78575771D01*
X169246428Y-78575771D02*
X169341666Y-78623390D01*
X169341666Y-78623390D02*
X169389285Y-78671009D01*
X169389285Y-78671009D02*
X169436904Y-78766247D01*
X169436904Y-78766247D02*
X169436904Y-79004342D01*
X169436904Y-79004342D02*
X169389285Y-79099580D01*
X169389285Y-79099580D02*
X169341666Y-79147200D01*
X169341666Y-79147200D02*
X169246428Y-79194819D01*
X169246428Y-79194819D02*
X168960714Y-79194819D01*
X168960714Y-79194819D02*
X168865476Y-79147200D01*
X168865476Y-79147200D02*
X168817857Y-79099580D01*
X170203905Y-124406819D02*
X170203905Y-123406819D01*
X170203905Y-123406819D02*
X170442000Y-123406819D01*
X170442000Y-123406819D02*
X170584857Y-123454438D01*
X170584857Y-123454438D02*
X170680095Y-123549676D01*
X170680095Y-123549676D02*
X170727714Y-123644914D01*
X170727714Y-123644914D02*
X170775333Y-123835390D01*
X170775333Y-123835390D02*
X170775333Y-123978247D01*
X170775333Y-123978247D02*
X170727714Y-124168723D01*
X170727714Y-124168723D02*
X170680095Y-124263961D01*
X170680095Y-124263961D02*
X170584857Y-124359200D01*
X170584857Y-124359200D02*
X170442000Y-124406819D01*
X170442000Y-124406819D02*
X170203905Y-124406819D01*
X171156286Y-123502057D02*
X171203905Y-123454438D01*
X171203905Y-123454438D02*
X171299143Y-123406819D01*
X171299143Y-123406819D02*
X171537238Y-123406819D01*
X171537238Y-123406819D02*
X171632476Y-123454438D01*
X171632476Y-123454438D02*
X171680095Y-123502057D01*
X171680095Y-123502057D02*
X171727714Y-123597295D01*
X171727714Y-123597295D02*
X171727714Y-123692533D01*
X171727714Y-123692533D02*
X171680095Y-123835390D01*
X171680095Y-123835390D02*
X171108667Y-124406819D01*
X171108667Y-124406819D02*
X171727714Y-124406819D01*
X160760580Y-120308666D02*
X160808200Y-120356285D01*
X160808200Y-120356285D02*
X160855819Y-120499142D01*
X160855819Y-120499142D02*
X160855819Y-120594380D01*
X160855819Y-120594380D02*
X160808200Y-120737237D01*
X160808200Y-120737237D02*
X160712961Y-120832475D01*
X160712961Y-120832475D02*
X160617723Y-120880094D01*
X160617723Y-120880094D02*
X160427247Y-120927713D01*
X160427247Y-120927713D02*
X160284390Y-120927713D01*
X160284390Y-120927713D02*
X160093914Y-120880094D01*
X160093914Y-120880094D02*
X159998676Y-120832475D01*
X159998676Y-120832475D02*
X159903438Y-120737237D01*
X159903438Y-120737237D02*
X159855819Y-120594380D01*
X159855819Y-120594380D02*
X159855819Y-120499142D01*
X159855819Y-120499142D02*
X159903438Y-120356285D01*
X159903438Y-120356285D02*
X159951057Y-120308666D01*
X160284390Y-119737237D02*
X160236771Y-119832475D01*
X160236771Y-119832475D02*
X160189152Y-119880094D01*
X160189152Y-119880094D02*
X160093914Y-119927713D01*
X160093914Y-119927713D02*
X160046295Y-119927713D01*
X160046295Y-119927713D02*
X159951057Y-119880094D01*
X159951057Y-119880094D02*
X159903438Y-119832475D01*
X159903438Y-119832475D02*
X159855819Y-119737237D01*
X159855819Y-119737237D02*
X159855819Y-119546761D01*
X159855819Y-119546761D02*
X159903438Y-119451523D01*
X159903438Y-119451523D02*
X159951057Y-119403904D01*
X159951057Y-119403904D02*
X160046295Y-119356285D01*
X160046295Y-119356285D02*
X160093914Y-119356285D01*
X160093914Y-119356285D02*
X160189152Y-119403904D01*
X160189152Y-119403904D02*
X160236771Y-119451523D01*
X160236771Y-119451523D02*
X160284390Y-119546761D01*
X160284390Y-119546761D02*
X160284390Y-119737237D01*
X160284390Y-119737237D02*
X160332009Y-119832475D01*
X160332009Y-119832475D02*
X160379628Y-119880094D01*
X160379628Y-119880094D02*
X160474866Y-119927713D01*
X160474866Y-119927713D02*
X160665342Y-119927713D01*
X160665342Y-119927713D02*
X160760580Y-119880094D01*
X160760580Y-119880094D02*
X160808200Y-119832475D01*
X160808200Y-119832475D02*
X160855819Y-119737237D01*
X160855819Y-119737237D02*
X160855819Y-119546761D01*
X160855819Y-119546761D02*
X160808200Y-119451523D01*
X160808200Y-119451523D02*
X160760580Y-119403904D01*
X160760580Y-119403904D02*
X160665342Y-119356285D01*
X160665342Y-119356285D02*
X160474866Y-119356285D01*
X160474866Y-119356285D02*
X160379628Y-119403904D01*
X160379628Y-119403904D02*
X160332009Y-119451523D01*
X160332009Y-119451523D02*
X160284390Y-119546761D01*
X148042333Y-120850819D02*
X147709000Y-120374628D01*
X147470905Y-120850819D02*
X147470905Y-119850819D01*
X147470905Y-119850819D02*
X147851857Y-119850819D01*
X147851857Y-119850819D02*
X147947095Y-119898438D01*
X147947095Y-119898438D02*
X147994714Y-119946057D01*
X147994714Y-119946057D02*
X148042333Y-120041295D01*
X148042333Y-120041295D02*
X148042333Y-120184152D01*
X148042333Y-120184152D02*
X147994714Y-120279390D01*
X147994714Y-120279390D02*
X147947095Y-120327009D01*
X147947095Y-120327009D02*
X147851857Y-120374628D01*
X147851857Y-120374628D02*
X147470905Y-120374628D01*
X148375667Y-119850819D02*
X148994714Y-119850819D01*
X148994714Y-119850819D02*
X148661381Y-120231771D01*
X148661381Y-120231771D02*
X148804238Y-120231771D01*
X148804238Y-120231771D02*
X148899476Y-120279390D01*
X148899476Y-120279390D02*
X148947095Y-120327009D01*
X148947095Y-120327009D02*
X148994714Y-120422247D01*
X148994714Y-120422247D02*
X148994714Y-120660342D01*
X148994714Y-120660342D02*
X148947095Y-120755580D01*
X148947095Y-120755580D02*
X148899476Y-120803200D01*
X148899476Y-120803200D02*
X148804238Y-120850819D01*
X148804238Y-120850819D02*
X148518524Y-120850819D01*
X148518524Y-120850819D02*
X148423286Y-120803200D01*
X148423286Y-120803200D02*
X148375667Y-120755580D01*
D11*
X157533501Y-71593419D02*
X157533501Y-72402942D01*
X157533501Y-72402942D02*
X157581120Y-72498180D01*
X157581120Y-72498180D02*
X157628739Y-72545800D01*
X157628739Y-72545800D02*
X157723977Y-72593419D01*
X157723977Y-72593419D02*
X157914453Y-72593419D01*
X157914453Y-72593419D02*
X158009691Y-72545800D01*
X158009691Y-72545800D02*
X158057310Y-72498180D01*
X158057310Y-72498180D02*
X158104929Y-72402942D01*
X158104929Y-72402942D02*
X158104929Y-71593419D01*
X158723977Y-72021990D02*
X158628739Y-71974371D01*
X158628739Y-71974371D02*
X158581120Y-71926752D01*
X158581120Y-71926752D02*
X158533501Y-71831514D01*
X158533501Y-71831514D02*
X158533501Y-71783895D01*
X158533501Y-71783895D02*
X158581120Y-71688657D01*
X158581120Y-71688657D02*
X158628739Y-71641038D01*
X158628739Y-71641038D02*
X158723977Y-71593419D01*
X158723977Y-71593419D02*
X158914453Y-71593419D01*
X158914453Y-71593419D02*
X159009691Y-71641038D01*
X159009691Y-71641038D02*
X159057310Y-71688657D01*
X159057310Y-71688657D02*
X159104929Y-71783895D01*
X159104929Y-71783895D02*
X159104929Y-71831514D01*
X159104929Y-71831514D02*
X159057310Y-71926752D01*
X159057310Y-71926752D02*
X159009691Y-71974371D01*
X159009691Y-71974371D02*
X158914453Y-72021990D01*
X158914453Y-72021990D02*
X158723977Y-72021990D01*
X158723977Y-72021990D02*
X158628739Y-72069609D01*
X158628739Y-72069609D02*
X158581120Y-72117228D01*
X158581120Y-72117228D02*
X158533501Y-72212466D01*
X158533501Y-72212466D02*
X158533501Y-72402942D01*
X158533501Y-72402942D02*
X158581120Y-72498180D01*
X158581120Y-72498180D02*
X158628739Y-72545800D01*
X158628739Y-72545800D02*
X158723977Y-72593419D01*
X158723977Y-72593419D02*
X158914453Y-72593419D01*
X158914453Y-72593419D02*
X159009691Y-72545800D01*
X159009691Y-72545800D02*
X159057310Y-72498180D01*
X159057310Y-72498180D02*
X159104929Y-72402942D01*
X159104929Y-72402942D02*
X159104929Y-72212466D01*
X159104929Y-72212466D02*
X159057310Y-72117228D01*
X159057310Y-72117228D02*
X159009691Y-72069609D01*
X159009691Y-72069609D02*
X158914453Y-72021990D01*
D10*
X157440333Y-127327819D02*
X157107000Y-126851628D01*
X156868905Y-127327819D02*
X156868905Y-126327819D01*
X156868905Y-126327819D02*
X157249857Y-126327819D01*
X157249857Y-126327819D02*
X157345095Y-126375438D01*
X157345095Y-126375438D02*
X157392714Y-126423057D01*
X157392714Y-126423057D02*
X157440333Y-126518295D01*
X157440333Y-126518295D02*
X157440333Y-126661152D01*
X157440333Y-126661152D02*
X157392714Y-126756390D01*
X157392714Y-126756390D02*
X157345095Y-126804009D01*
X157345095Y-126804009D02*
X157249857Y-126851628D01*
X157249857Y-126851628D02*
X156868905Y-126851628D01*
X158345095Y-126327819D02*
X157868905Y-126327819D01*
X157868905Y-126327819D02*
X157821286Y-126804009D01*
X157821286Y-126804009D02*
X157868905Y-126756390D01*
X157868905Y-126756390D02*
X157964143Y-126708771D01*
X157964143Y-126708771D02*
X158202238Y-126708771D01*
X158202238Y-126708771D02*
X158297476Y-126756390D01*
X158297476Y-126756390D02*
X158345095Y-126804009D01*
X158345095Y-126804009D02*
X158392714Y-126899247D01*
X158392714Y-126899247D02*
X158392714Y-127137342D01*
X158392714Y-127137342D02*
X158345095Y-127232580D01*
X158345095Y-127232580D02*
X158297476Y-127280200D01*
X158297476Y-127280200D02*
X158202238Y-127327819D01*
X158202238Y-127327819D02*
X157964143Y-127327819D01*
X157964143Y-127327819D02*
X157868905Y-127280200D01*
X157868905Y-127280200D02*
X157821286Y-127232580D01*
X170680142Y-96974819D02*
X170346809Y-96498628D01*
X170108714Y-96974819D02*
X170108714Y-95974819D01*
X170108714Y-95974819D02*
X170489666Y-95974819D01*
X170489666Y-95974819D02*
X170584904Y-96022438D01*
X170584904Y-96022438D02*
X170632523Y-96070057D01*
X170632523Y-96070057D02*
X170680142Y-96165295D01*
X170680142Y-96165295D02*
X170680142Y-96308152D01*
X170680142Y-96308152D02*
X170632523Y-96403390D01*
X170632523Y-96403390D02*
X170584904Y-96451009D01*
X170584904Y-96451009D02*
X170489666Y-96498628D01*
X170489666Y-96498628D02*
X170108714Y-96498628D01*
X171632523Y-96974819D02*
X171061095Y-96974819D01*
X171346809Y-96974819D02*
X171346809Y-95974819D01*
X171346809Y-95974819D02*
X171251571Y-96117676D01*
X171251571Y-96117676D02*
X171156333Y-96212914D01*
X171156333Y-96212914D02*
X171061095Y-96260533D01*
X172584904Y-96974819D02*
X172013476Y-96974819D01*
X172299190Y-96974819D02*
X172299190Y-95974819D01*
X172299190Y-95974819D02*
X172203952Y-96117676D01*
X172203952Y-96117676D02*
X172108714Y-96212914D01*
X172108714Y-96212914D02*
X172013476Y-96260533D01*
X125634762Y-74718057D02*
X125539524Y-74670438D01*
X125539524Y-74670438D02*
X125444286Y-74575200D01*
X125444286Y-74575200D02*
X125301429Y-74432342D01*
X125301429Y-74432342D02*
X125206191Y-74384723D01*
X125206191Y-74384723D02*
X125110953Y-74384723D01*
X125158572Y-74622819D02*
X125063334Y-74575200D01*
X125063334Y-74575200D02*
X124968096Y-74479961D01*
X124968096Y-74479961D02*
X124920477Y-74289485D01*
X124920477Y-74289485D02*
X124920477Y-73956152D01*
X124920477Y-73956152D02*
X124968096Y-73765676D01*
X124968096Y-73765676D02*
X125063334Y-73670438D01*
X125063334Y-73670438D02*
X125158572Y-73622819D01*
X125158572Y-73622819D02*
X125349048Y-73622819D01*
X125349048Y-73622819D02*
X125444286Y-73670438D01*
X125444286Y-73670438D02*
X125539524Y-73765676D01*
X125539524Y-73765676D02*
X125587143Y-73956152D01*
X125587143Y-73956152D02*
X125587143Y-74289485D01*
X125587143Y-74289485D02*
X125539524Y-74479961D01*
X125539524Y-74479961D02*
X125444286Y-74575200D01*
X125444286Y-74575200D02*
X125349048Y-74622819D01*
X125349048Y-74622819D02*
X125158572Y-74622819D01*
X126539524Y-74622819D02*
X125968096Y-74622819D01*
X126253810Y-74622819D02*
X126253810Y-73622819D01*
X126253810Y-73622819D02*
X126158572Y-73765676D01*
X126158572Y-73765676D02*
X126063334Y-73860914D01*
X126063334Y-73860914D02*
X125968096Y-73908533D01*
X165862095Y-112738819D02*
X165862095Y-113548342D01*
X165862095Y-113548342D02*
X165909714Y-113643580D01*
X165909714Y-113643580D02*
X165957333Y-113691200D01*
X165957333Y-113691200D02*
X166052571Y-113738819D01*
X166052571Y-113738819D02*
X166243047Y-113738819D01*
X166243047Y-113738819D02*
X166338285Y-113691200D01*
X166338285Y-113691200D02*
X166385904Y-113643580D01*
X166385904Y-113643580D02*
X166433523Y-113548342D01*
X166433523Y-113548342D02*
X166433523Y-112738819D01*
X166814476Y-112738819D02*
X167433523Y-112738819D01*
X167433523Y-112738819D02*
X167100190Y-113119771D01*
X167100190Y-113119771D02*
X167243047Y-113119771D01*
X167243047Y-113119771D02*
X167338285Y-113167390D01*
X167338285Y-113167390D02*
X167385904Y-113215009D01*
X167385904Y-113215009D02*
X167433523Y-113310247D01*
X167433523Y-113310247D02*
X167433523Y-113548342D01*
X167433523Y-113548342D02*
X167385904Y-113643580D01*
X167385904Y-113643580D02*
X167338285Y-113691200D01*
X167338285Y-113691200D02*
X167243047Y-113738819D01*
X167243047Y-113738819D02*
X166957333Y-113738819D01*
X166957333Y-113738819D02*
X166862095Y-113691200D01*
X166862095Y-113691200D02*
X166814476Y-113643580D01*
X156061580Y-120308666D02*
X156109200Y-120356285D01*
X156109200Y-120356285D02*
X156156819Y-120499142D01*
X156156819Y-120499142D02*
X156156819Y-120594380D01*
X156156819Y-120594380D02*
X156109200Y-120737237D01*
X156109200Y-120737237D02*
X156013961Y-120832475D01*
X156013961Y-120832475D02*
X155918723Y-120880094D01*
X155918723Y-120880094D02*
X155728247Y-120927713D01*
X155728247Y-120927713D02*
X155585390Y-120927713D01*
X155585390Y-120927713D02*
X155394914Y-120880094D01*
X155394914Y-120880094D02*
X155299676Y-120832475D01*
X155299676Y-120832475D02*
X155204438Y-120737237D01*
X155204438Y-120737237D02*
X155156819Y-120594380D01*
X155156819Y-120594380D02*
X155156819Y-120499142D01*
X155156819Y-120499142D02*
X155204438Y-120356285D01*
X155204438Y-120356285D02*
X155252057Y-120308666D01*
X155156819Y-119975332D02*
X155156819Y-119308666D01*
X155156819Y-119308666D02*
X156156819Y-119737237D01*
X145502333Y-104245580D02*
X145454714Y-104293200D01*
X145454714Y-104293200D02*
X145311857Y-104340819D01*
X145311857Y-104340819D02*
X145216619Y-104340819D01*
X145216619Y-104340819D02*
X145073762Y-104293200D01*
X145073762Y-104293200D02*
X144978524Y-104197961D01*
X144978524Y-104197961D02*
X144930905Y-104102723D01*
X144930905Y-104102723D02*
X144883286Y-103912247D01*
X144883286Y-103912247D02*
X144883286Y-103769390D01*
X144883286Y-103769390D02*
X144930905Y-103578914D01*
X144930905Y-103578914D02*
X144978524Y-103483676D01*
X144978524Y-103483676D02*
X145073762Y-103388438D01*
X145073762Y-103388438D02*
X145216619Y-103340819D01*
X145216619Y-103340819D02*
X145311857Y-103340819D01*
X145311857Y-103340819D02*
X145454714Y-103388438D01*
X145454714Y-103388438D02*
X145502333Y-103436057D01*
X146407095Y-103340819D02*
X145930905Y-103340819D01*
X145930905Y-103340819D02*
X145883286Y-103817009D01*
X145883286Y-103817009D02*
X145930905Y-103769390D01*
X145930905Y-103769390D02*
X146026143Y-103721771D01*
X146026143Y-103721771D02*
X146264238Y-103721771D01*
X146264238Y-103721771D02*
X146359476Y-103769390D01*
X146359476Y-103769390D02*
X146407095Y-103817009D01*
X146407095Y-103817009D02*
X146454714Y-103912247D01*
X146454714Y-103912247D02*
X146454714Y-104150342D01*
X146454714Y-104150342D02*
X146407095Y-104245580D01*
X146407095Y-104245580D02*
X146359476Y-104293200D01*
X146359476Y-104293200D02*
X146264238Y-104340819D01*
X146264238Y-104340819D02*
X146026143Y-104340819D01*
X146026143Y-104340819D02*
X145930905Y-104293200D01*
X145930905Y-104293200D02*
X145883286Y-104245580D01*
X147407333Y-105134580D02*
X147359714Y-105182200D01*
X147359714Y-105182200D02*
X147216857Y-105229819D01*
X147216857Y-105229819D02*
X147121619Y-105229819D01*
X147121619Y-105229819D02*
X146978762Y-105182200D01*
X146978762Y-105182200D02*
X146883524Y-105086961D01*
X146883524Y-105086961D02*
X146835905Y-104991723D01*
X146835905Y-104991723D02*
X146788286Y-104801247D01*
X146788286Y-104801247D02*
X146788286Y-104658390D01*
X146788286Y-104658390D02*
X146835905Y-104467914D01*
X146835905Y-104467914D02*
X146883524Y-104372676D01*
X146883524Y-104372676D02*
X146978762Y-104277438D01*
X146978762Y-104277438D02*
X147121619Y-104229819D01*
X147121619Y-104229819D02*
X147216857Y-104229819D01*
X147216857Y-104229819D02*
X147359714Y-104277438D01*
X147359714Y-104277438D02*
X147407333Y-104325057D01*
X147740667Y-104229819D02*
X148359714Y-104229819D01*
X148359714Y-104229819D02*
X148026381Y-104610771D01*
X148026381Y-104610771D02*
X148169238Y-104610771D01*
X148169238Y-104610771D02*
X148264476Y-104658390D01*
X148264476Y-104658390D02*
X148312095Y-104706009D01*
X148312095Y-104706009D02*
X148359714Y-104801247D01*
X148359714Y-104801247D02*
X148359714Y-105039342D01*
X148359714Y-105039342D02*
X148312095Y-105134580D01*
X148312095Y-105134580D02*
X148264476Y-105182200D01*
X148264476Y-105182200D02*
X148169238Y-105229819D01*
X148169238Y-105229819D02*
X147883524Y-105229819D01*
X147883524Y-105229819D02*
X147788286Y-105182200D01*
X147788286Y-105182200D02*
X147740667Y-105134580D01*
X144700666Y-128359819D02*
X144700666Y-129074104D01*
X144700666Y-129074104D02*
X144653047Y-129216961D01*
X144653047Y-129216961D02*
X144557809Y-129312200D01*
X144557809Y-129312200D02*
X144414952Y-129359819D01*
X144414952Y-129359819D02*
X144319714Y-129359819D01*
X145129238Y-128455057D02*
X145176857Y-128407438D01*
X145176857Y-128407438D02*
X145272095Y-128359819D01*
X145272095Y-128359819D02*
X145510190Y-128359819D01*
X145510190Y-128359819D02*
X145605428Y-128407438D01*
X145605428Y-128407438D02*
X145653047Y-128455057D01*
X145653047Y-128455057D02*
X145700666Y-128550295D01*
X145700666Y-128550295D02*
X145700666Y-128645533D01*
X145700666Y-128645533D02*
X145653047Y-128788390D01*
X145653047Y-128788390D02*
X145081619Y-129359819D01*
X145081619Y-129359819D02*
X145700666Y-129359819D01*
X135818095Y-105499819D02*
X135818095Y-106309342D01*
X135818095Y-106309342D02*
X135865714Y-106404580D01*
X135865714Y-106404580D02*
X135913333Y-106452200D01*
X135913333Y-106452200D02*
X136008571Y-106499819D01*
X136008571Y-106499819D02*
X136199047Y-106499819D01*
X136199047Y-106499819D02*
X136294285Y-106452200D01*
X136294285Y-106452200D02*
X136341904Y-106404580D01*
X136341904Y-106404580D02*
X136389523Y-106309342D01*
X136389523Y-106309342D02*
X136389523Y-105499819D01*
X137389523Y-106499819D02*
X136818095Y-106499819D01*
X137103809Y-106499819D02*
X137103809Y-105499819D01*
X137103809Y-105499819D02*
X137008571Y-105642676D01*
X137008571Y-105642676D02*
X136913333Y-105737914D01*
X136913333Y-105737914D02*
X136818095Y-105785533D01*
D12*
X169688742Y-120680500D02*
X170163258Y-120680500D01*
X169688742Y-121725500D02*
X170163258Y-121725500D01*
X161100000Y-86650000D02*
X161100000Y-93350000D01*
X161100000Y-86650000D02*
X174900000Y-86650000D01*
X174900000Y-93350000D02*
X161100000Y-93350000D01*
X174900000Y-93350000D02*
X174900000Y-86650000D01*
X164822000Y-118391000D02*
X164822000Y-119861000D01*
X164822000Y-119861000D02*
X167107000Y-119861000D01*
X167107000Y-118391000D02*
X164822000Y-118391000D01*
X131345000Y-99661252D02*
X131345000Y-99138748D01*
X132815000Y-99661252D02*
X132815000Y-99138748D01*
X144540500Y-123112742D02*
X144540500Y-123587258D01*
X143495500Y-123112742D02*
X143495500Y-123587258D01*
X165001000Y-108087000D02*
X165001000Y-102987000D01*
X165001000Y-102987000D02*
X152401000Y-102987000D01*
X152401000Y-108087000D02*
X165001000Y-108087000D01*
X125428000Y-112812000D02*
X124928000Y-112812000D01*
X125178000Y-113062000D02*
X125178000Y-112562000D01*
X124688000Y-112447563D02*
X124688000Y-112312000D01*
X124688000Y-112447563D02*
X123623563Y-113512000D01*
X124688000Y-110056437D02*
X124688000Y-110192000D01*
X124688000Y-110056437D02*
X123623563Y-108992000D01*
X123623563Y-113512000D02*
X120168000Y-113512000D01*
X123623563Y-108992000D02*
X120168000Y-108992000D01*
X120168000Y-113512000D02*
X120168000Y-112312000D01*
X120168000Y-108992000D02*
X120168000Y-110192000D01*
D10*
X149040000Y-108770000D02*
X148815000Y-108770000D01*
X149040000Y-108770000D02*
X149040000Y-109095000D01*
X148815000Y-108770000D02*
X148815000Y-107345000D01*
X141790000Y-108770000D02*
X142115000Y-108770000D01*
X141790000Y-108770000D02*
X141790000Y-109095000D01*
X149040000Y-116020000D02*
X149040000Y-115695000D01*
X149040000Y-116020000D02*
X148715000Y-116020000D01*
X141790000Y-116020000D02*
X141790000Y-115695000D01*
X141790000Y-116020000D02*
X142115000Y-116020000D01*
D12*
X119340000Y-114494000D02*
X119340000Y-122234000D01*
X119340000Y-114494000D02*
X121940000Y-114494000D01*
X119340000Y-122234000D02*
X124540000Y-122234000D01*
X121940000Y-114494000D02*
X121940000Y-117094000D01*
X121940000Y-117094000D02*
X124540000Y-117094000D01*
X123210000Y-114494000D02*
X124540000Y-114494000D01*
X124540000Y-114494000D02*
X124540000Y-115824000D01*
X124540000Y-117094000D02*
X124540000Y-122234000D01*
X152357500Y-120252258D02*
X152357500Y-119777742D01*
X153402500Y-120252258D02*
X153402500Y-119777742D01*
X168346800Y-129352500D02*
X168346800Y-125452500D01*
X168346800Y-129352500D02*
X160626800Y-129352500D01*
X168346800Y-122852500D02*
X168346800Y-122342500D01*
X168346800Y-122342500D02*
X167826800Y-122342500D01*
X167826800Y-125682500D02*
X167826800Y-125452500D01*
X167826800Y-125682500D02*
X167286800Y-125682500D01*
X167826800Y-122852500D02*
X167826800Y-122342500D01*
X166186800Y-125682500D02*
X162786800Y-125682500D01*
X161686800Y-125682500D02*
X161146800Y-125682500D01*
X161146800Y-125682500D02*
X161146800Y-125452500D01*
X161146800Y-122852500D02*
X161146800Y-122342500D01*
X161146800Y-122342500D02*
X160626800Y-122342500D01*
X160626800Y-129352500D02*
X160626800Y-125452500D01*
X160626800Y-122852500D02*
X160626800Y-122342500D01*
X175470000Y-101330000D02*
X174220000Y-101330000D01*
X175180000Y-101620000D02*
X169210000Y-101620000D01*
X169210000Y-101620000D02*
X169210000Y-119240000D01*
X175170000Y-101630000D02*
X174420000Y-101630000D01*
X174420000Y-101630000D02*
X174420000Y-103430000D01*
X172920000Y-101630000D02*
X172920000Y-102380000D01*
X172920000Y-102380000D02*
X169970000Y-102380000D01*
X169970000Y-102380000D02*
X169970000Y-110430000D01*
X175470000Y-102580000D02*
X175470000Y-101330000D01*
X175170000Y-103430000D02*
X175170000Y-101630000D01*
X174420000Y-103430000D02*
X175170000Y-103430000D01*
X175170000Y-104930000D02*
X174420000Y-104930000D01*
X174420000Y-104930000D02*
X174420000Y-115930000D01*
X175170000Y-115930000D02*
X175170000Y-104930000D01*
X174420000Y-115930000D02*
X175170000Y-115930000D01*
X175170000Y-117430000D02*
X174420000Y-117430000D01*
X174420000Y-117430000D02*
X174420000Y-119230000D01*
X172920000Y-118480000D02*
X169970000Y-118480000D01*
X169970000Y-118480000D02*
X169970000Y-110430000D01*
X175170000Y-119230000D02*
X175170000Y-117430000D01*
X174420000Y-119230000D02*
X175170000Y-119230000D01*
X172920000Y-119230000D02*
X172920000Y-118480000D01*
X175180000Y-119240000D02*
X175180000Y-101620000D01*
X169210000Y-119240000D02*
X175180000Y-119240000D01*
X142499420Y-118235000D02*
X142780580Y-118235000D01*
X142499420Y-119255000D02*
X142780580Y-119255000D01*
X162259742Y-120680500D02*
X162734258Y-120680500D01*
X162259742Y-121725500D02*
X162734258Y-121725500D01*
X151477500Y-70341258D02*
X151477500Y-69866742D01*
X152522500Y-70341258D02*
X152522500Y-69866742D01*
X168392000Y-98617000D02*
X168392000Y-95167000D01*
X168392000Y-98617000D02*
X168392000Y-100567000D01*
X159522000Y-98617000D02*
X159522000Y-96667000D01*
X159522000Y-98617000D02*
X159522000Y-100567000D01*
X128429936Y-112374000D02*
X129634064Y-112374000D01*
X128429936Y-114194000D02*
X129634064Y-114194000D01*
X125668000Y-115990000D02*
X125668000Y-117290000D01*
X125968000Y-116290000D02*
X127968000Y-116290000D01*
X125968000Y-130790000D02*
X125968000Y-116290000D01*
X127368000Y-115990000D02*
X125668000Y-115990000D01*
X133168000Y-116290000D02*
X135168000Y-116290000D01*
X135168000Y-116290000D02*
X135168000Y-117590000D01*
X135168000Y-122190000D02*
X135168000Y-130790000D01*
X135168000Y-130790000D02*
X125968000Y-130790000D01*
X125895500Y-100710000D02*
X125895500Y-97410000D01*
X125895500Y-100710000D02*
X120385500Y-100710000D01*
X125895500Y-97410000D02*
X120385500Y-97410000D01*
X138580000Y-125385000D02*
X138580000Y-129245000D01*
X138580000Y-125385000D02*
X141700000Y-125385000D01*
X138870000Y-125255000D02*
X138870000Y-125255000D01*
X138870000Y-125255000D02*
X138870000Y-125385000D01*
X138870000Y-125385000D02*
X138870000Y-125255000D01*
X138870000Y-125385000D02*
X138870000Y-125385000D01*
X141410000Y-125255000D02*
X141410000Y-125255000D01*
X141410000Y-125255000D02*
X141410000Y-125385000D01*
X141410000Y-125385000D02*
X141410000Y-125255000D01*
X141410000Y-125385000D02*
X141410000Y-125385000D01*
X141700000Y-125385000D02*
X141700000Y-129245000D01*
X141700000Y-125385000D02*
X142100000Y-125385000D01*
X141700000Y-126505000D02*
X141700000Y-125385000D01*
X142100000Y-125385000D02*
X142100000Y-126505000D01*
X142100000Y-126505000D02*
X141700000Y-126505000D01*
X138580000Y-129245000D02*
G75*
G03*
X141700000Y-129245000I1560000J0D01*
G01*
X130592258Y-97042500D02*
X130117742Y-97042500D01*
X130592258Y-95997500D02*
X130117742Y-95997500D01*
X129045000Y-99661252D02*
X129045000Y-99138748D01*
X130515000Y-99661252D02*
X130515000Y-99138748D01*
X141625000Y-105497580D02*
X141625000Y-105216420D01*
X142645000Y-105497580D02*
X142645000Y-105216420D01*
X162259742Y-118603500D02*
X162734258Y-118603500D01*
X162259742Y-119648500D02*
X162734258Y-119648500D01*
X143650000Y-75900000D02*
X150350000Y-75900000D01*
X143650000Y-75900000D02*
X143650000Y-62100000D01*
X150350000Y-62100000D02*
X150350000Y-75900000D01*
X150350000Y-62100000D02*
X143650000Y-62100000D01*
X163587742Y-84567500D02*
X164062258Y-84567500D01*
X163587742Y-85612500D02*
X164062258Y-85612500D01*
X128370000Y-95315000D02*
X128370000Y-90115000D01*
X128370000Y-90115000D02*
X123070000Y-90115000D01*
X126720000Y-95315000D02*
X128370000Y-95315000D01*
X123070000Y-95315000D02*
X124720000Y-95315000D01*
X123070000Y-90115000D02*
X123070000Y-95315000D01*
X126720000Y-95315000D02*
G75*
G03*
X124720000Y-95315000I-1000000J0D01*
G01*
X126508000Y-108160000D02*
X126508000Y-106910000D01*
X126218000Y-107870000D02*
X126218000Y-101900000D01*
X126218000Y-101900000D02*
X118598000Y-101900000D01*
X126208000Y-107860000D02*
X126208000Y-107110000D01*
X126208000Y-107110000D02*
X124408000Y-107110000D01*
X126208000Y-105610000D02*
X125458000Y-105610000D01*
X125458000Y-105610000D02*
X125458000Y-102660000D01*
X125458000Y-102660000D02*
X122408000Y-102660000D01*
X125258000Y-108160000D02*
X126508000Y-108160000D01*
X124408000Y-107860000D02*
X126208000Y-107860000D01*
X124408000Y-107110000D02*
X124408000Y-107860000D01*
X122908000Y-107860000D02*
X122908000Y-107110000D01*
X122908000Y-107110000D02*
X121908000Y-107110000D01*
X121908000Y-107860000D02*
X122908000Y-107860000D01*
X121908000Y-107110000D02*
X121908000Y-107860000D01*
X120408000Y-107860000D02*
X120408000Y-107110000D01*
X120408000Y-107110000D02*
X118608000Y-107110000D01*
X119358000Y-105610000D02*
X119358000Y-102660000D01*
X119358000Y-102660000D02*
X122408000Y-102660000D01*
X118608000Y-107860000D02*
X120408000Y-107860000D01*
X118608000Y-107110000D02*
X118608000Y-107860000D01*
X118608000Y-105610000D02*
X119358000Y-105610000D01*
X118598000Y-107870000D02*
X126218000Y-107870000D01*
X118598000Y-101900000D02*
X118598000Y-107870000D01*
X119902500Y-92032742D02*
X119902500Y-92507258D01*
X118857500Y-92032742D02*
X118857500Y-92507258D01*
X167937742Y-76477500D02*
X168412258Y-76477500D01*
X167937742Y-77522500D02*
X168412258Y-77522500D01*
X164822000Y-120468000D02*
X164822000Y-121938000D01*
X164822000Y-121938000D02*
X167107000Y-121938000D01*
X167107000Y-120468000D02*
X164822000Y-120468000D01*
X158535000Y-120091580D02*
X158535000Y-119810420D01*
X159555000Y-120091580D02*
X159555000Y-119810420D01*
X149357500Y-120252258D02*
X149357500Y-119777742D01*
X150402500Y-120252258D02*
X150402500Y-119777742D01*
X154639663Y-77576669D02*
X159377279Y-82314285D01*
X154639663Y-77576669D02*
X164397737Y-67818595D01*
X169135353Y-72556211D02*
X159377279Y-82314285D01*
X169135353Y-72556211D02*
X164397737Y-67818595D01*
X157042300Y-124862258D02*
X157042300Y-124387742D01*
X158087300Y-124862258D02*
X158087300Y-124387742D01*
X171937742Y-94477500D02*
X172412258Y-94477500D01*
X171937742Y-95522500D02*
X172412258Y-95522500D01*
X131931950Y-66200638D02*
X123986950Y-79961781D01*
X131931950Y-66200638D02*
X140800051Y-71320638D01*
X123986950Y-79961781D02*
X132855051Y-85081781D01*
X126221296Y-81251781D02*
X124951296Y-83451486D01*
X128421001Y-82521781D02*
X127151001Y-84721486D01*
X130620705Y-83791781D02*
X129350705Y-85991486D01*
X140800051Y-71320638D02*
X132855051Y-85081781D01*
D10*
X165345000Y-110409000D02*
X164770000Y-110409000D01*
X165345000Y-110409000D02*
X165345000Y-116159000D01*
X164770000Y-110409000D02*
X164770000Y-108809000D01*
X154695000Y-110409000D02*
X155345000Y-110409000D01*
X154695000Y-110409000D02*
X154695000Y-116159000D01*
X165345000Y-116159000D02*
X164695000Y-116159000D01*
X154695000Y-116159000D02*
X155345000Y-116159000D01*
D12*
X156585000Y-120091580D02*
X156585000Y-119810420D01*
X157605000Y-120091580D02*
X157605000Y-119810420D01*
X143385000Y-105497580D02*
X143385000Y-105216420D01*
X144405000Y-105497580D02*
X144405000Y-105216420D01*
X146730580Y-106642000D02*
X146449420Y-106642000D01*
X146730580Y-105622000D02*
X146449420Y-105622000D01*
X146660000Y-125060000D02*
X146660000Y-126860000D01*
X146660000Y-130570000D02*
X146660000Y-129110000D01*
X155600000Y-125060000D02*
X155600000Y-126860000D01*
X155600000Y-130570000D02*
X146660000Y-130570000D01*
X155600000Y-130570000D02*
X155600000Y-129110000D01*
X135490000Y-101945000D02*
X135490000Y-107955000D01*
X128670000Y-104195000D02*
X128670000Y-107955000D01*
X135490000Y-107955000D02*
X134230000Y-107955000D01*
X128670000Y-107955000D02*
X129930000Y-107955000D01*
%LPC*%
D13*
X169101000Y-121203000D03*
X170751000Y-121203000D03*
D14*
X163000000Y-88730000D03*
X163000000Y-91270000D03*
X173000000Y-88730000D03*
X173000000Y-91270000D03*
D15*
X165519500Y-119126000D03*
X167094500Y-119126000D03*
D16*
X132080000Y-100350000D03*
X132080000Y-98450000D03*
D17*
X144018000Y-122525000D03*
X144018000Y-124175000D03*
D18*
X162551000Y-105537000D03*
X154051000Y-105537000D03*
D19*
X124228000Y-111252000D03*
X120628000Y-111252000D03*
D20*
X148215000Y-108145000D03*
X147415000Y-108145000D03*
X146615000Y-108145000D03*
X145815000Y-108145000D03*
X145015000Y-108145000D03*
X144215000Y-108145000D03*
X143415000Y-108145000D03*
X142615000Y-108145000D03*
D21*
X141165000Y-109595000D03*
X141165000Y-110395000D03*
X141165000Y-111195000D03*
X141165000Y-111995000D03*
X141165000Y-112795000D03*
X141165000Y-113595000D03*
X141165000Y-114395000D03*
X141165000Y-115195000D03*
D20*
X142615000Y-116645000D03*
X143415000Y-116645000D03*
X144215000Y-116645000D03*
X145015000Y-116645000D03*
X145815000Y-116645000D03*
X146615000Y-116645000D03*
X147415000Y-116645000D03*
X148215000Y-116645000D03*
D21*
X149665000Y-115195000D03*
X149665000Y-114395000D03*
X149665000Y-113595000D03*
X149665000Y-112795000D03*
X149665000Y-111995000D03*
X149665000Y-111195000D03*
X149665000Y-110395000D03*
X149665000Y-109595000D03*
D22*
X123210000Y-115824000D03*
D23*
X120670000Y-115824000D03*
X123210000Y-118364000D03*
X120670000Y-118364000D03*
X123210000Y-120904000D03*
X120670000Y-120904000D03*
D24*
X155000000Y-66000000D03*
D25*
X152880000Y-120840000D03*
X152880000Y-119190000D03*
D26*
X167986800Y-124162500D03*
X160976800Y-124162500D03*
D27*
X166736800Y-126652500D03*
X162236800Y-126652500D03*
D28*
X172720000Y-104180000D03*
D29*
X172720000Y-106680000D03*
X172720000Y-109180000D03*
X172720000Y-111680000D03*
X172720000Y-114180000D03*
X172720000Y-116680000D03*
D30*
X141865000Y-118745000D03*
X143415000Y-118745000D03*
D13*
X161672000Y-121203000D03*
X163322000Y-121203000D03*
D25*
X152000000Y-70929000D03*
X152000000Y-69279000D03*
D31*
X167767000Y-96142000D03*
X166497000Y-96142000D03*
X165227000Y-96142000D03*
X163957000Y-96142000D03*
X162687000Y-96142000D03*
X161417000Y-96142000D03*
X160147000Y-96142000D03*
X160147000Y-101092000D03*
X161417000Y-101092000D03*
X162687000Y-101092000D03*
X163957000Y-101092000D03*
X165227000Y-101092000D03*
X166497000Y-101092000D03*
X167767000Y-101092000D03*
D32*
X127632000Y-113284000D03*
X130432000Y-113284000D03*
D33*
X130568000Y-116990000D03*
D34*
X130568000Y-123290000D03*
D35*
X135368000Y-119890000D03*
D36*
X124385500Y-99060000D03*
X120385500Y-99060000D03*
D24*
X121000000Y-127000000D03*
D37*
X138870000Y-124175000D03*
D38*
X141410000Y-124175000D03*
D24*
X139000000Y-66000000D03*
D39*
X131180000Y-96520000D03*
X129530000Y-96520000D03*
D16*
X129780000Y-100350000D03*
X129780000Y-98450000D03*
D40*
X142135000Y-106132000D03*
X142135000Y-104582000D03*
D13*
X161672000Y-119126000D03*
X163322000Y-119126000D03*
D14*
X145730000Y-74000000D03*
X148270000Y-74000000D03*
X145730000Y-64000000D03*
X148270000Y-64000000D03*
D13*
X163000000Y-85090000D03*
X164650000Y-85090000D03*
D41*
X129530000Y-93985000D03*
D42*
X129530000Y-91445000D03*
X121910000Y-91445000D03*
X121910000Y-93985000D03*
D43*
X123658000Y-105410000D03*
D44*
X121158000Y-105410000D03*
D17*
X119380000Y-91445000D03*
X119380000Y-93095000D03*
D13*
X167350000Y-77000000D03*
X169000000Y-77000000D03*
D15*
X165519500Y-121203000D03*
X167094500Y-121203000D03*
D40*
X159045000Y-120726000D03*
X159045000Y-119176000D03*
D25*
X149880000Y-120840000D03*
X149880000Y-119190000D03*
D14*
X157453948Y-77703948D03*
X159250000Y-79500000D03*
X164525016Y-70632880D03*
X166321068Y-72428932D03*
D25*
X157564800Y-125450000D03*
X157564800Y-123800000D03*
D24*
X173000000Y-127000000D03*
D13*
X171350000Y-95000000D03*
X173000000Y-95000000D03*
D45*
X134906001Y-71289432D03*
D46*
X124376296Y-84447415D03*
D47*
X126576001Y-85717415D03*
X128775705Y-86987415D03*
D48*
X164245000Y-109684000D03*
X163595000Y-109684000D03*
X162945000Y-109684000D03*
X162295000Y-109684000D03*
X161645000Y-109684000D03*
X160995000Y-109684000D03*
X160345000Y-109684000D03*
X159695000Y-109684000D03*
X159045000Y-109684000D03*
X158395000Y-109684000D03*
X157745000Y-109684000D03*
X157095000Y-109684000D03*
X156445000Y-109684000D03*
X155795000Y-109684000D03*
X155795000Y-116884000D03*
X156445000Y-116884000D03*
X157095000Y-116884000D03*
X157745000Y-116884000D03*
X158395000Y-116884000D03*
X159045000Y-116884000D03*
X159695000Y-116884000D03*
X160345000Y-116884000D03*
X160995000Y-116884000D03*
X161645000Y-116884000D03*
X162295000Y-116884000D03*
X162945000Y-116884000D03*
X163595000Y-116884000D03*
X164245000Y-116884000D03*
D40*
X157095000Y-120726000D03*
X157095000Y-119176000D03*
X143895000Y-106132000D03*
X143895000Y-104582000D03*
D49*
X147365000Y-106132000D03*
X145815000Y-106132000D03*
D50*
X147930000Y-123220000D03*
X148730000Y-123220000D03*
D51*
X149880000Y-123220000D03*
X150880000Y-123220000D03*
X151380000Y-123220000D03*
X152380000Y-123220000D03*
D50*
X153530000Y-123220000D03*
X154330000Y-123220000D03*
X154330000Y-123220000D03*
X153530000Y-123220000D03*
D51*
X152880000Y-123220000D03*
X151880000Y-123220000D03*
X150380000Y-123220000D03*
X149380000Y-123220000D03*
D50*
X148730000Y-123220000D03*
X147930000Y-123220000D03*
D52*
X146810000Y-123800000D03*
D53*
X146810000Y-127970000D03*
D52*
X155450000Y-123800000D03*
D53*
X155450000Y-127970000D03*
D54*
X134380000Y-102895000D03*
X132080000Y-102895000D03*
D55*
X132080000Y-109195000D03*
D54*
X129780000Y-102895000D03*
%LPD*%
M02*
